<svg xmlns="http://www.w3.org/2000/svg" width="24" height="24" fill="none" viewBox="0 0 21 22">
  <path fill="#2463EB" d="M5.688 10.976a14.61 14.61 0 0 1 1.395.028c2.138.178 4.64 1.467 6.072 2.297 1.017.589 1.637 1.601 1.8 2.699H17c.493 0 1.21.14 1.834.589C19.508 17.074 20 17.874 20 19a1 1 0 0 1-.566.901h-.001l-.001.001-.003.001-.011.006-.04.019-.146.067a30.878 30.878 0 0 1-2.33.946c-1.41.506-3.298 1.059-4.902 1.059s-3.492-.553-4.903-1.059c-.4-.143-.77-.288-1.097-.42V21a1 1 0 0 1-1 1H1a1 1 0 0 1-1-1v-9a1 1 0 0 1 1-1h3.979l.028-.002.156-.007c.132-.005.316-.011.525-.015ZM6 12.974v5.38c.03.012.06.027.09.04.42.182 1.009.423 1.681.665C9.15 19.552 10.761 20 12 20c1.238 0 2.85-.448 4.229-.941a28.77 28.77 0 0 0 1.63-.644.726.726 0 0 0-.193-.203A1.24 1.24 0 0 0 17 18h-6a1 1 0 0 1-.371-.071l-2.5-1-.094-.043a1 1 0 0 1 .836-1.815l2.322.929h1.715a1.687 1.687 0 0 0-.755-.968c-1.441-.834-3.593-1.899-5.236-2.036-.26-.022-.595-.025-.917-.022ZM2 20h2v-7H2v7Zm12-9c0-1.674-.675-2.624-1.459-3.188-.73-.527-1.612-.754-2.272-.802L10 7l-.103-.005A1 1 0 0 1 10 5l.306-.008c1.485-.077 2.353-.716 2.883-1.451.6-.835.811-1.868.811-2.541a1 1 0 1 1 2 0c0 1.674.675 2.624 1.459 3.188C18.294 4.79 19.327 5 20 5a1 1 0 1 1 0 2c-1.674 0-2.624.675-3.189 1.459-.526.73-.753 1.612-.801 2.272L16 11l-.005.102A1 1 0 0 1 14 11Zm.977-6.536a5.351 5.351 0 0 1-1.514 1.558 5.353 5.353 0 0 1 1.558 1.514 5.352 5.352 0 0 1 1.514-1.558 5.352 5.352 0 0 1-1.558-1.514Z"/>
</svg>
