<svg xmlns="http://www.w3.org/2000/svg" width="24" height="22" fill="none"><path fill="#F2F2F2" d="M12 .107c4.38 0 8.2 2.889 8.635 6.82.087.035.173.075.255.122.291.163.507.38.66.555.12.139.312.389.365.454.514.623.931 1.13 1.241 1.57.316.449.56.882.695 1.376a4.178 4.178 0 0 1 0 2.207c-.185.678-.556 1.258-.921 1.737-.34.445-.8.95-1.068 1.275-.284.345-.574.722-.971.945a2.25 2.25 0 0 1-.213.102v.155c0 2.649-2.6 4.467-5.355 4.468h-2.216a.923.923 0 0 1 0-1.847h2.216c2.14 0 3.508-1.355 3.508-2.621v-.163c-.189-.075-.377-.161-.566-.247-.36-.164-1.227-.498-1.543-1.435-.089-.261-.105-.537-.107-.792v-5.36c.002-.255.018-.532.107-.793.316-.937 1.184-1.27 1.543-1.434.171-.077.341-.155.511-.225-.409-2.734-3.17-5.022-6.775-5.022-3.607 0-6.37 2.288-6.778 5.022.17.07.341.146.512.224.322.147.662.292.929.525.74.644.72 1.502.72 1.95v4.865c0 .45.02 1.306-.72 1.95-.267.233-.608.377-.929.524-.43.196-.854.404-1.3.44-1.244.1-1.925-.779-2.297-1.231-.268-.325-.728-.83-1.068-1.275-.366-.478-.736-1.06-.922-1.737a4.18 4.18 0 0 1 0-2.207c.135-.494.38-.928.696-1.377.31-.44.727-.947 1.24-1.57.244-.295.643-.834 1.28-1.118C3.791 3.001 7.616.107 12 .107ZM4.287 8.602a.35.35 0 0 0-.272.084c-.137.102-.269.258-.504.544-.532.646-.897 1.092-1.158 1.461-.253.36-.367.595-.423.8-.111.405-.111.828 0 1.234.093.342.302.7.609 1.102.333.436.64.755 1.025 1.223.217.263.345.405.467.492.084.06.146.081.256.072.046-.004.121-.023.684-.279.196-.09.311-.142.396-.187a.651.651 0 0 0 .087-.05.163.163 0 0 0 .036-.041.225.225 0 0 0 .02-.058c.022-.086.029-.207.029-.459V9.676c0-.252-.007-.373-.028-.46a.234.234 0 0 0-.02-.058.169.169 0 0 0-.037-.04.623.623 0 0 0-.087-.05 9.395 9.395 0 0 0-.396-.187c-.563-.256-.638-.276-.684-.28Zm15.428 0c-.046.003-.122.023-.684.279-.245.112-.373.172-.47.242-.068.05-.08.077-.09.104.007-.02.001-.018-.003.053-.005.082-.005.194-.005.396v4.864l.005.396c.004.07.01.072.004.053.009.027.02.054.09.104.096.07.224.13.47.241.561.256.637.276.683.28a.486.486 0 0 0 .273-.056.658.658 0 0 0 .09-.085 9.3 9.3 0 0 0 .36-.423c.384-.468.692-.786 1.025-1.222.307-.402.515-.76.61-1.103.11-.406.11-.829 0-1.234-.057-.205-.17-.439-.425-.8-.26-.37-.626-.815-1.157-1.46-.173-.21-.205-.268-.33-.412a.772.772 0 0 0-.173-.16.486.486 0 0 0-.273-.057Z"/></svg>