<svg width="30" height="26" viewBox="0 0 30 26" fill="none" xmlns="http://www.w3.org/2000/svg">
<path d="M27.3337 11.667C27.3337 6.52494 22.031 2 14.9998 2C7.96864 2.00014 2.66675 6.52502 2.66675 11.667C2.66686 14.1932 3.91353 16.5369 6.03979 18.3008C6.33654 18.5469 6.46536 18.9416 6.37085 19.3154C5.90029 21.1765 5.02946 22.6289 4.11694 23.7861C4.84878 23.6444 5.48756 23.4367 6.073 23.1729C7.24345 22.6453 8.2612 21.8708 9.43335 20.8379L9.53589 20.7578C9.78675 20.5891 10.1036 20.5421 10.3962 20.6348C11.816 21.0844 13.3691 21.333 14.9998 21.333C22.0309 21.333 27.3335 16.8089 27.3337 11.667ZM13.6667 14.667L13.7693 14.6719C14.2734 14.7232 14.6667 15.1493 14.6667 15.667C14.6666 16.1845 14.2733 16.6098 13.7693 16.6611L13.6667 16.667H9.66675C9.11457 16.667 8.66692 16.2191 8.66675 15.667C8.66675 15.1147 9.11446 14.667 9.66675 14.667H13.6667ZM20.3337 10.667L20.4353 10.6719C20.9397 10.7229 21.3337 11.1491 21.3337 11.667C21.3336 12.1847 20.9396 12.6101 20.4353 12.6611L20.3337 12.667H9.66675C9.11457 12.667 8.66692 12.2191 8.66675 11.667C8.66675 11.1147 9.11446 10.667 9.66675 10.667H20.3337ZM20.3337 6.66699L20.4353 6.67188C20.9397 6.72292 21.3337 7.14911 21.3337 7.66699C21.3336 8.18472 20.9396 8.61008 20.4353 8.66113L20.3337 8.66699H9.66675C9.11457 8.66699 8.66692 8.21913 8.66675 7.66699C8.66675 7.11471 9.11446 6.66699 9.66675 6.66699H20.3337ZM29.3337 11.667C29.3335 18.3069 22.6959 23.333 14.9998 23.333C13.3694 23.333 11.8002 23.1102 10.3357 22.7012C9.25823 23.6214 8.17492 24.4192 6.89526 24.9961C5.43679 25.6535 3.78305 26 1.66675 26C1.26233 26 0.897731 25.7564 0.74292 25.3828C0.588139 25.0091 0.673719 24.579 0.959717 24.293C2.1718 23.0809 3.55536 21.5955 4.26343 19.4023C2.05393 17.3711 0.666848 14.6708 0.666748 11.667C0.666748 5.02706 7.30358 0.000141388 14.9998 0C22.6961 0 29.3337 5.02697 29.3337 11.667Z" fill="#082545"/>
</svg>
