<svg width="22" height="26" viewBox="0 0 22 26" fill="none" xmlns="http://www.w3.org/2000/svg">
<path d="M19.3337 4.72656C18.3118 4.74653 17.0352 4.66898 15.7146 4.39648C14.1349 4.07052 12.4168 3.45138 10.9998 2.33203C9.58285 3.45111 7.86534 4.07053 6.28589 4.39648C4.96546 4.66895 3.68867 4.7465 2.66675 4.72656V15.667C2.66684 16.7006 3.11989 17.7387 3.91479 18.7607C4.70847 19.7812 5.7911 20.7169 6.91479 21.5195C8.03309 22.3183 9.15731 22.9619 10.0056 23.4062C10.4146 23.6205 10.7571 23.7861 10.9998 23.9004C11.2424 23.7861 11.5856 23.6207 11.9949 23.4062C12.8432 22.9619 13.9675 22.3183 15.0857 21.5195C16.2093 20.7169 17.2921 19.7811 18.0857 18.7607C18.8805 17.7388 19.3336 16.7005 19.3337 15.667V4.72656ZM14.2195 8.375C14.5645 7.94409 15.1936 7.87401 15.6248 8.21875C16.056 8.56376 16.126 9.19374 15.781 9.625L10.448 16.291C10.2704 16.513 10.0063 16.6492 9.72241 16.665C9.43848 16.6808 9.16084 16.5751 8.95972 16.374L6.29272 13.707C5.90242 13.3165 5.90242 12.6835 6.29272 12.293C6.65896 11.9267 7.23881 11.9039 7.63159 12.2246L7.70679 12.293L9.58276 14.1689L14.2195 8.375ZM21.3337 15.667C21.3336 17.2998 20.6197 18.7615 19.6648 19.9893C18.7085 21.2188 17.4574 22.2834 16.2478 23.1475C15.0329 24.0152 13.8242 24.7055 12.9226 25.1777C12.4706 25.4145 12.0925 25.5975 11.8259 25.7227C11.6926 25.7852 11.5869 25.8333 11.5134 25.8662C11.4767 25.8827 11.4476 25.8955 11.4275 25.9043C11.4176 25.9086 11.4097 25.9126 11.4041 25.915C11.4014 25.9162 11.3972 25.918 11.3972 25.918L11.3953 25.9189C11.1437 26.0268 10.8577 26.0268 10.6062 25.9189L10.6023 25.918C10.6023 25.918 10.5982 25.9162 10.5955 25.915C10.5898 25.9126 10.5819 25.9086 10.572 25.9043C10.552 25.8955 10.5236 25.8826 10.4871 25.8662C10.4136 25.8333 10.3078 25.7852 10.1746 25.7227C9.90802 25.5975 9.52983 25.4145 9.07788 25.1777C8.1762 24.7054 6.96672 24.0153 5.75171 23.1475C4.54217 22.2835 3.29196 21.2187 2.33569 19.9893C1.38075 18.7615 0.666843 17.2998 0.666748 15.667V3.66699C0.666748 3.38264 0.787937 3.11157 0.999756 2.92188C1.21168 2.73219 1.49442 2.64146 1.7771 2.67285C2.6801 2.77319 4.24131 2.77597 5.88159 2.4375C7.5287 2.09759 9.15003 1.43557 10.2927 0.292969C10.4802 0.105509 10.7347 8.60235e-05 10.9998 0C11.2649 0 11.5193 0.105534 11.7068 0.292969C12.8495 1.43572 14.4716 2.09759 16.1189 2.4375C17.7591 2.77595 19.3204 2.77318 20.2234 2.67285C20.506 2.64157 20.7889 2.73226 21.0007 2.92188C21.2124 3.11156 21.3337 3.38272 21.3337 3.66699V15.667Z" fill="#082545"/>
</svg>
