<svg width="26" height="24" viewBox="0 0 26 24" fill="none" xmlns="http://www.w3.org/2000/svg">
<path d="M12.0001 22.6663C12 19.7926 10.8251 18.093 9.4161 17.0784C7.95594 16.0271 6.1734 15.6663 5.00009 15.6663H3.41415L5.70712 17.9592C6.09759 18.3497 6.09748 18.9828 5.70712 19.3733C5.3411 19.7393 4.762 19.7627 4.36923 19.4426L4.29306 19.3733L0.293056 15.3733C-0.0973054 14.9828 -0.0974141 14.3497 0.293056 13.9592L4.29306 9.95924C4.68354 9.56893 5.31664 9.56893 5.70712 9.95924C6.09759 10.3497 6.09748 10.9828 5.70712 11.3733L3.41415 13.6663H5.00009C6.49342 13.6663 8.71092 14.1067 10.5841 15.4553C11.539 16.1429 12.3877 17.0555 13.0001 18.2317C13.6125 17.0555 14.4612 16.1429 15.4161 15.4553C17.2893 14.1067 19.5068 13.6663 21.0001 13.6663H22.586L20.2931 11.3733L20.2247 11.2981C19.904 10.9053 19.9268 10.3255 20.2931 9.95924C20.6835 9.56893 21.3166 9.56893 21.7071 9.95924L25.7071 13.9592C26.0976 14.3497 26.0975 14.9828 25.7071 15.3733L21.7071 19.3733C21.3166 19.7638 20.6836 19.7638 20.2931 19.3733C19.9027 18.9828 19.9026 18.3497 20.2931 17.9592L22.586 15.6663H21.0001C19.8268 15.6663 18.0442 16.0271 16.5841 17.0784C15.1751 18.093 14.0002 19.7926 14.0001 22.6663C14.0001 23.2186 13.5524 23.6663 13.0001 23.6663C12.4478 23.6663 12.0001 23.2186 12.0001 22.6663ZM12.0001 12.0003V3.74732L9.70712 6.04029C9.31659 6.43082 8.68358 6.43082 8.29306 6.04029C7.90253 5.64977 7.90253 5.01675 8.29306 4.62623L12.2931 0.62623L12.3692 0.557871C12.762 0.237521 13.341 0.260115 13.7071 0.62623L17.7071 4.62623L17.7755 4.7024C18.0958 5.09518 18.0732 5.67418 17.7071 6.04029C17.341 6.40641 16.762 6.429 16.3692 6.10865L16.2931 6.04029L14.0001 3.74732V12.0003C13.9999 12.5524 13.5523 13.0003 13.0001 13.0003C12.4479 13.0003 12.0003 12.5524 12.0001 12.0003Z" fill="#082545"/>
</svg>
