<svg width="24" height="26" viewBox="0 0 24 26" fill="none" xmlns="http://www.w3.org/2000/svg">
<path d="M21.6663 6.33301C21.6661 5.41279 20.9205 4.66717 20.0002 4.66699H18.1936C17.7581 6.20562 16.3444 7.33301 14.6663 7.33301H9.33325C7.65512 7.33301 6.24141 6.20567 5.80591 4.66699H4.00024C3.07988 4.66699 2.33343 5.41268 2.33325 6.33301V22.333C2.33325 23.2535 3.07977 24 4.00024 24H20.0002C20.9206 23.9998 21.6663 23.2534 21.6663 22.333V6.33301ZM16.4387 11.2197C16.6857 10.7257 17.2865 10.5255 17.7805 10.7725C18.2744 11.0195 18.4748 11.6203 18.2278 12.1143L16.7327 15.1045C15.8415 16.8864 13.5897 17.4841 11.9319 16.3789C11.3523 15.9926 10.5715 16.1263 10.1536 16.6836L7.46704 20.2666L7.40063 20.3457C7.0571 20.718 6.4807 20.7773 6.06665 20.4668C5.62482 20.1354 5.53508 19.5082 5.86646 19.0664L8.55396 15.4834C9.60879 14.077 11.5785 13.7398 13.0413 14.7148C13.6981 15.1527 14.5904 14.9159 14.9436 14.21L16.4387 11.2197ZM9.33325 2C8.41278 2 7.66626 2.74652 7.66626 3.66699C7.66644 4.58732 8.41289 5.33301 9.33325 5.33301H14.6663C15.5866 5.33301 16.3331 4.58732 16.3333 3.66699C16.3333 2.74652 15.5867 2 14.6663 2H9.33325ZM23.6663 22.333C23.6663 24.3579 22.0251 25.9998 20.0002 26H4.00024C1.9752 26 0.333252 24.3581 0.333252 22.333V6.33301C0.333428 4.30811 1.97531 2.66699 4.00024 2.66699H5.80591C6.24121 1.12801 7.6549 1.06792e-07 9.33325 0H14.6663C16.3447 0 17.7593 1.12792 18.1946 2.66699H20.0002C22.025 2.66717 23.6661 4.30822 23.6663 6.33301V22.333Z" fill="#082545"/>
</svg>
