<?xml version="1.0" encoding="UTF-8" standalone="no"?>
<!-- Created with Inkscape (http://www.inkscape.org/) -->

<svg
   width="1080"
   height="1080"
   viewBox="0 0 285.74999 285.75"
   version="1.1"
   id="svg1"
   xmlns:inkscape="http://www.inkscape.org/namespaces/inkscape"
   xmlns:sodipodi="http://sodipodi.sourceforge.net/DTD/sodipodi-0.dtd"
   xmlns="http://www.w3.org/2000/svg"
   xmlns:svg="http://www.w3.org/2000/svg">
  <sodipodi:namedview
     id="namedview1"
     pagecolor="#505050"
     bordercolor="#eeeeee"
     borderopacity="1"
     inkscape:showpageshadow="0"
     inkscape:pageopacity="0"
     inkscape:pagecheckerboard="0"
     inkscape:deskcolor="#505050"
     inkscape:document-units="mm" />
  <defs
     id="defs1" />
  <g
     inkscape:label="Layer 1"
     inkscape:groupmode="layer"
     id="layer1">
    <g
       id="g1">
      <path
         d="m 53.929372,66.385352 c -0.663222,-1.46756 -1.785055,-2.794 -2.7305,-4.08517 -0.670278,-0.90663 -1.386416,-1.64041 -2.423583,-2.01436 -0.303389,-0.3175 -0.606778,-0.64205 -0.917222,-0.96308 -1.019528,-1.27706 -2.067278,-2.52942 -3.563056,-3.10797 -2.667,-1.02306 -4.681361,1.44639 -6.374694,3.12208 -1.446389,1.43581 -2.76225,2.94922 -4.064,4.51556 -0.680861,0.82197 -1.905,1.85561 -2.070806,2.97391 -0.201083,1.37584 0.479778,1.75331 1.337028,1.67922 0.687917,0.26106 1.520472,-0.26458 2.010834,-0.72319 0.0388,-0.0388 0.07408,-0.0741 0.105833,-0.11289 0.03528,-0.0212 0.07408,-0.0459 0.105833,-0.0741 0.08467,-0.0635 0.148167,-0.13759 0.1905,-0.22225 0.437445,-0.45509 0.829028,-0.93134 1.210028,-1.40053 1.80975,-1.30881 4.018139,-2.40594 5.976055,-2.36714 1.954389,0.0388 3.234973,1.66511 4.180417,3.16089 0.790222,1.24531 1.9685,2.08844 2.737555,3.30553 0.243417,0.38805 0.903112,0.46214 1.125362,0 0.620888,-1.27353 1.418166,-2.21545 2.776361,-2.7305 0.419805,-0.15875 0.575028,-0.54681 0.388055,-0.95603"
         style="fill:#edba95;fill-opacity:1;fill-rule:nonzero;stroke:none;stroke-width:0.0352778"
         id="path738" />
      <path
         d="m 121.53572,252.50739 c -1.56633,-0.62089 -3.50308,-1.15711 -4.71311,-2.39183 -1.19945,-1.21708 -0.90664,-3.13267 -0.81845,-4.72017 0.19756,-3.37608 -0.1023,-6.76627 0.14817,-10.1353 0.10936,-1.45345 0.52211,-3.28436 -1.17475,-3.7465 -1.36525,-0.37042 -4.15925,-0.8255 -4.98476,0.70555 -0.50447,0.93134 -0.18697,2.16253 -0.13758,3.15384 0.0635,1.40758 -0.12348,2.8575 0.31397,4.21922 0.0459,0.14111 0.127,0.24694 0.22225,0.32103 -0.0706,3.2138 -0.19403,6.42761 -0.23283,9.64847 -0.0282,2.16958 -0.70909,5.33749 1.84151,6.30061 2.85044,1.07957 6.38175,0.75847 9.35213,0.69137 1.15359,-0.0247 4.35328,0.45156 4.48381,-1.40052 0.10936,-1.51688 -3.26319,-2.23302 -4.30036,-2.64577"
         style="fill:#edba95;fill-opacity:1;fill-rule:nonzero;stroke:none;stroke-width:0.0352778"
         id="path740" />
      <path
         d="m 170.8717,199.88 c -1.50636,0.0141 -2.71992,-1.18533 -4.03225,-0.0776 -0.74436,0.62442 -1.39347,2.01084 -1.86972,2.85398 -0.58209,1.016 -0.62795,1.8803 -0.75495,2.91747 -0.79727,1.53458 -1.69333,3.03036 -2.88572,4.09928 -0.99483,0.88547 -2.3248,1.17827 -3.35492,2.02141 -1.05127,0.86784 -1.84502,2.0955 -2.56822,3.23145 -0.39864,0.62089 0.51506,1.32644 1.02306,0.79022 0.34219,-0.36336 0.65616,-0.73731 0.98425,-1.08656 -0.75495,1.21709 -1.63689,2.36714 -2.10609,3.7465 -0.20108,0.58914 0.45862,0.94192 0.92781,0.73378 0.19403,0.0952 0.43392,0.11642 0.63853,0.0282 0.19403,-0.0811 0.37747,-0.17639 0.55386,-0.27869 0.127,0.0529 0.26811,0.0811 0.40569,0.0529 3.62656,-0.57503 5.84553,-3.15736 7.5812,-6.20889 2.20133,-3.85939 4.70958,-7.75053 6.08894,-11.99797 0.127,-0.4057 -0.22225,-0.82903 -0.63147,-0.8255"
         style="fill:#edba95;fill-opacity:1;fill-rule:nonzero;stroke:none;stroke-width:0.0352778"
         id="path742" />
      <path
         d="m 146.00792,85.393022 c -1.651,-0.86784 -4.85422,-0.58209 -6.60752,-0.21167 -0.26459,0.0529 -0.40217,0.21167 -0.4445,0.39158 -0.43039,0.0388 -0.8502,0.0847 -1.25942,0.10936 -1.5487,0.10584 -3.10092,0.0353 -4.64608,-0.067 -1.3441,-0.0882 -2.8681,-0.40217 -4.16632,-0.10231 -2.70933,0.62442 -5.25639,1.5487 -7.57414,2.9845 -0.32103,0.20108 -0.64911,0.423327 -0.80786,0.744357 -0.15522,0.32456 -0.067,0.77259 0.28575,0.92075 -0.25753,-0.10936 -0.40922,0.76906 -0.20814,0.94545 0.39511,0.35277 1.19592,0.11994 1.64395,0.007 0.127,-0.0353 -0.43039,0.70556 -0.43745,0.7232 -0.27869,0.43744 -0.18344,0.77611 0.25047,1.11125 0.87842,0.68086 2.07786,-0.16228 3.02331,-0.35631 1.57339,-0.32808 4.572,-0.93486 4.53672,1.34408 -0.0106,0.747897 -1.06186,1.679237 -0.0106,2.194287 0.5468,0.27164 1.29822,-0.20461 1.71803,-0.45861 1.10773,-0.68086 1.58751,-2.000257 2.75167,-2.635257 1.37584,-0.74789 2.94217,-1.30175 4.57906,-1.7145 1.00894,-0.06 2.1343,-0.16933 2.89278,-0.58208 1.5628,-0.24342 3.11855,-0.39159 4.57552,-0.47978 0.35278,-0.0212 0.65264,-0.25047 0.65264,-0.58914 0,-1.118297 0.57503,-3.587747 -0.74789,-4.279187"
         style="fill:#edba95;fill-opacity:1;fill-rule:nonzero;stroke:none;stroke-width:0.0352778"
         id="path744" />
      <path
         d="m 243.49806,66.466492 c -0.15875,-1.51342 -0.46919,-3.06917 -1.36172,-4.11339 -0.84314,-0.9913 -0.67381,-2.13078 -1.3582,-3.19617 -0.26458,-0.41627 -0.60677,-0.79375 -1.02658,-1.05127 -1.25942,-0.77611 -2.68111,0.3175 -3.84881,0.87841 -0.79375,0.381 -1.63336,0.71967 -2.39888,1.15359 -0.635,0.3563 -1.20298,0.83608 -1.905,1.08655 -0.37748,0.13759 -0.77612,0.1517 -1.15712,0.28928 -2.46591,0.87489 -4.75191,2.22603 -7.21077,3.13267 -4.42736,1.62983 -9.03464,3.32669 -12.75292,6.32177 -1.65453,1.33703 -8.61131,6.145386 -8.63247,8.307923 0.004,-2.264837 -0.007,-4.522617 0.16228,-6.783923 0.1023,-1.38289 0.26105,-2.76577 0.54327,-4.1275 0.27517,-1.32291 0.88548,-2.45886 1.05128,-3.78883 0.0247,-0.19756 0.0529,-0.40569 0.17639,-0.56444 0.10583,-0.14112 0.27164,-0.22225 0.43039,-0.29987 1.53458,-0.74083 3.13972,-1.32291 4.64961,-2.12724 1.24531,-0.66323 2.77989,-0.85373 4.14161,-1.25237 1.16064,-0.33866 1.9297,-0.44802 2.55411,-1.60161 0.87136,-1.61572 1.64395,-3.31611 1.96145,-5.12233 0.16933,-0.95603 0.20461,-1.94381 0.067,-2.90336 -0.13758,-0.95603 -0.59972,-1.66158 -0.889,-2.53647 -0.3175,-0.96309 -0.23988,-2.23661 -0.36336,-3.24909 -0.13405,-1.10772 -0.28927,-2.21544 -0.46214,-3.31964 -0.17286,-1.1183 -0.3563,-2.24366 -0.66322,-3.33375 -0.10936,-0.39863 -0.30339,-1.43227 -0.8008,-1.56633 -1.65453,-0.43744 -3.16089,1.10772 -4.5967,1.82386 -2.56822,1.27706 -5.35164,2.21545 -7.94103,3.50661 -6.29355,3.1362 -12.65061,6.93209 -17.97049,11.55348 -4.70959,4.09222 -9.271,8.57955 -8.50548,15.26822 0.46567,4.08869 1.94734,7.859886 2.82223,11.846273 0.34219,1.57692 0.20813,3.527777 1.016,4.956527 -0.64559,0.54681 -0.25753,1.90853 0.75141,1.91911 0.3422,0.0141 0.68439,0.0106 1.02659,-0.004 0.35983,-0.007 0.62794,-0.15875 0.80433,-0.381 4.3815,-1.22062 9.06992,-4.328587 13.62428,-4.621387 0.37747,0.56444 0.78669,1.114767 1.08655,1.714497 0.63853,1.26647 1.14653,2.59997 1.70039,3.90525 0.8502,1.989657 1.81328,3.965217 3.32669,5.545657 1.38995,1.446397 3.11856,2.434177 4.72723,3.601867 0.76905,0.56092 3.02683,3.210274 3.75708,3.326694 2.30717,0.37394 4.27919,-4.314464 5.78556,-6.021914 2.99861,-3.404307 6.72041,-5.757334 10.33286,-8.420804 1.48166,-1.09009 2.96333,-2.1837 4.55083,-3.104447 2.06728,-1.20297 4.29331,-2.10961 6.51228,-3.00919 1.26294,-0.51153 2.53294,-1.13947 3.83822,-1.53811 0.91722,-0.278707 1.73567,-0.786707 2.22603,-1.675707 0.1658,-0.30339 0.21519,-0.65264 0.25753,-0.9913 0.30338,-2.41653 0.34572,-4.864806 0.13758,-7.291916 -0.0564,-0.65969 -0.0988,-1.39347 -0.17639,-2.14136"
         style="fill:#cad1e5;fill-opacity:1;fill-rule:nonzero;stroke:none;stroke-width:0.0352778"
         id="path746" />
      <path
         d="m 214.87014,111.85842 c -0.23283,-3.7324 4.50498,-5.13293 6.1207,-9.28513 0.97014,-2.49766 -0.33867,-3.877014 -1.26295,-5.602104 -3.73944,-6.992057 -5.42925,-7.020277 -6.8333,-9.546164 -6.75922,-12.177894 -9.779,-15.24353 -19.19817,-16.16075 -4.93183,-0.47978 -10.25172,3.972266 -12.80936,8.113893 -1.43933,2.32833 -2.56117,4.988267 -2.88572,7.718767 -0.24342,2.035527 1.50989,5.517447 -1.12183,6.593417 -2.47298,1.008947 -4.08517,-2.71992 -5.45395,-4.15572 -1.6898,-1.774467 -3.42194,-3.527777 -5.35869,-5.037667 -3.75003,-2.917467 -7.80345,-3.989917 -12.41073,-4.847167 -2.25072,-0.42333 -4.51555,-0.762 -6.80861,-0.87841 -1.46402,-0.0776 -3.06916,-0.642067 -4.51202,-0.585617 -0.46567,0.0176 -0.84314,0.331617 -1.00189,0.719667 -0.18345,0.12348 -0.33161,0.31045 -0.41628,0.56798 -1.66864,5.108217 0.4445,10.488074 -0.84667,15.631581 -0.14816,0.59619 0.1905,1.143 0.75848,1.33703 4.05694,1.37583 8.28675,1.3335 12.53419,0.96661 3.28436,1.48872 3.73944,7.492994 4.34269,10.586854 0.53623,2.7552 0.70556,5.58095 1.37231,8.30792 0.39158,1.63337 0.51505,3.35139 0.80786,5.0165 -1.40053,2.85398 -0.67381,5.334 1.64394,7.4295 1.143,1.03364 2.45181,1.86973 3.65831,2.82224 1.2065,0.94897 2.39889,2.02494 3.78531,2.72344 0.21519,0.29633 0.5468,0.47272 0.91016,0.38806 0.0388,0.0106 0.0776,0.0247 0.11642,0.0388 -0.0353,0.0635 0.21872,0.0176 0.55033,0.2928 0.34925,0.28575 0.79375,0.51153 1.1677,0.76906 0.62089,0.4198 1.22414,0.87136 1.83444,1.30175 0.87842,0.61736 1.76389,1.15005 2.69522,1.5628 0.0176,0.11289 0.0141,0.22578 -0.0141,0.33161 -0.067,0.52564 0.20109,0.84667 0.57503,0.97367 0.15875,0.62442 0.61031,1.85914 0.74789,2.15194 0.57503,1.2065 1.27,2.34245 1.93675,3.49603 1.44286,2.50472 2.6423,4.9142 2.00025,7.86695 -1.34408,6.20183 -5.3587,11.47233 -7.88811,17.20497 -2.61761,5.91255 -5.4222,11.87803 -7.62353,17.96697 -1.19239,3.29847 -2.08492,6.72394 -2.85397,10.14589 -0.35278,1.55222 -0.5327,3.19264 0.89958,4.25097 1.71803,1.27353 4.40972,1.47108 6.38528,2.20486 1.35819,0.50447 2.667,1.10067 3.96169,1.74978 0.62795,0.31397 1.2947,0.74436 2.01789,0.79375 1.62631,0.10583 2.21545,-1.46403 2.68111,-2.74108 1.12184,-3.1115 2.20134,-6.23006 3.44664,-9.29923 1.24531,-3.05505 2.65642,-6.02544 3.95464,-9.0558 1.31233,-3.06564 2.36008,-6.17714 4.00756,-9.09461 3.19264,-5.67267 5.03414,-11.88861 7.87752,-17.72708 1.56634,-3.20675 3.302,-6.33942 5.2952,-9.30275 1.87325,-2.79048 3.91583,-5.47159 5.53155,-8.42081 1.67923,-3.05858 2.77284,-6.45231 3.94406,-9.72608 0.64205,-1.79212 1.74625,-3.78885 2.27542,-5.79263 0.0564,-0.11289 0.0882,-0.23989 0.0917,-0.381 0.18697,-0.81844 0.26811,-1.63336 0.16933,-2.43064 -0.0706,-0.56797 -0.45861,-0.99836 -0.95603,-1.06891 -0.59619,-3.0092 -0.89252,-6.08189 -1.16416,-9.144 -0.0141,-0.127 -0.0459,-0.23989 -0.0882,-0.3422 0.45509,-0.4833 1.44992,-0.74083 1.41111,-1.40052"
         style="fill:#e5e9f7;fill-opacity:1;fill-rule:nonzero;stroke:none;stroke-width:0.0352778"
         id="path748" />
      <path
         d="m 202.14898,166.12623 c -0.7867,-1.56986 -2.413,-2.77989 -3.54895,-4.07459 -1.60161,-1.81327 -3.08327,-3.71475 -4.699,-5.51391 -1.38289,-1.53811 -3.92641,-0.22931 -5.28108,0.84314 -1.06539,0.83961 -1.94733,1.89794 -2.61056,3.07975 -0.84666,1.51341 -1.3335,3.23144 -1.38288,4.96711 -0.0459,1.524 0.58561,3.28436 1.19238,4.69547 1.34762,3.16089 3.91231,5.84553 6.98148,7.38364 3.33375,1.66864 9.23219,2.01436 11.52877,-1.64395 1.9685,-3.12561 -0.30339,-7.16844 -2.18016,-9.73666"
         style="fill:#edba95;fill-opacity:1;fill-rule:nonzero;stroke:none;stroke-width:0.0352778"
         id="path750" />
      <path
         d="m 208.34728,162.33387 c -1.74272,-5.49981 -6.29003,-6.67456 -12.68941,-7.36248 -8.91823,-0.95955 -0.49036,7.97631 -0.51859,12.14967 -0.004,0.77964 -0.24694,1.66158 -0.9525,1.9932 -0.40216,0.18697 -0.86783,0.15169 -1.30175,0.2293 -0.43744,0.0776 -0.91016,0.35278 -0.94544,0.79375 -0.0529,0.69497 0.89253,0.93133 1.4358,1.36878 0.88548,0.70555 0.71967,2.0708 0.43745,3.16442 -0.254,0.98777 -0.635,2.88219 0.20461,3.71827 0.81844,0.81845 3.13619,0.71967 4.19806,0.67028 7.63411,-0.34219 11.45822,-5.76439 10.81616,-13.081 -0.11994,-1.38994 -0.35278,-2.59644 -0.68439,-3.64419"
         style="fill:#192c35;fill-opacity:1;fill-rule:nonzero;stroke:none;stroke-width:0.0352778"
         id="path752" />
      <path
         d="m 145.90562,113.88689 c -0.16228,-0.0212 -0.92075,-0.30339 -0.57503,0.0282 -0.42333,-0.40569 -0.93839,-0.36689 -1.32292,-0.11642 -3.39019,-0.96661 -6.53697,-2.67758 -9.98008,-3.46075 -4.38857,-0.99837 -6.88623,1.2312 -10.59745,-1.8662 -0.15523,-0.13053 -0.30692,-0.26106 -0.45509,-0.39511 l -0.43744,-0.40922 c -0.0952,-0.0882 -0.19403,-0.18345 -0.28928,-0.2787 -1.68275,-0.47978 -3.03389,-2.032 -4.00403,-3.69358 -1.04775,-0.68439 -2.08491,-1.38289 -3.1115,-2.09197 l -0.41628,-0.28575 c -0.22577,-0.15523 -0.44802,-0.30692 -0.6738,-0.46214 -0.50447,-0.2787 -1.00542,-0.56092 -1.50989,-0.85373 -1.67569,-0.966604 -3.13973,-2.106074 -4.62845,-3.287874 -3.93348,-2.49767 -7.962197,-4.766037 -11.669897,-7.648237 -0.31397,-0.243407 -0.62089,-0.490357 -0.92781,-0.733767 -0.14464,-0.11642 -0.28222,-0.23284 -0.42686,-0.34573 -1.922637,-1.57339 -3.757077,-3.24202 -5.623274,-4.875387 -0.17639,-0.15169 -0.34925,-0.31044 -0.52916,-0.46213 -1.07598,-0.93487 -2.16253,-1.85209 -3.28789,-2.73403 -0.39159,0.0353 -0.79375,-0.06 -1.12889,-0.34925 -1.192397,-1.04775 -2.388317,-2.077867 -3.594817,-3.093867 -0.78316,-0.58209 -1.54869,-1.20298 -2.264827,-1.8662 -2.07081,-1.658046 -4.19453,-3.234966 -6.438187,-4.674296 -5.249343,-2.69875 -10.611563,-5.94078 -14.386283,-10.3752 l -0.0917,0.0106 c -0.46567,0.0847 -0.84314,0.4198 -1.18887,0.74083 -1.3088,1.21708 -2.599967,2.45886 -3.855856,3.72533 -1.125361,1.11831 -2.2225,2.26131 -3.302,3.41842 -0.236361,0.254 -0.567972,0.56444 -0.959556,0.92428 -1.739194,1.5875 -4.60375,4.0393 -4.783666,5.602106 -0.275167,2.37772 3.175,4.03578 4.614333,5.725587 1.912056,2.24367 3.33375,4.882447 4.910667,7.355417 1.936748,3.023297 3.926418,5.873747 6.730998,8.156224 3.02683,2.46239 5.71147,4.653137 7.98689,7.891634 2.458863,3.49955 4.836583,6.90739 7.91633,9.90248 2.98098,2.90336 6.297087,5.47511 9.775484,7.75406 3.62302,2.37066 7.094357,4.81894 10.544514,7.43302 1.83799,1.38642 3.70065,2.74109 5.669147,3.94407 0.10231,0.0635 0.21167,0.12347 0.32456,0.1905 0.17286,0.0988 0.3563,0.19755 0.54327,0.29986 0.3422,0.18697 0.6985,0.37747 1.0407,0.57503 0.13053,0.0776 0.26105,0.15522 0.38453,0.23989 0.32102,0.20461 0.62441,0.42333 0.88547,0.67027 0.0705,0.0564 0.13758,0.127 0.20461,0.19756 -0.0953,0.46214 -0.17992,0.9278 -0.254,1.39347 -0.52917,3.40783 -0.52211,6.88622 -0.81492,10.30111 -0.35983,4.24039 -0.0459,8.64306 -0.067,12.89403 -0.0176,3.24555 0.58913,6.52639 0.87136,9.75783 0.3175,3.65831 0.56444,7.31309 0.75847,10.98197 0.38453,7.23195 0.56092,14.478 0.63853,21.72053 0.067,6.5405 -0.0212,13.081 0.06,19.61445 0.0564,4.57905 1.44639,9.82838 -0.37395,14.1993 -0.27163,0.6597 0.40923,1.38995 1.04775,1.37583 1.00895,-0.0212 2.01789,-0.06 3.02684,-0.1023 2.07787,-0.10231 4.15573,-0.24342 6.23359,-0.39511 2.87867,-0.20814 5.75733,-0.43039 8.63953,-0.56797 0.62442,-0.0317 1.03011,-0.47978 1.08303,-1.08656 0.0882,-0.97367 0.0353,-1.95086 -0.0776,-2.93158 -0.0353,-0.28575 -0.0741,-0.57856 -0.11289,-0.86431 -0.0388,-0.27164 -0.0811,-0.54328 -0.127,-0.81492 0.0741,-5.25991 0.25752,-10.55511 0.5715,-15.77975 0.30339,-5.08705 0.97014,-10.14236 1.62983,-15.19766 0.0388,-0.26811 0.0741,-0.52917 0.10936,-0.79375 0.18697,-1.42522 0.37395,-2.8575 0.54681,-4.28625 0.8008,-6.55108 1.12536,-13.13039 1.67216,-19.70617 0.10584,-1.2453 0.23636,-2.48355 0.38806,-3.72533 0.0176,-0.15522 0.0388,-0.31397 0.0564,-0.4692 0.60678,-4.91066 1.44287,-9.80016 1.66512,-14.74258 1.62631,-0.3563 3.302,-0.55739 4.96006,-0.47272 0.82197,0.0388 1.35114,-0.9525 0.93486,-1.62983 l -0.0459,-0.0776 c 0.0247,-0.0847 0.0459,-0.16581 0.06,-0.26106 0.79728,-6.73453 -0.46919,-13.52197 1.33703,-20.15419 0.91017,-3.34787 2.22956,-6.56168 3.40078,-9.82487 0.51505,-1.42875 0.96661,-2.91042 1.7533,-4.22275 0.70203,-1.17828 1.7145,-1.86973 2.11314,-3.22087 0.1517,-0.51858 -0.18344,-1.2453 -0.75494,-1.33702"
         style="fill:#3f6ba0;fill-opacity:1;fill-rule:nonzero;stroke:none;stroke-width:0.0352778"
         id="path754" />
      <path
         d="m 209.43737,103.29296 c -1.61925,-2.86103 -3.54542,-5.587994 -5.75028,-8.025684 -0.7867,-0.87489 -1.61925,-1.735677 -2.57175,-2.444757 -1.60161,-1.18534 -3.69711,-1.87678 -5.57036,-2.50825 -3.09739,-1.04423 -6.40997,-1.682747 -9.69081,-1.576917 -2.9845,0.0882 -5.85611,1.023057 -8.81944,1.245307 0.11289,-0.10937 0.0635,-0.36689 -0.14817,-0.38806 -2.33539,-0.22931 -3.67242,1.46403 -3.18205,3.70064 0.0212,0.0952 0.11994,0.15875 0.20813,0.16228 6.69573,0.21519 13.6772,-0.63853 20.14362,1.520477 5.79261,1.94028 10.44927,6.427604 12.92577,11.966214 1.36878,3.06917 2.08139,6.38176 2.28953,9.73315 0.0106,0.13053 0.13406,0.254 0.27869,0.20814 5.90903,-1.93675 1.82739,-10.16354 -0.11288,-13.59254"
         style="fill:#192c35;fill-opacity:1;fill-rule:nonzero;stroke:none;stroke-width:0.0352778"
         id="path756" />
      <path
         d="m 221.25542,121.47514 c -2.00378,4.40266 -6.84036,7.51064 -10.58686,10.57276 -0.28575,0.23283 -0.55739,0.46213 -0.83256,0.6985 -0.0705,0.06 -0.13758,0.11641 -0.20461,0.17638 -4.64608,4.05695 -7.64822,8.86884 -10.32933,14.38981 -2.52589,5.207 -5.02355,10.25878 -8.85119,14.65792 -3.36903,3.88761 -7.17903,6.81919 -11.31359,9.36977 -0.80786,0.50448 -1.61219,0.9772 -2.43416,1.43934 -1.905,1.09361 -3.85939,2.12372 -5.8667,3.15383 -2.286,1.17828 -4.33211,2.55764 -6.67808,3.429 -2.3107,0.85725 -3.75003,2.58939 -5.91608,3.72533 -1.43934,0.762 -3.12562,0.93134 -4.74839,0.80786 -2.20134,-0.16933 -4.61434,-1.0795 -5.43984,-3.12208 -0.65616,-1.61925 -0.127,-3.45722 0.50095,-5.08705 0.71967,-1.85562 1.60866,-3.85939 2.65641,-5.82437 1.74273,-3.28436 3.93348,-6.45583 6.52287,-8.62188 -0.35278,-0.0741 -0.70556,-0.15523 -1.05128,-0.25048 -3.49956,-0.9278 -6.70984,-2.91041 -9.11931,-5.60211 -0.14464,-0.15875 -0.29633,-0.31044 -0.45155,-0.45155 -0.11289,-0.10936 -0.23284,-0.20814 -0.35278,-0.29986 -0.16933,-0.13053 -0.34219,-0.25048 -0.52211,-0.35984 -0.93839,-0.58914 -2.00378,-0.88547 -3.12208,-0.98072 -2.23309,-0.1905 -4.699,0.43039 -6.87564,1.2065 -2.13431,0.75847 -4.16631,2.62467 -4.02873,4.88597 -0.93134,-0.0212 -1.89442,-0.16933 -2.67053,-0.68439 -0.41981,-0.28222 -0.76906,-0.65969 -1.10773,-1.03716 -1.45697,-1.60161 -3.13619,-2.9845 -3.72533,-5.08706 -0.63853,-2.27542 -0.37747,-5.24228 -0.33514,-7.59178 0.14817,-7.58119 3.39725,-11.93447 8.70304,-16.98978 7.08378,-6.75217 11.39472,-15.80445 18.53142,-22.54251 0.77963,-0.73025 1.85561,-0.004 1.86619,0.80786 l 0.0564,0.067 c 2.40242,3.31611 3.90173,6.91445 5.74675,10.53748 0.49389,0.97014 1.0407,1.92617 1.56634,2.88572 0.79022,1.43933 1.53105,2.89278 1.9685,4.46264 0.067,0.21872 0.12347,0.43039 0.16933,0.64911 4.71311,-0.0494 9.39447,-0.11994 13.82889,1.78858 1.60514,0.69145 3.17147,1.46756 4.78367,2.13078 1.58397,0.64911 3.07622,0.92781 4.73075,1.28764 0.25752,0.0564 0.51505,0.11289 0.77964,0.12347 1.13594,0.0353 1.73566,-0.762 2.4765,-1.46402 0.63852,-0.60325 1.38288,-1.11478 2.04963,-1.68628 1.66512,-1.43228 3.27731,-2.921 4.92125,-4.37445 3.21381,-2.84691 6.58636,-5.62327 10.52336,-7.40833 2.71992,-1.23825 5.42573,-2.794 8.27264,-3.72886 1.90148,-0.62442 4.26861,-0.83256 5.81378,0.70908 2.33892,2.33186 1.28764,6.61106 0.0952,9.2322"
         style="fill:#3f7aaa;fill-opacity:1;fill-rule:nonzero;stroke:none;stroke-width:0.0352778"
         id="path758" />
      <path
         d="m 164.88153,91.474909 c -3.13972,0.0741 -5.08352,2.709337 -7.59883,4.180417 -1.00894,0.59267 -2.25072,1.00189 -3.42547,1.00189 -0.82197,0 -1.64747,0.16228 -2.47297,0.18697 -2.25073,0.067 -4.49792,-0.0247 -6.74864,-0.0176 -0.2787,0 -0.2787,0.43392 0,0.43392 2.18369,-0.007 4.37091,0.0811 6.55461,0.0247 1.75683,-0.0459 3.70064,-0.06 5.34458,-0.762 0.0635,-0.0282 0.12347,-0.06 0.18345,-0.0882 2.18016,0.0176 4.34975,0.50095 6.5158,0.81845 0.27164,0.0388 0.39158,-0.381 0.11642,-0.41981 -1.95439,-0.28575 -3.90525,-0.6985 -5.86317,-0.80433 2.44828,-1.4605 4.37092,-4.049897 7.39422,-4.120457 0.2787,-0.007 0.28223,-0.44097 0,-0.43391"
         style="fill:#b1bbd5;fill-opacity:1;fill-rule:nonzero;stroke:none;stroke-width:0.0352778"
         id="path760" />
      <path
         d="m 176.69959,97.726136 c -1.016,-2.71992 -2.37067,-5.291677 -3.67595,-7.877537 -0.127,-0.25047 -0.50094,-0.0317 -0.37394,0.21872 2.59997,5.157617 5.23875,10.212921 5.02356,16.153701 -0.0988,2.74461 -0.64206,5.47512 -1.35114,8.12448 -0.64911,2.43416 -1.56281,4.84364 -3.49603,6.55108 -0.20814,0.18345 0.0988,0.49036 0.30692,0.30692 1.81327,-1.59809 2.77283,-3.82059 3.429,-6.09953 0.79727,-2.74814 1.3723,-5.6127 1.52752,-8.47726 0.16228,-3.06917 -0.3175,-6.02192 -1.38994,-8.900574"
         style="fill:#b1bbd5;fill-opacity:1;fill-rule:nonzero;stroke:none;stroke-width:0.0352778"
         id="path762" />
      <path
         d="m 180.00159,114.62772 c -0.9772,3.39725 -3.0092,5.91961 -5.46453,8.37847 -1.12183,1.12184 -2.21192,1.83797 -3.72886,2.24367 -0.68792,0.18344 -1.64394,0.34925 -1.94028,1.09361 -0.1023,0.25753 0.3175,0.37042 0.41628,0.11289 0.34219,-0.85372 2.49767,-0.92781 3.25614,-1.31586 1.30175,-0.66675 2.30364,-1.82739 3.29494,-2.86456 2.11667,-2.21544 3.72886,-4.56141 4.58611,-7.5318 0.0776,-0.26811 -0.34219,-0.38453 -0.4198,-0.11642"
         style="fill:#b1bbd5;fill-opacity:1;fill-rule:nonzero;stroke:none;stroke-width:0.0352778"
         id="path764" />
      <path
         d="m 205.53212,66.466492 c -0.91017,-0.3422 -1.83798,-0.63147 -2.77284,-0.89606 0.71261,-0.0882 1.43581,-0.13758 2.18017,-0.127 0.0353,0 0.0564,0 0.0811,0 l 0.0564,-0.007 c 0.24342,-0.06 0.18345,-0.42334 -0.0564,-0.42686 -1.15711,-0.0282 -2.25778,0.0847 -3.35139,0.26811 -4.21569,-1.09714 -8.55839,-1.78859 -12.3825,-3.99697 -0.23989,-0.14111 -0.45861,0.23283 -0.21872,0.37394 3.58422,2.07433 7.62353,2.82222 11.58875,3.81 -0.6985,0.14111 -1.397,0.29986 -2.11314,0.46919 -3.35845,0.78317 -6.79803,0.94898 -10.23408,0.95603 -0.2787,0 -0.2787,0.43392 0,0.43392 3.19969,-0.007 6.40291,-0.14817 9.54263,-0.79375 1.30528,-0.27164 2.5647,-0.57856 3.84175,-0.80081 0.9772,0.25753 1.94734,0.53975 2.90336,0.86431 0.0141,0.0635 0.06,0.11994 0.14112,0.14464 0.22225,0.0741 0.44802,0.12347 0.68086,0.14816 0.27516,0.0423 0.37747,-0.32102 0.11289,-0.4198"
         style="fill:#b1bbd5;fill-opacity:1;fill-rule:nonzero;stroke:none;stroke-width:0.0352778"
         id="path766" />
      <path
         d="m 224.69148,89.421739 c -1.016,-3.107967 -4.23686,-4.508497 -6.90386,-5.933714 -1.68275,-0.90311 -3.23145,-2.02495 -4.91773,-2.92453 -0.87136,-0.46567 -1.77447,-0.89253 -2.7058,-1.21003 -0.85725,-0.28928 -1.87678,-0.38805 -2.65642,-0.8643 -0.23636,-0.14464 -0.45508,0.2293 -0.21872,0.37394 0.53269,0.32456 1.17122,0.45508 1.76389,0.61736 1.02305,0.28222 1.99319,0.65264 2.94569,1.12183 1.69334,0.83609 3.21734,1.94028 4.85422,2.86809 2.54353,1.435797 5.89139,2.652887 7.18256,5.464524 -0.0776,0.0741 -0.10936,0.20461 -0.0141,0.30691 0.0917,0.11642 0.18344,0.23284 0.27517,0.34572 0.13052,0.19403 0.47625,0.0811 0.39511,-0.1658"
         style="fill:#b1bbd5;fill-opacity:1;fill-rule:nonzero;stroke:none;stroke-width:0.0352778"
         id="path768" />
      <path
         d="m 218.2427,48.055022 c 0,6.43819 -1.74625,11.65578 -3.90172,11.65578 -2.159,0 -3.90525,-5.21759 -3.90525,-11.65578 0,-0.80434 0.0247,-1.5875 0.0776,-2.34597 0.20461,-2.95981 0.77964,-5.51745 1.5875,-7.19667 0.62794,-1.32997 1.40053,-2.11667 2.24014,-2.11667 0.42333,0 0.83255,0.20461 1.21355,0.57856 0.96309,0.93839 1.75684,2.96333 2.22603,5.58447 0.29633,1.63336 0.46214,3.51014 0.46214,5.49628"
         style="fill:#8e9ab2;fill-opacity:1;fill-rule:nonzero;stroke:none;stroke-width:0.0352778"
         id="path770" />
      <path
         d="m 241.06742,78.471525 c -2.37067,0.22225 -4.73428,-4.286257 -5.27755,-10.075343 -0.254,-2.73755 -0.0565,-5.25286 0.46919,-7.18255 0.58914,-2.18017 1.59808,-3.60539 2.8575,-3.72181 0.77258,-0.0741 1.54869,0.35984 2.25778,1.17123 0.76905,0.889 1.46755,2.23308 2.01083,3.88055 0.48331,1.47814 0.84314,3.18911 1.01247,5.03767 0.53623,5.792606 -0.9525,10.667996 -3.33022,10.890253"
         style="fill:#8e9ab2;fill-opacity:1;fill-rule:nonzero;stroke:none;stroke-width:0.0352778"
         id="path772" />
      <path
         d="m 236.63653,34.974021 c -0.33514,1.619251 -3.79236,1.051281 -4.93536,1.361721 -1.68628,0.46567 -2.97039,1.70392 -4.29683,2.77283 -1.23472,0.99484 -2.32128,2.35656 -4.08517,2.0955 -1.07597,-0.16227 -1.91205,-0.58208 -3.048,-0.14464 -0.92075,0.35278 -1.71097,0.91723 -2.49061,1.49931 -0.74789,0.55033 -1.48519,1.11831 -2.32481,1.52047 -1.56986,0.76553 -3.33375,0.98072 -4.94241,1.62984 0.20461,-2.95981 0.77964,-5.51745 1.5875,-7.19667 0.43039,-0.16228 0.8643,-0.32456 1.28764,-0.52211 0.71614,-0.33867 1.44286,-0.67734 2.16605,-1.016 1.55222,-0.71967 3.11856,-1.428751 4.67078,-2.063751 1.905,-0.77964 3.72533,-1.74978 5.62328,-2.53647 1.47461,-0.60678 3.21028,-1.06539 4.81189,-1.09362 0.9913,-0.0106 1.90852,-0.22577 2.85397,0.23284 0.27517,0.13053 0.52564,0.29633 0.77258,0.46566 0.81492,0.54681 2.18017,1.31939 2.36009,2.42712 0.0317,0.18344 0.0282,0.36688 -0.0106,0.56797"
         style="fill:#edba95;fill-opacity:1;fill-rule:nonzero;stroke:none;stroke-width:0.0352778"
         id="path774" />
      <path
         d="m 256.18042,50.122302 c -0.0917,1.41463 -0.74789,2.91747 -1.98614,3.68652 -0.39511,0.24695 -0.81844,0.45509 -1.18533,0.73731 -0.82197,0.63147 -1.2947,1.59808 -1.97203,2.35303 -0.64558,0.71614 -1.31586,1.4358 -2.12725,1.97555 -0.40922,0.26811 -0.84667,0.49036 -1.31586,0.63853 -0.58914,0.17639 -1.18886,0.0282 -1.73919,0.37042 -0.61031,0.37747 -1.13948,1.0548 -1.61573,1.59102 -0.30339,0.34573 -0.57502,0.70909 -0.85372,1.06892 -0.47272,0.61383 -0.9525,1.19944 -1.62983,1.63336 -1.04775,0.67028 -2.04259,1.30175 -3.04095,2.0955 -0.62441,0.49742 -1.25589,1.00189 -1.90852,1.4605 -0.33162,0.23636 -0.67028,0.45508 -1.016,0.66322 -0.254,-2.73755 -0.0565,-5.25286 0.46919,-7.18255 1.76036,-0.74436 3.48544,-1.55222 5.11528,-2.55058 0.30339,-0.18698 0.59619,-0.37748 0.89253,-0.57503 0.51505,-0.34572 1.21708,-0.74436 1.61219,-1.23825 0.43392,-0.55386 0.50447,-0.86784 1.13947,-1.15711 0.762,-0.34573 1.50284,-0.76553 2.25072,-1.15711 0.29634,-0.1517 0.58562,-0.30339 0.8502,-0.50448 0.90664,-0.68791 1.58044,-1.90852 2.21192,-2.84339 0.76199,-1.12183 1.56633,-2.21897 2.41652,-3.2773 0.45509,-0.5715 0.75495,-1.43581 1.5487,-1.48872 0.34219,-0.0212 0.65264,0.0741 0.91016,0.254 0.15875,0.10583 0.29634,0.24694 0.41628,0.41275 0.5962,0.82197 0.62089,2.06022 0.55739,3.03389"
         style="fill:#edba95;fill-opacity:1;fill-rule:nonzero;stroke:none;stroke-width:0.0352778"
         id="path776" />
      <path
         d="m 224.87492,40.724302 c -1.5628,0.53269 -2.99155,-0.1905 -2.43417,-2.01789 0.34573,-1.143 1.08656,-2.13078 1.50989,-3.249091 0.0988,-0.26105 -0.32102,-0.37394 -0.4198,-0.11289 -0.54328,1.432281 -2.1837,3.270251 -1.5487,4.921251 0.47625,1.24178 1.94381,1.24178 3.0092,0.87489 0.26458,-0.0882 0.15169,-0.508 -0.11642,-0.41627"
         style="fill:#bf8c6a;fill-opacity:1;fill-rule:nonzero;stroke:none;stroke-width:0.0352778"
         id="path778" />
      <path
         d="m 251.61548,55.142322 c -0.0529,1.22414 -1.27706,2.29306 -2.17664,2.9845 -1.00542,0.76906 -2.5012,1.70039 -3.8347,1.45345 -0.74083,-0.14111 -1.46755,-0.85725 -1.59455,-1.6122 -0.12347,-0.70555 0.39158,-1.24883 0.89605,-1.66864 0.89253,-0.74083 1.99673,-1.19238 2.85045,-1.98261 0.20461,-0.18697 -0.10231,-0.49389 -0.30692,-0.30691 -1.11125,1.02658 -2.88219,1.50283 -3.6583,2.88219 -0.65617,1.17122 0.26811,2.6917 1.47461,3.05506 1.47108,0.44802 3.18911,-0.54681 4.318,-1.38995 1.0548,-0.78669 2.40241,-1.99319 2.46591,-3.41489 0.0141,-0.28222 -0.4198,-0.27869 -0.43391,0"
         style="fill:#bf8c6a;fill-opacity:1;fill-rule:nonzero;stroke:none;stroke-width:0.0352778"
         id="path780" />
      <path
         d="m 145.32353,155.57112 c 0.0917,-0.067 0.18345,-0.13053 0.27164,-0.19756 -0.11289,0.16228 -0.23283,0.31397 -0.35277,0.44803 -0.0282,-0.0811 -0.0106,-0.18697 0.0811,-0.25047"
         style="fill:#254666;fill-opacity:1;fill-rule:nonzero;stroke:none;stroke-width:0.0352778"
         id="path782" />
      <path
         d="m 176.7772,150.08542 c -2.09903,-1.57339 -5.0165,-0.9913 -7.366,-0.41275 -2.37419,0.5962 -4.68136,1.54164 -7.09789,1.94381 -5.09764,0.84666 -10.61155,0.762 -15.20119,3.31964 -0.11289,-0.10936 -0.23284,-0.20814 -0.35278,-0.29986 2.14489,-1.21356 4.56494,-1.88031 6.985,-2.33187 2.93864,-0.55033 5.969,-0.59266 8.89,-1.18886 2.6423,-0.53975 5.15761,-1.58044 7.80344,-2.11666 2.16606,-0.4445 4.68136,-0.69498 6.55814,0.71614 0.21872,0.16227 0.004,0.53975 -0.21872,0.37041"
         style="fill:#254666;fill-opacity:1;fill-rule:nonzero;stroke:none;stroke-width:0.0352778"
         id="path784" />
      <path
         d="m 164.08778,144.69498 c -3.19616,0.1023 -6.40291,0.75142 -9.44386,1.72155 -2.88925,0.92075 -5.93372,2.18017 -8.0645,4.41325 -0.1905,0.20461 0.11289,0.51153 0.30692,0.30692 2.14842,-2.25072 5.25286,-3.4925 8.1668,-4.39561 2.91748,-0.90311 5.97606,-1.51342 9.03464,-1.61219 0.2787,-0.0106 0.2787,-0.4445 0,-0.43392"
         style="fill:#254666;fill-opacity:1;fill-rule:nonzero;stroke:none;stroke-width:0.0352778"
         id="path786" />
      <path
         d="m 169.03373,159.11301 c 1.40053,-0.61384 2.81164,-1.25589 4.26508,-1.68981 -1.3723,0.67381 -2.80458,1.23119 -4.26508,1.68981 z m -3.27025,3.27025 c -1.31586,0.5468 -2.61409,1.10419 -3.89467,1.6898 1.73214,-1.04422 3.59481,-2.08492 5.52803,-2.39889 -0.54328,0.23989 -1.08303,0.47625 -1.63336,0.70909 z m 9.99772,-5.79262 c -0.56444,0.2152 -1.29117,0.20814 -1.89089,0.33162 -1.36172,0.28222 -2.70228,0.69144 -3.99697,1.21355 -2.0955,0.84314 -4.0887,1.9932 -6.29708,2.45886 -2.26837,0.47625 -4.60375,0.19756 -6.89328,0.39511 0.34572,0.0953 0.6985,0.17639 1.05128,0.25048 -2.58939,2.16605 -4.78014,5.33752 -6.52287,8.62188 0.80081,-0.28222 1.59456,-0.71261 2.13431,-0.94544 2.02494,-0.87842 3.82764,-2.04964 5.77497,-3.04094 2.26836,-1.15006 4.5967,-2.17664 6.9462,-3.15737 2.36008,-0.98425 4.68136,-2.08491 6.88975,-3.38313 0.99483,-0.58562 3.06211,-1.56634 3.77825,-2.79753 0.10583,-0.18697 0.18697,-0.381 0.22577,-0.57856 -0.0388,0 -1.06891,0.57856 -1.19944,0.63147"
         style="fill:#254666;fill-opacity:1;fill-rule:nonzero;stroke:none;stroke-width:0.0352778"
         id="path788" />
      <path
         d="m 176.70312,172.77962 -0.0247,0.0106 c -1.27353,0.47272 -2.56116,0.889 -3.85233,1.25589 -2.00378,0.5715 -4.08517,1.08302 -6.1842,1.016 -2.47297,-0.0776 -4.87891,-0.762 -7.32719,-1.08303 -0.27164,-0.0353 -0.27869,-0.4692 0,-0.43392 2.38125,0.31045 4.72369,0.96661 7.12964,1.07597 2.12725,0.0988 4.23333,-0.41627 6.26886,-0.99483 2.17311,-0.61383 4.32506,-1.37583 6.40997,-2.27542 l -2.42005,1.42875"
         style="fill:#254666;fill-opacity:1;fill-rule:nonzero;stroke:none;stroke-width:0.0352778"
         id="path790" />
      <path
         d="m 209.63139,132.92278 c -4.7378,1.9297 -9.27452,4.29684 -13.76538,6.75217 -0.24342,0.13406 -0.46214,-0.23989 -0.2152,-0.37394 4.88244,-2.67759 9.82839,-5.23523 15.01775,-7.25311 l -1.03717,0.87488"
         style="fill:#254666;fill-opacity:1;fill-rule:nonzero;stroke:none;stroke-width:0.0352778"
         id="path792" />
      <path
         d="m 89.256539,83.110545 c -0.0847,-0.0176 -0.16933,-0.0318 -0.254,-0.0494 -1.93675,-0.36337 -3.73591,-0.52564 -5.690307,-0.17639 -3.50309,0.62794 -6.790967,2.070797 -10.276414,2.797517 -0.27164,0.0564 -0.38453,-0.35983 -0.11289,-0.41627 3.605387,-0.75142 7.009694,-2.282477 10.653884,-2.864557 1.760367,-0.28222 3.453707,-0.0353 5.150567,0.24695 0.17991,0.15169 0.35277,0.31044 0.52916,0.46213"
         style="fill:#2f547f;fill-opacity:1;fill-rule:nonzero;stroke:none;stroke-width:0.0352778"
         id="path794" />
      <path
         d="m 95.306673,88.331662 c -4.773077,1.097127 -8.403154,5.471577 -11.761611,8.791224 -0.19755,0.19755 -0.50447,-0.10936 -0.30339,-0.30339 3.344347,-3.312587 6.942674,-7.591787 11.638141,-8.833564 0.14464,0.11289 0.28222,0.22931 0.42686,0.34573"
         style="fill:#2f547f;fill-opacity:1;fill-rule:nonzero;stroke:none;stroke-width:0.0352778"
         id="path796" />
      <path
         d="m 115.1328,101.60316 c -1.59455,0.62441 -2.86455,2.14488 -3.79589,3.48191 -1.1677,1.67217 -2.15195,3.59834 -2.57528,5.60918 -0.0564,0.27164 -0.47273,0.15522 -0.41628,-0.11289 0.47978,-2.27543 1.65453,-4.48382 3.05154,-6.31826 0.87136,-1.13947 1.98261,-2.32481 3.31963,-2.94569 l 0.41628,0.28575"
         style="fill:#2f547f;fill-opacity:1;fill-rule:nonzero;stroke:none;stroke-width:0.0352778"
         id="path798" />
      <path
         d="m 122.97505,108.07663 c -2.88572,0.1905 -5.73969,1.09008 -7.85283,3.17501 -1.81328,1.78858 -2.96333,4.2545 -5.15762,5.64444 -0.23284,0.1517 -0.45156,-0.22578 -0.2152,-0.37042 2.50474,-1.59455 3.63715,-4.6108 5.99371,-6.3888 2.01436,-1.51695 4.34622,-2.2472 6.7945,-2.46593 l 0.43744,0.4057"
         style="fill:#2f547f;fill-opacity:1;fill-rule:nonzero;stroke:none;stroke-width:0.0352778"
         id="path800" />
      <path
         d="m 101.21571,128.19555 c 0.25047,1.52753 0.76553,2.97392 1.2453,4.43443 -0.18697,-0.10231 -0.37041,-0.20108 -0.54327,-0.29986 -0.45156,-1.38643 -0.92075,-2.76932 -1.15359,-4.22276 -0.46214,-2.85397 -0.941907,-5.70442 -1.393467,-8.55839 -0.89253,-5.67972 -0.62089,-11.45118 -0.14464,-17.15559 0.0247,-0.2787 0.45509,-0.2787 0.43392,0 -0.48331,5.79966 -0.75847,11.67342 0.19755,17.44487 0.462137,2.78694 0.899587,5.57036 1.358197,8.3573"
         style="fill:#2f547f;fill-opacity:1;fill-rule:nonzero;stroke:none;stroke-width:0.0352778"
         id="path802" />
      <path
         d="m 119.61661,122.45939 c -3.29495,-0.13759 -6.5405,1.63689 -9.04171,3.64772 -1.27705,1.03011 -2.4765,2.2225 -3.37255,3.60186 -0.93486,1.42875 -1.52047,3.09387 -2.04964,4.70254 -0.14111,0.43391 -0.27164,0.87136 -0.39864,1.3088 l -0.0318,-0.0141 c 0.0741,-0.46566 0.15875,-0.93133 0.254,-1.39347 -0.067,-0.0706 -0.13406,-0.14111 -0.20461,-0.19756 0.59619,-1.87677 1.35819,-3.74298 2.52589,-5.29167 2.70933,-3.60186 7.63412,-6.99911 12.31901,-6.79803 0.27869,0.0141 0.27869,0.44803 0,0.43392"
         style="fill:#2f547f;fill-opacity:1;fill-rule:nonzero;stroke:none;stroke-width:0.0352778"
         id="path804" />
      <path
         d="m 129.16277,153.8037 c -3.94758,-0.46214 -6.23358,-4.30389 -7.8493,-7.53533 -0.85725,-1.71803 -1.66511,-3.46781 -2.47297,-5.207 -1.16417,-2.51884 -2.16253,-5.21406 -1.61573,-8.02217 0.0529,-0.27517 -0.36688,-0.39158 -0.4198,-0.11642 -0.50447,2.6035 0.2293,5.09764 1.26647,7.48242 0.93133,2.13078 1.94028,4.2545 2.99156,6.32883 1.68627,3.31964 4.06752,7.03086 8.09977,7.50359 0.27517,0.0318 0.27517,-0.40217 0,-0.43392"
         style="fill:#2f547f;fill-opacity:1;fill-rule:nonzero;stroke:none;stroke-width:0.0352778"
         id="path806" />
      <path
         d="m 130.48216,169.83039 c -0.0176,0.15523 -0.0388,0.31398 -0.0564,0.4692 -2.92806,-1.75683 -5.54567,-4.09222 -8.05392,-6.39233 -1.92616,-1.76389 -3.96522,-3.40784 -5.82436,-5.24228 -1.61219,-1.58397 -3.22439,-3.33375 -4.07811,-5.45395 -0.10583,-0.25752 0.31044,-0.37041 0.41628,-0.11289 0.9278,2.29306 2.794,4.1522 4.55436,5.82437 1.69686,1.61572 3.51367,3.10091 5.24228,4.67783 2.43769,2.23308 4.97064,4.50497 7.79991,6.23005"
         style="fill:#2f547f;fill-opacity:1;fill-rule:nonzero;stroke:none;stroke-width:0.0352778"
         id="path808" />
      <path
         d="m 127.81869,198.01734 c -0.0353,0.26458 -0.0705,0.52564 -0.10936,0.79375 -0.56444,-1.02659 -1.15358,-2.03906 -1.77094,-3.03036 -0.067,-0.10936 -0.13759,-0.22225 -0.20814,-0.33161 -0.0565,-0.0882 -0.10936,-0.17286 -0.16934,-0.26106 -3.88761,-6.09953 -8.84414,-11.5958 -14.72847,-15.81855 -0.22578,-0.15875 -0.007,-0.53623 0.21872,-0.37042 2.59998,1.86619 5.02356,3.97228 7.24959,6.27592 2.69522,2.79047 5.1823,5.87022 7.35189,9.17575 0.13052,0.20108 0.25752,0.39511 0.37747,0.58913 0.62794,0.9772 1.22414,1.9685 1.78858,2.97745"
         style="fill:#2f547f;fill-opacity:1;fill-rule:nonzero;stroke:none;stroke-width:0.0352778"
         id="path810" />
      <path
         d="m 125.74789,231.46773 c -0.22578,-0.31398 -0.44803,-0.62795 -0.66323,-0.94545 -4.15572,-6.08189 -7.27427,-12.93636 -9.62025,-19.91078 -1.47814,-4.40266 -2.54352,-8.93233 -3.84527,-13.38791 -0.65264,-2.22956 -1.37232,-4.42383 -2.24015,-6.57578 -0.85373,-2.11314 -1.74273,-4.20864 -2.33539,-6.41703 -0.0741,-0.26811 0.34925,-0.381 0.4198,-0.11289 0.65617,2.46239 1.70039,4.79425 2.63525,7.16139 0.90312,2.29659 1.60868,4.65667 2.28249,7.03086 1.2453,4.39914 2.3248,8.84767 3.84527,13.1692 1.19239,3.39725 2.57175,6.73453 4.1522,9.97303 1.524,3.12913 3.24555,6.24769 5.25639,9.15105 0.0388,0.28575 0.0776,0.57856 0.11289,0.86431"
         style="fill:#2f547f;fill-opacity:1;fill-rule:nonzero;stroke:none;stroke-width:0.0352778"
         id="path812" />
      <path
         d="m 145.59517,155.37356 c -0.11289,0.16228 -0.23283,0.31397 -0.35277,0.44803 -0.0282,-0.0811 -0.0106,-0.18697 0.0811,-0.25047 0.0917,-0.067 0.18345,-0.13053 0.27164,-0.19756"
         style="fill:#192c35;fill-opacity:1;fill-rule:nonzero;stroke:none;stroke-width:0.0352778"
         id="path814" />
      <path
         d="m 162.81073,124.21622 c -0.34925,1.05481 -0.95603,2.08139 -1.55222,2.8575 -1.79564,2.3495 -3.84881,4.44148 -5.53509,6.88976 -1.69686,2.46592 -3.22791,5.03767 -4.62491,7.67997 -1.30175,2.45533 -2.06023,5.21406 -2.98803,7.85636 -0.0917,0.254 -0.18345,0.508 -0.27517,0.75495 -0.0988,0.27163 -0.20108,0.53622 -0.30339,0.79375 -0.27869,0.69497 -0.69497,2.03905 -1.29469,3.22791 -0.93839,-0.58914 -2.00378,-0.88547 -3.12208,-0.98072 0.26105,-3.03036 1.17122,-6.07836 1.96144,-8.9535 1.03717,-3.78883 2.37772,-7.50005 4.19453,-10.9855 2.62114,-5.02356 5.94077,-10.52337 11.17952,-13.10923 0.0388,-0.22578 0.17992,-0.43039 0.39159,-0.49389 0.79022,1.43933 1.53105,2.89278 1.9685,4.46264"
         style="fill:#192c35;fill-opacity:1;fill-rule:nonzero;stroke:none;stroke-width:0.0352778"
         id="path816" />
    </g>
  </g>
</svg>
