<?xml version="1.0" encoding="UTF-8"?>
<svg xmlns="http://www.w3.org/2000/svg" xmlns:xlink="http://www.w3.org/1999/xlink" width="2000" height="2000" viewBox="0 0 2000 2000">
<defs>
<clipPath id="clip-0">
<path clip-rule="nonzero" d="M 2000 2000 L 0 2000 L 0 0 L 2000 0 L 2000 2000 M 302.304688 1644.53125 C 330.757812 1654.980469 361.675781 1660.710938 393.984375 1660.710938 L 1733.511719 1660.710938 C 1812.121094 1660.710938 1875.851562 1599.898438 1875.851562 1524.878906 L 1875.851562 1511.121094 C 1875.851562 1436.101562 1812.121094 1375.289062 1733.511719 1375.289062 L 1693.101562 1375.289062 C 1672.328125 1260.640625 1567.671875 1173.410156 1441.589844 1173.410156 L 1326.191406 1173.410156 C 1376.851562 1173.410156 1417.921875 1134.230469 1417.921875 1085.878906 C 1417.921875 1037.539062 1376.851562 998.351562 1326.191406 998.351562 L 1042.960938 998.351562 C 1152.949219 998.351562 1242.109375 913.269531 1242.109375 808.308594 C 1242.109375 703.359375 1152.949219 618.269531 1042.960938 618.269531 L 829.179688 618.269531 C 809.746094 602.21875 797.4375 578.53125 797.4375 552.078125 C 797.4375 522.011719 813.332031 495.488281 837.535156 479.730469 L 967.527344 479.730469 C 1003.78125 479.730469 1033.160156 451.691406 1033.160156 417.101562 C 1033.160156 382.511719 1003.78125 354.46875 967.527344 354.46875 L 620.355469 354.46875 C 584.109375 354.46875 554.722656 382.511719 554.722656 417.101562 C 554.722656 436.089844 563.609375 453.070312 577.59375 464.550781 L 439.332031 464.550781 C 388.671875 464.550781 347.601562 503.738281 347.601562 552.078125 C 347.601562 578.53125 359.914062 602.21875 379.34375 618.269531 L 337.804688 618.269531 C 227.816406 618.269531 138.65625 703.359375 138.65625 808.308594 C 138.65625 913.269531 227.816406 998.351562 337.804688 998.351562 L 840.984375 998.351562 C 790.320312 998.351562 749.253906 1037.539062 749.253906 1085.878906 C 749.253906 1093.101562 750.167969 1100.109375 751.894531 1106.820312 L 302.304688 1106.820312 L 302.304688 1064.398438 L 254.777344 1064.398438 L 254.777344 1106.820312 L 128.136719 1106.820312 L 128.136719 1250.109375 L 208.015625 1250.109375 C 189.898438 1268.488281 174.722656 1289.558594 163.242188 1312.609375 L 128.136719 1312.609375 L 128.136719 1455.898438 L 141.882812 1455.898438 C 153.496094 1525.121094 195.671875 1584.589844 254.777344 1621.351562 L 254.777344 1656.210938 L 302.304688 1656.210938 L 302.304688 1644.53125 M 1258.261719 349.449219 C 1220.671875 349.449219 1190.199219 379.738281 1190.199219 417.101562 C 1190.199219 454.46875 1220.671875 484.761719 1258.261719 484.761719 C 1295.851562 484.761719 1326.320312 454.46875 1326.320312 417.101562 C 1326.320312 379.738281 1295.851562 349.449219 1258.261719 349.449219 "/>
</clipPath>
<clipPath id="clip-1">
<path clip-rule="nonzero" d="M 2000 2000 L 0 2000 L 0 0 L 2000 0 L 2000 2000 M 302.304688 1644.53125 C 330.757812 1654.980469 361.675781 1660.710938 393.984375 1660.710938 L 1733.511719 1660.710938 C 1812.121094 1660.710938 1875.851562 1599.898438 1875.851562 1524.878906 L 1875.851562 1511.121094 C 1875.851562 1436.101562 1812.121094 1375.289062 1733.511719 1375.289062 L 1693.101562 1375.289062 C 1672.328125 1260.640625 1567.671875 1173.410156 1441.589844 1173.410156 L 1326.191406 1173.410156 C 1376.851562 1173.410156 1417.921875 1134.230469 1417.921875 1085.878906 C 1417.921875 1037.539062 1376.851562 998.351562 1326.191406 998.351562 L 1042.960938 998.351562 C 1152.949219 998.351562 1242.109375 913.269531 1242.109375 808.308594 C 1242.109375 703.359375 1152.949219 618.269531 1042.960938 618.269531 L 829.179688 618.269531 C 809.746094 602.21875 797.4375 578.53125 797.4375 552.078125 C 797.4375 522.011719 813.332031 495.488281 837.535156 479.730469 L 967.527344 479.730469 C 1003.78125 479.730469 1033.160156 451.691406 1033.160156 417.101562 C 1033.160156 382.511719 1003.78125 354.46875 967.527344 354.46875 L 620.355469 354.46875 C 584.109375 354.46875 554.722656 382.511719 554.722656 417.101562 C 554.722656 436.089844 563.609375 453.070312 577.59375 464.550781 L 439.332031 464.550781 C 388.671875 464.550781 347.601562 503.738281 347.601562 552.078125 C 347.601562 578.53125 359.914062 602.21875 379.34375 618.269531 L 337.804688 618.269531 C 227.816406 618.269531 138.65625 703.359375 138.65625 808.308594 C 138.65625 913.269531 227.816406 998.351562 337.804688 998.351562 L 840.984375 998.351562 C 790.320312 998.351562 749.253906 1037.539062 749.253906 1085.878906 C 749.253906 1093.101562 750.167969 1100.109375 751.894531 1106.820312 L 302.304688 1106.820312 L 302.304688 1064.398438 L 254.777344 1064.398438 L 254.777344 1106.820312 L 128.136719 1106.820312 L 128.136719 1250.109375 L 208.015625 1250.109375 C 189.898438 1268.488281 174.722656 1289.558594 163.242188 1312.609375 L 128.136719 1312.609375 L 128.136719 1455.898438 L 141.882812 1455.898438 C 153.496094 1525.121094 195.671875 1584.589844 254.777344 1621.351562 L 254.777344 1656.210938 L 302.304688 1656.210938 L 302.304688 1644.53125 M 1258.261719 349.449219 C 1220.671875 349.449219 1190.199219 379.738281 1190.199219 417.101562 C 1190.199219 454.46875 1220.671875 484.761719 1258.261719 484.761719 C 1295.851562 484.761719 1326.320312 454.46875 1326.320312 417.101562 C 1326.320312 379.738281 1295.851562 349.449219 1258.261719 349.449219 "/>
</clipPath>
<linearGradient id="linear-pattern-0" gradientUnits="userSpaceOnUse" x1="-0.000000000000000114" y1="0" x2="1" y2="0" gradientTransform="matrix(0, 2000, -2000, 0, 1000, 0.000000000000222045)">
<stop offset="0" stop-color="rgb(100%, 100%, 100%)" stop-opacity="1"/>
<stop offset="0.015625" stop-color="rgb(99.887085%, 99.957275%, 99.986267%)" stop-opacity="1"/>
<stop offset="0.03125" stop-color="rgb(99.636841%, 99.861145%, 99.958801%)" stop-opacity="1"/>
<stop offset="0.046875" stop-color="rgb(99.349976%, 99.751282%, 99.926758%)" stop-opacity="1"/>
<stop offset="0.0625" stop-color="rgb(99.041748%, 99.635315%, 99.891663%)" stop-opacity="1"/>
<stop offset="0.078125" stop-color="rgb(98.718262%, 99.511719%, 99.855042%)" stop-opacity="1"/>
<stop offset="0.09375" stop-color="rgb(98.382568%, 99.383545%, 99.816895%)" stop-opacity="1"/>
<stop offset="0.109375" stop-color="rgb(98.03772%, 99.252319%, 99.778748%)" stop-opacity="1"/>
<stop offset="0.125" stop-color="rgb(97.685242%, 99.118042%, 99.737549%)" stop-opacity="1"/>
<stop offset="0.140625" stop-color="rgb(97.323608%, 98.980713%, 99.69635%)" stop-opacity="1"/>
<stop offset="0.15625" stop-color="rgb(96.954346%, 98.840332%, 99.655151%)" stop-opacity="1"/>
<stop offset="0.171875" stop-color="rgb(96.580505%, 98.698425%, 99.613953%)" stop-opacity="1"/>
<stop offset="0.1875" stop-color="rgb(96.199036%, 98.553467%, 99.571228%)" stop-opacity="1"/>
<stop offset="0.203125" stop-color="rgb(95.812988%, 98.406982%, 99.526978%)" stop-opacity="1"/>
<stop offset="0.210938" stop-color="rgb(95.521545%, 98.295593%, 99.494934%)" stop-opacity="1"/>
<stop offset="0.21875" stop-color="rgb(95.324707%, 98.220825%, 99.472046%)" stop-opacity="1"/>
<stop offset="0.226562" stop-color="rgb(95.126343%, 98.146057%, 99.449158%)" stop-opacity="1"/>
<stop offset="0.234375" stop-color="rgb(94.927979%, 98.071289%, 99.427795%)" stop-opacity="1"/>
<stop offset="0.242188" stop-color="rgb(94.728088%, 97.994995%, 99.404907%)" stop-opacity="1"/>
<stop offset="0.25" stop-color="rgb(94.526672%, 97.918701%, 99.382019%)" stop-opacity="1"/>
<stop offset="0.257812" stop-color="rgb(94.32373%, 97.840881%, 99.359131%)" stop-opacity="1"/>
<stop offset="0.265625" stop-color="rgb(94.120789%, 97.763062%, 99.336243%)" stop-opacity="1"/>
<stop offset="0.273438" stop-color="rgb(93.917847%, 97.685242%, 99.313354%)" stop-opacity="1"/>
<stop offset="0.28125" stop-color="rgb(93.711853%, 97.607422%, 99.290466%)" stop-opacity="1"/>
<stop offset="0.289062" stop-color="rgb(93.505859%, 97.529602%, 99.267578%)" stop-opacity="1"/>
<stop offset="0.296875" stop-color="rgb(93.299866%, 97.451782%, 99.243164%)" stop-opacity="1"/>
<stop offset="0.304688" stop-color="rgb(93.092346%, 97.372437%, 99.220276%)" stop-opacity="1"/>
<stop offset="0.3125" stop-color="rgb(92.883301%, 97.293091%, 99.197388%)" stop-opacity="1"/>
<stop offset="0.320312" stop-color="rgb(92.674255%, 97.213745%, 99.172974%)" stop-opacity="1"/>
<stop offset="0.328125" stop-color="rgb(92.463684%, 97.132874%, 99.150085%)" stop-opacity="1"/>
<stop offset="0.335938" stop-color="rgb(92.253113%, 97.053528%, 99.125671%)" stop-opacity="1"/>
<stop offset="0.34375" stop-color="rgb(92.041016%, 96.972656%, 99.102783%)" stop-opacity="1"/>
<stop offset="0.351562" stop-color="rgb(91.827393%, 96.891785%, 99.078369%)" stop-opacity="1"/>
<stop offset="0.359375" stop-color="rgb(91.615295%, 96.810913%, 99.053955%)" stop-opacity="1"/>
<stop offset="0.367188" stop-color="rgb(91.400146%, 96.728516%, 99.029541%)" stop-opacity="1"/>
<stop offset="0.375" stop-color="rgb(91.184998%, 96.647644%, 99.006653%)" stop-opacity="1"/>
<stop offset="0.382812" stop-color="rgb(90.969849%, 96.565247%, 98.982239%)" stop-opacity="1"/>
<stop offset="0.390625" stop-color="rgb(90.753174%, 96.482849%, 98.957825%)" stop-opacity="1"/>
<stop offset="0.398438" stop-color="rgb(90.536499%, 96.400452%, 98.933411%)" stop-opacity="1"/>
<stop offset="0.40625" stop-color="rgb(90.318298%, 96.318054%, 98.908997%)" stop-opacity="1"/>
<stop offset="0.414062" stop-color="rgb(90.100098%, 96.234131%, 98.883057%)" stop-opacity="1"/>
<stop offset="0.421875" stop-color="rgb(89.881897%, 96.151733%, 98.858643%)" stop-opacity="1"/>
<stop offset="0.429688" stop-color="rgb(89.660645%, 96.06781%, 98.834229%)" stop-opacity="1"/>
<stop offset="0.4375" stop-color="rgb(89.440918%, 95.983887%, 98.809814%)" stop-opacity="1"/>
<stop offset="0.445312" stop-color="rgb(89.219666%, 95.899963%, 98.783875%)" stop-opacity="1"/>
<stop offset="0.453125" stop-color="rgb(88.998413%, 95.81604%, 98.75946%)" stop-opacity="1"/>
<stop offset="0.460938" stop-color="rgb(88.775635%, 95.730591%, 98.735046%)" stop-opacity="1"/>
<stop offset="0.46875" stop-color="rgb(88.552856%, 95.646667%, 98.709106%)" stop-opacity="1"/>
<stop offset="0.476562" stop-color="rgb(88.328552%, 95.561218%, 98.683167%)" stop-opacity="1"/>
<stop offset="0.484375" stop-color="rgb(88.104248%, 95.475769%, 98.658752%)" stop-opacity="1"/>
<stop offset="0.492188" stop-color="rgb(87.879944%, 95.39032%, 98.632812%)" stop-opacity="1"/>
<stop offset="0.5" stop-color="rgb(87.65564%, 95.304871%, 98.608398%)" stop-opacity="1"/>
<stop offset="0.507812" stop-color="rgb(87.42981%, 95.219421%, 98.582458%)" stop-opacity="1"/>
<stop offset="0.515625" stop-color="rgb(87.202454%, 95.132446%, 98.556519%)" stop-opacity="1"/>
<stop offset="0.523438" stop-color="rgb(86.975098%, 95.046997%, 98.530579%)" stop-opacity="1"/>
<stop offset="0.53125" stop-color="rgb(86.747742%, 94.960022%, 98.506165%)" stop-opacity="1"/>
<stop offset="0.539062" stop-color="rgb(86.520386%, 94.873047%, 98.480225%)" stop-opacity="1"/>
<stop offset="0.546875" stop-color="rgb(86.291504%, 94.786072%, 98.454285%)" stop-opacity="1"/>
<stop offset="0.554688" stop-color="rgb(86.062622%, 94.699097%, 98.428345%)" stop-opacity="1"/>
<stop offset="0.5625" stop-color="rgb(85.832214%, 94.612122%, 98.402405%)" stop-opacity="1"/>
<stop offset="0.570312" stop-color="rgb(85.601807%, 94.523621%, 98.376465%)" stop-opacity="1"/>
<stop offset="0.578125" stop-color="rgb(85.371399%, 94.436646%, 98.350525%)" stop-opacity="1"/>
<stop offset="0.585938" stop-color="rgb(85.140991%, 94.348145%, 98.324585%)" stop-opacity="1"/>
<stop offset="0.59375" stop-color="rgb(84.909058%, 94.261169%, 98.298645%)" stop-opacity="1"/>
<stop offset="0.601562" stop-color="rgb(84.677124%, 94.172668%, 98.272705%)" stop-opacity="1"/>
<stop offset="0.609375" stop-color="rgb(84.443665%, 94.084167%, 98.245239%)" stop-opacity="1"/>
<stop offset="0.617188" stop-color="rgb(84.210205%, 93.995667%, 98.219299%)" stop-opacity="1"/>
<stop offset="0.625" stop-color="rgb(83.976746%, 93.907166%, 98.193359%)" stop-opacity="1"/>
<stop offset="0.632812" stop-color="rgb(83.743286%, 93.817139%, 98.167419%)" stop-opacity="1"/>
<stop offset="0.640625" stop-color="rgb(83.509827%, 93.728638%, 98.139954%)" stop-opacity="1"/>
<stop offset="0.648438" stop-color="rgb(83.274841%, 93.638611%, 98.114014%)" stop-opacity="1"/>
<stop offset="0.65625" stop-color="rgb(83.03833%, 93.548584%, 98.088074%)" stop-opacity="1"/>
<stop offset="0.664062" stop-color="rgb(82.801819%, 93.458557%, 98.060608%)" stop-opacity="1"/>
<stop offset="0.671875" stop-color="rgb(82.565308%, 93.36853%, 98.034668%)" stop-opacity="1"/>
<stop offset="0.679688" stop-color="rgb(82.328796%, 93.278503%, 98.007202%)" stop-opacity="1"/>
<stop offset="0.6875" stop-color="rgb(82.092285%, 93.188477%, 97.981262%)" stop-opacity="1"/>
<stop offset="0.695312" stop-color="rgb(81.854248%, 93.09845%, 97.953796%)" stop-opacity="1"/>
<stop offset="0.703125" stop-color="rgb(81.616211%, 93.008423%, 97.927856%)" stop-opacity="1"/>
<stop offset="0.710938" stop-color="rgb(81.378174%, 92.91687%, 97.900391%)" stop-opacity="1"/>
<stop offset="0.71875" stop-color="rgb(81.138611%, 92.826843%, 97.874451%)" stop-opacity="1"/>
<stop offset="0.726562" stop-color="rgb(80.899048%, 92.735291%, 97.846985%)" stop-opacity="1"/>
<stop offset="0.734375" stop-color="rgb(80.659485%, 92.645264%, 97.819519%)" stop-opacity="1"/>
<stop offset="0.742188" stop-color="rgb(80.419922%, 92.553711%, 97.793579%)" stop-opacity="1"/>
<stop offset="0.75" stop-color="rgb(80.178833%, 92.462158%, 97.766113%)" stop-opacity="1"/>
<stop offset="0.757812" stop-color="rgb(79.937744%, 92.370605%, 97.738647%)" stop-opacity="1"/>
<stop offset="0.765625" stop-color="rgb(79.696655%, 92.279053%, 97.711182%)" stop-opacity="1"/>
<stop offset="0.773438" stop-color="rgb(79.454041%, 92.185974%, 97.683716%)" stop-opacity="1"/>
<stop offset="0.78125" stop-color="rgb(79.211426%, 92.094421%, 97.65625%)" stop-opacity="1"/>
<stop offset="0.789062" stop-color="rgb(78.968811%, 92.001343%, 97.63031%)" stop-opacity="1"/>
<stop offset="0.796875" stop-color="rgb(78.726196%, 91.90979%, 97.602844%)" stop-opacity="1"/>
<stop offset="0.804688" stop-color="rgb(78.483582%, 91.816711%, 97.575378%)" stop-opacity="1"/>
<stop offset="0.8125" stop-color="rgb(78.239441%, 91.723633%, 97.547913%)" stop-opacity="1"/>
<stop offset="0.820312" stop-color="rgb(77.9953%, 91.630554%, 97.520447%)" stop-opacity="1"/>
<stop offset="0.828125" stop-color="rgb(77.75116%, 91.537476%, 97.492981%)" stop-opacity="1"/>
<stop offset="0.835938" stop-color="rgb(77.505493%, 91.444397%, 97.463989%)" stop-opacity="1"/>
<stop offset="0.84375" stop-color="rgb(77.259827%, 91.351318%, 97.436523%)" stop-opacity="1"/>
<stop offset="0.851562" stop-color="rgb(77.01416%, 91.25824%, 97.409058%)" stop-opacity="1"/>
<stop offset="0.859375" stop-color="rgb(76.768494%, 91.165161%, 97.381592%)" stop-opacity="1"/>
<stop offset="0.867188" stop-color="rgb(76.522827%, 91.070557%, 97.354126%)" stop-opacity="1"/>
<stop offset="0.875" stop-color="rgb(76.275635%, 90.977478%, 97.32666%)" stop-opacity="1"/>
<stop offset="0.882812" stop-color="rgb(76.028442%, 90.882874%, 97.297668%)" stop-opacity="1"/>
<stop offset="0.890625" stop-color="rgb(75.78125%, 90.789795%, 97.270203%)" stop-opacity="1"/>
<stop offset="0.898438" stop-color="rgb(75.534058%, 90.69519%, 97.242737%)" stop-opacity="1"/>
<stop offset="0.90625" stop-color="rgb(75.285339%, 90.600586%, 97.213745%)" stop-opacity="1"/>
<stop offset="0.914062" stop-color="rgb(75.036621%, 90.505981%, 97.186279%)" stop-opacity="1"/>
<stop offset="0.921875" stop-color="rgb(74.787903%, 90.411377%, 97.158813%)" stop-opacity="1"/>
<stop offset="0.929688" stop-color="rgb(74.539185%, 90.316772%, 97.129822%)" stop-opacity="1"/>
<stop offset="0.9375" stop-color="rgb(74.28894%, 90.222168%, 97.102356%)" stop-opacity="1"/>
<stop offset="0.945312" stop-color="rgb(74.040222%, 90.127563%, 97.073364%)" stop-opacity="1"/>
<stop offset="0.953125" stop-color="rgb(73.789978%, 90.031433%, 97.045898%)" stop-opacity="1"/>
<stop offset="0.960938" stop-color="rgb(73.539734%, 89.936829%, 97.016907%)" stop-opacity="1"/>
<stop offset="0.96875" stop-color="rgb(73.287964%, 89.840698%, 96.989441%)" stop-opacity="1"/>
<stop offset="0.976562" stop-color="rgb(73.03772%, 89.746094%, 96.960449%)" stop-opacity="1"/>
<stop offset="0.984375" stop-color="rgb(72.78595%, 89.649963%, 96.932983%)" stop-opacity="1"/>
<stop offset="0.992188" stop-color="rgb(72.53418%, 89.553833%, 96.903992%)" stop-opacity="1"/>
<stop offset="1" stop-color="rgb(72.28241%, 89.457703%, 96.875%)" stop-opacity="1"/>
</linearGradient>
<clipPath id="clip-2">
<path clip-rule="nonzero" d="M 138 354 L 1876 354 L 1876 1661 L 138 1661 Z M 138 354 "/>
</clipPath>
<clipPath id="clip-3">
<path clip-rule="nonzero" d="M 1733.511719 1660.710938 L 393.984375 1660.710938 C 361.675781 1660.710938 330.757812 1654.980469 302.304688 1644.53125 L 302.304688 1455.898438 L 898.453125 1455.898438 L 898.453125 1656.210938 L 945.980469 1656.210938 L 945.980469 1455.898438 L 1059.761719 1455.898438 L 1059.761719 1312.609375 L 945.980469 1312.609375 L 945.980469 1250.109375 L 1059.761719 1250.109375 L 1059.761719 1106.820312 L 945.980469 1106.820312 L 945.980469 1064.398438 L 898.453125 1064.398438 L 898.453125 1106.820312 L 751.894531 1106.820312 C 750.167969 1100.109375 749.253906 1093.101562 749.253906 1085.878906 C 749.253906 1037.539062 790.320312 998.351562 840.984375 998.351562 L 337.804688 998.351562 C 227.816406 998.351562 138.65625 913.269531 138.65625 808.308594 C 138.65625 703.359375 227.816406 618.269531 337.804688 618.269531 L 379.34375 618.269531 C 359.914062 602.21875 347.601562 578.53125 347.601562 552.078125 C 347.601562 503.738281 388.671875 464.550781 439.332031 464.550781 L 577.59375 464.550781 C 563.609375 453.070312 554.722656 436.089844 554.722656 417.101562 C 554.722656 382.511719 584.109375 354.46875 620.355469 354.46875 L 967.527344 354.46875 C 1003.78125 354.46875 1033.160156 382.511719 1033.160156 417.101562 C 1033.160156 451.691406 1003.78125 479.730469 967.527344 479.730469 L 837.535156 479.730469 C 813.332031 495.488281 797.4375 522.011719 797.4375 552.078125 C 797.4375 578.53125 809.746094 602.21875 829.179688 618.269531 L 1042.960938 618.269531 C 1152.949219 618.269531 1242.109375 703.359375 1242.109375 808.308594 C 1242.109375 913.269531 1152.949219 998.351562 1042.960938 998.351562 L 1326.191406 998.351562 C 1376.851562 998.351562 1417.921875 1037.539062 1417.921875 1085.878906 C 1417.921875 1134.230469 1376.851562 1173.410156 1326.191406 1173.410156 L 1441.589844 1173.410156 C 1567.671875 1173.410156 1672.328125 1260.640625 1693.101562 1375.289062 L 1733.511719 1375.289062 C 1812.121094 1375.289062 1875.851562 1436.101562 1875.851562 1511.121094 L 1875.851562 1524.878906 C 1875.851562 1599.898438 1812.121094 1660.710938 1733.511719 1660.710938 M 254.777344 1621.351562 C 195.671875 1584.589844 153.496094 1525.121094 141.882812 1455.898438 L 254.777344 1455.898438 L 254.777344 1621.351562 M 898.453125 1312.609375 L 302.304688 1312.609375 L 302.304688 1250.109375 L 898.453125 1250.109375 L 898.453125 1312.609375 M 254.777344 1312.609375 L 163.242188 1312.609375 C 174.722656 1289.558594 189.898438 1268.488281 208.015625 1250.109375 L 254.777344 1250.109375 L 254.777344 1312.609375 "/>
</clipPath>
<clipPath id="clip-4">
<path clip-rule="nonzero" d="M 1733.511719 1660.710938 L 393.984375 1660.710938 C 361.675781 1660.710938 330.757812 1654.980469 302.304688 1644.53125 L 302.304688 1455.898438 L 898.453125 1455.898438 L 898.453125 1656.210938 L 945.980469 1656.210938 L 945.980469 1455.898438 L 1059.761719 1455.898438 L 1059.761719 1312.609375 L 945.980469 1312.609375 L 945.980469 1250.109375 L 1059.761719 1250.109375 L 1059.761719 1106.820312 L 945.980469 1106.820312 L 945.980469 1064.398438 L 898.453125 1064.398438 L 898.453125 1106.820312 L 751.894531 1106.820312 C 750.167969 1100.109375 749.253906 1093.101562 749.253906 1085.878906 C 749.253906 1037.539062 790.320312 998.351562 840.984375 998.351562 L 337.804688 998.351562 C 227.816406 998.351562 138.65625 913.269531 138.65625 808.308594 C 138.65625 703.359375 227.816406 618.269531 337.804688 618.269531 L 379.34375 618.269531 C 359.914062 602.21875 347.601562 578.53125 347.601562 552.078125 C 347.601562 503.738281 388.671875 464.550781 439.332031 464.550781 L 577.59375 464.550781 C 563.609375 453.070312 554.722656 436.089844 554.722656 417.101562 C 554.722656 382.511719 584.109375 354.46875 620.355469 354.46875 L 967.527344 354.46875 C 1003.78125 354.46875 1033.160156 382.511719 1033.160156 417.101562 C 1033.160156 451.691406 1003.78125 479.730469 967.527344 479.730469 L 837.535156 479.730469 C 813.332031 495.488281 797.4375 522.011719 797.4375 552.078125 C 797.4375 578.53125 809.746094 602.21875 829.179688 618.269531 L 1042.960938 618.269531 C 1152.949219 618.269531 1242.109375 703.359375 1242.109375 808.308594 C 1242.109375 913.269531 1152.949219 998.351562 1042.960938 998.351562 L 1326.191406 998.351562 C 1376.851562 998.351562 1417.921875 1037.539062 1417.921875 1085.878906 C 1417.921875 1134.230469 1376.851562 1173.410156 1326.191406 1173.410156 L 1441.589844 1173.410156 C 1567.671875 1173.410156 1672.328125 1260.640625 1693.101562 1375.289062 L 1733.511719 1375.289062 C 1812.121094 1375.289062 1875.851562 1436.101562 1875.851562 1511.121094 L 1875.851562 1524.878906 C 1875.851562 1599.898438 1812.121094 1660.710938 1733.511719 1660.710938 M 254.777344 1621.351562 C 195.671875 1584.589844 153.496094 1525.121094 141.882812 1455.898438 L 254.777344 1455.898438 L 254.777344 1621.351562 M 898.453125 1312.609375 L 302.304688 1312.609375 L 302.304688 1250.109375 L 898.453125 1250.109375 L 898.453125 1312.609375 M 254.777344 1312.609375 L 163.242188 1312.609375 C 174.722656 1289.558594 189.898438 1268.488281 208.015625 1250.109375 L 254.777344 1250.109375 L 254.777344 1312.609375 "/>
</clipPath>
<linearGradient id="linear-pattern-1" gradientUnits="userSpaceOnUse" x1="0.177235" y1="0" x2="0.830355" y2="0" gradientTransform="matrix(0, 2000, -2000, 0, 1000, 0.000000000000222045)">
<stop offset="0" stop-color="rgb(81.738281%, 93.040466%, 98.61145%)" stop-opacity="1"/>
<stop offset="0.03125" stop-color="rgb(81.617737%, 92.993164%, 98.597717%)" stop-opacity="1"/>
<stop offset="0.0625" stop-color="rgb(81.373596%, 92.900085%, 98.568726%)" stop-opacity="1"/>
<stop offset="0.09375" stop-color="rgb(81.126404%, 92.805481%, 98.539734%)" stop-opacity="1"/>
<stop offset="0.125" stop-color="rgb(80.87616%, 92.709351%, 98.510742%)" stop-opacity="1"/>
<stop offset="0.15625" stop-color="rgb(80.621338%, 92.61322%, 98.480225%)" stop-opacity="1"/>
<stop offset="0.1875" stop-color="rgb(80.363464%, 92.514038%, 98.449707%)" stop-opacity="1"/>
<stop offset="0.21875" stop-color="rgb(80.104065%, 92.414856%, 98.419189%)" stop-opacity="1"/>
<stop offset="0.25" stop-color="rgb(79.840088%, 92.314148%, 98.388672%)" stop-opacity="1"/>
<stop offset="0.28125" stop-color="rgb(79.574585%, 92.211914%, 98.356628%)" stop-opacity="1"/>
<stop offset="0.3125" stop-color="rgb(79.307556%, 92.10968%, 98.326111%)" stop-opacity="1"/>
<stop offset="0.34375" stop-color="rgb(79.037476%, 92.007446%, 98.294067%)" stop-opacity="1"/>
<stop offset="0.375" stop-color="rgb(78.764343%, 91.902161%, 98.262024%)" stop-opacity="1"/>
<stop offset="0.40625" stop-color="rgb(78.488159%, 91.796875%, 98.22998%)" stop-opacity="1"/>
<stop offset="0.4375" stop-color="rgb(78.211975%, 91.691589%, 98.196411%)" stop-opacity="1"/>
<stop offset="0.46875" stop-color="rgb(77.932739%, 91.584778%, 98.164368%)" stop-opacity="1"/>
<stop offset="0.5" stop-color="rgb(77.651978%, 91.477966%, 98.130798%)" stop-opacity="1"/>
<stop offset="0.53125" stop-color="rgb(77.36969%, 91.369629%, 98.098755%)" stop-opacity="1"/>
<stop offset="0.5625" stop-color="rgb(77.084351%, 91.259766%, 98.065186%)" stop-opacity="1"/>
<stop offset="0.59375" stop-color="rgb(76.797485%, 91.151428%, 98.03009%)" stop-opacity="1"/>
<stop offset="0.625" stop-color="rgb(76.509094%, 91.040039%, 97.996521%)" stop-opacity="1"/>
<stop offset="0.65625" stop-color="rgb(76.219177%, 90.930176%, 97.962952%)" stop-opacity="1"/>
<stop offset="0.6875" stop-color="rgb(75.927734%, 90.818787%, 97.927856%)" stop-opacity="1"/>
<stop offset="0.71875" stop-color="rgb(75.634766%, 90.705872%, 97.894287%)" stop-opacity="1"/>
<stop offset="0.75" stop-color="rgb(75.340271%, 90.594482%, 97.859192%)" stop-opacity="1"/>
<stop offset="0.78125" stop-color="rgb(75.04425%, 90.480042%, 97.824097%)" stop-opacity="1"/>
<stop offset="0.8125" stop-color="rgb(74.746704%, 90.367126%, 97.789001%)" stop-opacity="1"/>
<stop offset="0.84375" stop-color="rgb(74.449158%, 90.252686%, 97.753906%)" stop-opacity="1"/>
<stop offset="0.875" stop-color="rgb(74.14856%, 90.138245%, 97.718811%)" stop-opacity="1"/>
<stop offset="0.90625" stop-color="rgb(73.847961%, 90.022278%, 97.683716%)" stop-opacity="1"/>
<stop offset="0.9375" stop-color="rgb(73.544312%, 89.907837%, 97.647095%)" stop-opacity="1"/>
<stop offset="0.96875" stop-color="rgb(73.240662%, 89.790344%, 97.612%)" stop-opacity="1"/>
<stop offset="1" stop-color="rgb(72.935486%, 89.674377%, 97.576904%)" stop-opacity="1"/>
</linearGradient>
<clipPath id="clip-5">
<path clip-rule="nonzero" d="M 1190 349 L 1327 349 L 1327 485 L 1190 485 Z M 1190 349 "/>
</clipPath>
<clipPath id="clip-6">
<path clip-rule="nonzero" d="M 1258.261719 484.761719 C 1220.671875 484.761719 1190.199219 454.46875 1190.199219 417.101562 C 1190.199219 379.738281 1220.671875 349.449219 1258.261719 349.449219 C 1295.851562 349.449219 1326.320312 379.738281 1326.320312 417.101562 C 1326.320312 454.46875 1295.851562 484.761719 1258.261719 484.761719 "/>
</clipPath>
<clipPath id="clip-7">
<path clip-rule="nonzero" d="M 1258.261719 484.761719 C 1220.671875 484.761719 1190.199219 454.46875 1190.199219 417.101562 C 1190.199219 379.738281 1220.671875 349.449219 1258.261719 349.449219 C 1295.851562 349.449219 1326.320312 379.738281 1326.320312 417.101562 C 1326.320312 454.46875 1295.851562 484.761719 1258.261719 484.761719 "/>
</clipPath>
<linearGradient id="linear-pattern-2" gradientUnits="userSpaceOnUse" x1="0.174725" y1="0" x2="0.24238" y2="0" gradientTransform="matrix(0, 2000, -2000, 0, 1000, 0.000000000000222045)">
<stop offset="0" stop-color="rgb(81.767273%, 93.051147%, 98.616028%)" stop-opacity="1"/>
<stop offset="0.25" stop-color="rgb(81.668091%, 93.013%, 98.603821%)" stop-opacity="1"/>
<stop offset="0.5" stop-color="rgb(81.466675%, 92.936707%, 98.579407%)" stop-opacity="1"/>
<stop offset="0.75" stop-color="rgb(81.263733%, 92.858887%, 98.556519%)" stop-opacity="1"/>
<stop offset="1" stop-color="rgb(81.057739%, 92.779541%, 98.532104%)" stop-opacity="1"/>
</linearGradient>
<clipPath id="clip-8">
<path clip-rule="nonzero" d="M 857 446 L 1481 446 L 1481 1544 L 857 1544 Z M 857 446 "/>
</clipPath>
<clipPath id="clip-9">
<path clip-rule="nonzero" d="M 901.371094 1540.328125 L 1430.03125 1543.75 C 1454.171875 1543.898438 1473.859375 1525.089844 1474 1501.730469 L 1480.140625 492.230469 C 1480.28125 468.898438 1460.859375 449.871094 1436.75 449.71875 L 908.097656 446.308594 C 883.960938 446.160156 864.269531 464.96875 864.128906 488.320312 L 857.984375 1497.828125 C 857.84375 1521.148438 877.261719 1540.179688 901.371094 1540.328125 Z M 901.371094 1540.328125 "/>
</clipPath>
<clipPath id="clip-10">
<path clip-rule="nonzero" d="M 901.371094 1540.328125 L 1430.03125 1543.75 C 1454.171875 1543.898438 1473.859375 1525.089844 1474 1501.730469 L 1480.140625 492.230469 C 1480.28125 468.898438 1460.859375 449.871094 1436.75 449.71875 L 908.097656 446.308594 C 883.960938 446.160156 864.269531 464.96875 864.128906 488.320312 L 857.984375 1497.828125 C 857.84375 1521.148438 877.261719 1540.179688 901.371094 1540.328125 "/>
</clipPath>
<linearGradient id="linear-pattern-3" gradientUnits="userSpaceOnUse" x1="-0.00353831" y1="0" x2="1.003548" y2="0" gradientTransform="matrix(-7.8232, 1094.41, 1043.09, 7.51027, 1172.98, 447.82)">
<stop offset="0" stop-color="rgb(99.215698%, 99.215698%, 99.215698%)" stop-opacity="1"/>
<stop offset="0.0078125" stop-color="rgb(99.072266%, 99.182129%, 99.21875%)" stop-opacity="1"/>
<stop offset="0.0117187" stop-color="rgb(98.672485%, 99.08905%, 99.229431%)" stop-opacity="1"/>
<stop offset="0.015625" stop-color="rgb(98.416138%, 99.029541%, 99.237061%)" stop-opacity="1"/>
<stop offset="0.0195312" stop-color="rgb(98.161316%, 98.970032%, 99.243164%)" stop-opacity="1"/>
<stop offset="0.0234375" stop-color="rgb(97.90802%, 98.910522%, 99.250793%)" stop-opacity="1"/>
<stop offset="0.0273438" stop-color="rgb(97.65625%, 98.851013%, 99.256897%)" stop-opacity="1"/>
<stop offset="0.03125" stop-color="rgb(97.406006%, 98.79303%, 99.264526%)" stop-opacity="1"/>
<stop offset="0.0351562" stop-color="rgb(97.157288%, 98.735046%, 99.27063%)" stop-opacity="1"/>
<stop offset="0.0390625" stop-color="rgb(96.908569%, 98.677063%, 99.278259%)" stop-opacity="1"/>
<stop offset="0.0429688" stop-color="rgb(96.661377%, 98.61908%, 99.284363%)" stop-opacity="1"/>
<stop offset="0.046875" stop-color="rgb(96.41571%, 98.562622%, 99.291992%)" stop-opacity="1"/>
<stop offset="0.0507812" stop-color="rgb(96.17157%, 98.506165%, 99.298096%)" stop-opacity="1"/>
<stop offset="0.0546875" stop-color="rgb(95.928955%, 98.449707%, 99.305725%)" stop-opacity="1"/>
<stop offset="0.0585937" stop-color="rgb(95.687866%, 98.39325%, 99.311829%)" stop-opacity="1"/>
<stop offset="0.0625" stop-color="rgb(95.446777%, 98.336792%, 99.317932%)" stop-opacity="1"/>
<stop offset="0.0664062" stop-color="rgb(95.20874%, 98.28186%, 99.324036%)" stop-opacity="1"/>
<stop offset="0.0703125" stop-color="rgb(94.970703%, 98.226929%, 99.331665%)" stop-opacity="1"/>
<stop offset="0.0742187" stop-color="rgb(94.734192%, 98.171997%, 99.337769%)" stop-opacity="1"/>
<stop offset="0.078125" stop-color="rgb(94.499207%, 98.117065%, 99.343872%)" stop-opacity="1"/>
<stop offset="0.0820312" stop-color="rgb(94.265747%, 98.062134%, 99.349976%)" stop-opacity="1"/>
<stop offset="0.0859375" stop-color="rgb(94.032288%, 98.008728%, 99.357605%)" stop-opacity="1"/>
<stop offset="0.0898437" stop-color="rgb(93.80188%, 97.953796%, 99.363708%)" stop-opacity="1"/>
<stop offset="0.09375" stop-color="rgb(93.571472%, 97.900391%, 99.369812%)" stop-opacity="1"/>
<stop offset="0.0976562" stop-color="rgb(93.344116%, 97.846985%, 99.375916%)" stop-opacity="1"/>
<stop offset="0.101562" stop-color="rgb(93.11676%, 97.795105%, 99.382019%)" stop-opacity="1"/>
<stop offset="0.105469" stop-color="rgb(92.89093%, 97.741699%, 99.388123%)" stop-opacity="1"/>
<stop offset="0.109375" stop-color="rgb(92.6651%, 97.689819%, 99.394226%)" stop-opacity="1"/>
<stop offset="0.113281" stop-color="rgb(92.442322%, 97.637939%, 99.40033%)" stop-opacity="1"/>
<stop offset="0.117187" stop-color="rgb(92.219543%, 97.58606%, 99.406433%)" stop-opacity="1"/>
<stop offset="0.121094" stop-color="rgb(91.999817%, 97.53418%, 99.412537%)" stop-opacity="1"/>
<stop offset="0.125" stop-color="rgb(91.78009%, 97.483826%, 99.41864%)" stop-opacity="1"/>
<stop offset="0.128906" stop-color="rgb(91.56189%, 97.431946%, 99.424744%)" stop-opacity="1"/>
<stop offset="0.132812" stop-color="rgb(91.345215%, 97.381592%, 99.430847%)" stop-opacity="1"/>
<stop offset="0.136719" stop-color="rgb(91.130066%, 97.331238%, 99.436951%)" stop-opacity="1"/>
<stop offset="0.140625" stop-color="rgb(90.914917%, 97.28241%, 99.443054%)" stop-opacity="1"/>
<stop offset="0.144531" stop-color="rgb(90.701294%, 97.232056%, 99.447632%)" stop-opacity="1"/>
<stop offset="0.148437" stop-color="rgb(90.489197%, 97.183228%, 99.453735%)" stop-opacity="1"/>
<stop offset="0.152344" stop-color="rgb(90.278625%, 97.134399%, 99.459839%)" stop-opacity="1"/>
<stop offset="0.15625" stop-color="rgb(90.06958%, 97.085571%, 99.465942%)" stop-opacity="1"/>
<stop offset="0.160156" stop-color="rgb(89.862061%, 97.036743%, 99.47052%)" stop-opacity="1"/>
<stop offset="0.164062" stop-color="rgb(89.654541%, 96.987915%, 99.476624%)" stop-opacity="1"/>
<stop offset="0.167969" stop-color="rgb(89.448547%, 96.940613%, 99.482727%)" stop-opacity="1"/>
<stop offset="0.171875" stop-color="rgb(89.24408%, 96.893311%, 99.488831%)" stop-opacity="1"/>
<stop offset="0.175781" stop-color="rgb(89.041138%, 96.846008%, 99.493408%)" stop-opacity="1"/>
<stop offset="0.179687" stop-color="rgb(88.839722%, 96.798706%, 99.499512%)" stop-opacity="1"/>
<stop offset="0.183594" stop-color="rgb(88.639832%, 96.751404%, 99.504089%)" stop-opacity="1"/>
<stop offset="0.1875" stop-color="rgb(88.439941%, 96.705627%, 99.510193%)" stop-opacity="1"/>
<stop offset="0.191406" stop-color="rgb(88.241577%, 96.659851%, 99.514771%)" stop-opacity="1"/>
<stop offset="0.195312" stop-color="rgb(88.044739%, 96.614075%, 99.520874%)" stop-opacity="1"/>
<stop offset="0.203125" stop-color="rgb(87.849426%, 96.568298%, 99.525452%)" stop-opacity="1"/>
<stop offset="0.210938" stop-color="rgb(87.463379%, 96.478271%, 99.536133%)" stop-opacity="1"/>
<stop offset="0.21875" stop-color="rgb(87.080383%, 96.389771%, 99.546814%)" stop-opacity="1"/>
<stop offset="0.226562" stop-color="rgb(86.703491%, 96.30127%, 99.557495%)" stop-opacity="1"/>
<stop offset="0.234375" stop-color="rgb(86.331177%, 96.214294%, 99.568176%)" stop-opacity="1"/>
<stop offset="0.242187" stop-color="rgb(85.96344%, 96.128845%, 99.577332%)" stop-opacity="1"/>
<stop offset="0.25" stop-color="rgb(85.600281%, 96.043396%, 99.588013%)" stop-opacity="1"/>
<stop offset="0.257812" stop-color="rgb(85.241699%, 95.960999%, 99.597168%)" stop-opacity="1"/>
<stop offset="0.265625" stop-color="rgb(84.889221%, 95.878601%, 99.607849%)" stop-opacity="1"/>
<stop offset="0.273437" stop-color="rgb(84.541321%, 95.797729%, 99.617004%)" stop-opacity="1"/>
<stop offset="0.28125" stop-color="rgb(84.197998%, 95.718384%, 99.62616%)" stop-opacity="1"/>
<stop offset="0.289062" stop-color="rgb(83.860779%, 95.639038%, 99.635315%)" stop-opacity="1"/>
<stop offset="0.296875" stop-color="rgb(83.526611%, 95.561218%, 99.64447%)" stop-opacity="1"/>
<stop offset="0.304688" stop-color="rgb(83.198547%, 95.484924%, 99.653625%)" stop-opacity="1"/>
<stop offset="0.3125" stop-color="rgb(82.873535%, 95.40863%, 99.662781%)" stop-opacity="1"/>
<stop offset="0.320312" stop-color="rgb(82.554626%, 95.335388%, 99.67041%)" stop-opacity="1"/>
<stop offset="0.328125" stop-color="rgb(82.240295%, 95.262146%, 99.679565%)" stop-opacity="1"/>
<stop offset="0.335937" stop-color="rgb(81.930542%, 95.188904%, 99.688721%)" stop-opacity="1"/>
<stop offset="0.34375" stop-color="rgb(81.625366%, 95.118713%, 99.69635%)" stop-opacity="1"/>
<stop offset="0.351562" stop-color="rgb(81.324768%, 95.048523%, 99.703979%)" stop-opacity="1"/>
<stop offset="0.359375" stop-color="rgb(81.030273%, 94.979858%, 99.713135%)" stop-opacity="1"/>
<stop offset="0.367187" stop-color="rgb(80.738831%, 94.91272%, 99.720764%)" stop-opacity="1"/>
<stop offset="0.375" stop-color="rgb(80.453491%, 94.845581%, 99.728394%)" stop-opacity="1"/>
<stop offset="0.382812" stop-color="rgb(80.171204%, 94.779968%, 99.736023%)" stop-opacity="1"/>
<stop offset="0.390625" stop-color="rgb(79.89502%, 94.715881%, 99.743652%)" stop-opacity="1"/>
<stop offset="0.398437" stop-color="rgb(79.621887%, 94.651794%, 99.751282%)" stop-opacity="1"/>
<stop offset="0.40625" stop-color="rgb(79.353333%, 94.589233%, 99.758911%)" stop-opacity="1"/>
<stop offset="0.414062" stop-color="rgb(79.089355%, 94.528198%, 99.765015%)" stop-opacity="1"/>
<stop offset="0.421875" stop-color="rgb(78.831482%, 94.467163%, 99.772644%)" stop-opacity="1"/>
<stop offset="0.429687" stop-color="rgb(78.57666%, 94.40918%, 99.780273%)" stop-opacity="1"/>
<stop offset="0.4375" stop-color="rgb(78.327942%, 94.351196%, 99.786377%)" stop-opacity="1"/>
<stop offset="0.445312" stop-color="rgb(78.082275%, 94.293213%, 99.794006%)" stop-opacity="1"/>
<stop offset="0.453125" stop-color="rgb(77.841187%, 94.236755%, 99.80011%)" stop-opacity="1"/>
<stop offset="0.460937" stop-color="rgb(77.604675%, 94.181824%, 99.806213%)" stop-opacity="1"/>
<stop offset="0.46875" stop-color="rgb(77.372742%, 94.128418%, 99.813843%)" stop-opacity="1"/>
<stop offset="0.476562" stop-color="rgb(77.145386%, 94.075012%, 99.819946%)" stop-opacity="1"/>
<stop offset="0.484375" stop-color="rgb(76.922607%, 94.023132%, 99.82605%)" stop-opacity="1"/>
<stop offset="0.492187" stop-color="rgb(76.704407%, 93.971252%, 99.832153%)" stop-opacity="1"/>
<stop offset="0.5" stop-color="rgb(76.489258%, 93.922424%, 99.836731%)" stop-opacity="1"/>
<stop offset="0.507812" stop-color="rgb(76.278687%, 93.873596%, 99.842834%)" stop-opacity="1"/>
<stop offset="0.515625" stop-color="rgb(76.072693%, 93.824768%, 99.848938%)" stop-opacity="1"/>
<stop offset="0.523438" stop-color="rgb(75.871277%, 93.778992%, 99.853516%)" stop-opacity="1"/>
<stop offset="0.53125" stop-color="rgb(75.674438%, 93.733215%, 99.859619%)" stop-opacity="1"/>
<stop offset="0.546875" stop-color="rgb(75.387573%, 93.666077%, 99.867249%)" stop-opacity="1"/>
<stop offset="0.5625" stop-color="rgb(75.018311%, 93.579102%, 99.87793%)" stop-opacity="1"/>
<stop offset="0.578125" stop-color="rgb(74.665833%, 93.49823%, 99.887085%)" stop-opacity="1"/>
<stop offset="0.59375" stop-color="rgb(74.328613%, 93.42041%, 99.89624%)" stop-opacity="1"/>
<stop offset="0.609375" stop-color="rgb(74.009705%, 93.345642%, 99.905396%)" stop-opacity="1"/>
<stop offset="0.625" stop-color="rgb(73.706055%, 93.273926%, 99.913025%)" stop-opacity="1"/>
<stop offset="0.640625" stop-color="rgb(73.417664%, 93.206787%, 99.920654%)" stop-opacity="1"/>
<stop offset="0.65625" stop-color="rgb(73.144531%, 93.144226%, 99.928284%)" stop-opacity="1"/>
<stop offset="0.671875" stop-color="rgb(72.888184%, 93.084717%, 99.935913%)" stop-opacity="1"/>
<stop offset="0.6875" stop-color="rgb(72.647095%, 93.028259%, 99.942017%)" stop-opacity="1"/>
<stop offset="0.703125" stop-color="rgb(72.421265%, 92.974854%, 99.949646%)" stop-opacity="1"/>
<stop offset="0.71875" stop-color="rgb(72.209167%, 92.926025%, 99.954224%)" stop-opacity="1"/>
<stop offset="0.75" stop-color="rgb(71.923828%, 92.858887%, 99.961853%)" stop-opacity="1"/>
<stop offset="0.78125" stop-color="rgb(71.586609%, 92.781067%, 99.971008%)" stop-opacity="1"/>
<stop offset="0.8125" stop-color="rgb(71.304321%, 92.713928%, 99.978638%)" stop-opacity="1"/>
<stop offset="0.875" stop-color="rgb(70.994568%, 92.642212%, 99.987793%)" stop-opacity="1"/>
<stop offset="1" stop-color="rgb(70.700073%, 92.573547%, 99.995422%)" stop-opacity="1"/>
</linearGradient>
</defs>
<g clip-path="url(#clip-0)">
<g clip-path="url(#clip-1)">
<rect x="-200" y="-200" width="2400" height="2400" fill="url(#linear-pattern-0)"/>
</g>
</g>
<g clip-path="url(#clip-2)">
<g clip-path="url(#clip-3)">
<g clip-path="url(#clip-4)">
<path fill-rule="nonzero" fill="url(#linear-pattern-1)" d="M 1875.851562 354.46875 L 138.65625 354.46875 L 138.65625 1660.710938 L 1875.851562 1660.710938 Z M 1875.851562 354.46875 "/>
</g>
</g>
</g>
<g clip-path="url(#clip-5)">
<g clip-path="url(#clip-6)">
<g clip-path="url(#clip-7)">
<path fill-rule="nonzero" fill="url(#linear-pattern-2)" d="M 1326.320312 349.449219 L 1190.199219 349.449219 L 1190.199219 484.761719 L 1326.320312 484.761719 Z M 1326.320312 349.449219 "/>
</g>
</g>
</g>
<path fill-rule="nonzero" fill="rgb(66.209412%, 80.859375%, 91.796875%)" fill-opacity="1" d="M 886.238281 397.53125 C 861.878906 412.648438 829.882812 405.148438 814.765625 380.78125 C 799.652344 356.410156 807.144531 324.398438 831.503906 309.28125 C 855.863281 294.171875 887.863281 301.671875 902.976562 326.03125 C 918.089844 350.398438 910.597656 382.410156 886.238281 397.53125 Z M 962.539062 355.570312 C 962.804688 343.460938 960.949219 331.210938 956.84375 319.410156 L 983.285156 295.96875 L 965.960938 268.039062 L 933.375 281.261719 C 924.613281 272.191406 914.425781 264.960938 903.390625 259.730469 L 905.503906 224.601562 L 873.511719 217.109375 L 859.742188 249.679688 C 847.644531 249.570312 835.4375 251.570312 823.691406 255.820312 L 800.0625 229.148438 L 772.144531 246.480469 L 785.691406 279.890625 C 777.035156 288.488281 770.128906 298.429688 765.085938 309.148438 L 728.730469 306.960938 L 721.238281 338.960938 L 755.179688 353.308594 C 755.160156 364.890625 757.074219 376.558594 761.046875 387.820312 L 733.292969 412.429688 L 750.617188 440.359375 L 785.140625 426.351562 C 793.445312 434.769531 803 441.550781 813.3125 446.578125 L 811.074219 483.789062 L 843.066406 491.289062 L 857.503906 457.128906 C 869.09375 457.300781 880.789062 455.519531 892.097656 451.679688 L 916.515625 479.238281 L 944.433594 461.910156 L 930.753906 428.179688 C 939.574219 419.71875 946.65625 409.898438 951.882812 399.269531 L 987.84375 401.441406 L 995.339844 369.441406 L 962.539062 355.570312 "/>
<path fill-rule="nonzero" fill="rgb(72.068787%, 85.546875%, 96.875%)" fill-opacity="1" d="M 873.761719 404.011719 C 849.402344 419.121094 817.40625 411.621094 802.289062 387.261719 C 787.175781 362.890625 794.667969 330.878906 819.027344 315.761719 C 843.386719 300.640625 875.386719 308.140625 890.5 332.511719 C 905.613281 356.878906 898.121094 388.890625 873.761719 404.011719 Z M 950.0625 362.050781 C 950.328125 349.929688 948.472656 337.691406 944.367188 325.890625 L 970.808594 302.441406 L 953.480469 274.511719 L 920.898438 287.738281 C 912.136719 278.671875 901.945312 271.441406 890.910156 266.199219 L 893.023438 231.078125 L 861.03125 223.578125 L 847.265625 256.160156 C 835.167969 256.039062 822.960938 258.050781 811.214844 262.300781 L 787.585938 235.628906 L 759.664062 252.960938 L 773.214844 286.359375 C 764.558594 294.96875 757.652344 304.910156 752.609375 315.621094 L 716.253906 313.429688 L 708.761719 345.429688 L 742.703125 359.789062 C 742.683594 371.371094 744.597656 383.039062 748.570312 394.300781 L 720.816406 418.910156 L 738.140625 446.839844 L 772.664062 432.828125 C 780.96875 441.25 790.523438 448.019531 800.835938 453.058594 L 798.597656 490.269531 L 830.589844 497.769531 L 845.027344 463.609375 C 856.617188 463.769531 868.3125 462 879.617188 458.160156 L 904.039062 485.71875 L 931.957031 468.390625 L 918.277344 434.660156 C 927.097656 426.191406 934.179688 416.378906 939.402344 405.75 L 975.367188 407.921875 L 982.859375 375.921875 L 950.0625 362.050781 "/>
<path fill-rule="nonzero" fill="rgb(66.209412%, 80.859375%, 91.796875%)" fill-opacity="1" d="M 716.253906 313.429688 L 727.0625 314.078125 L 728.730469 306.960938 Z M 716.253906 313.429688 "/>
<path fill-rule="nonzero" fill="rgb(66.209412%, 80.859375%, 91.796875%)" fill-opacity="1" d="M 861.03125 223.578125 L 873.511719 217.109375 L 869.894531 225.660156 Z M 861.03125 223.578125 "/>
<path fill-rule="nonzero" fill="rgb(66.209412%, 80.859375%, 91.796875%)" fill-opacity="1" d="M 787.585938 235.628906 L 800.0625 229.148438 L 788.308594 236.449219 Z M 787.585938 235.628906 "/>
<path fill-rule="nonzero" fill="rgb(66.209412%, 80.859375%, 91.796875%)" fill-opacity="1" d="M 830.589844 497.769531 L 843.066406 491.289062 L 834.207031 489.210938 Z M 830.589844 497.769531 "/>
<path fill-rule="nonzero" fill="rgb(66.209412%, 80.859375%, 91.796875%)" fill-opacity="1" d="M 975.367188 407.921875 L 987.84375 401.441406 L 977.035156 400.789062 Z M 975.367188 407.921875 "/>
<path fill-rule="nonzero" fill="rgb(66.209412%, 80.859375%, 91.796875%)" fill-opacity="1" d="M 904.039062 485.71875 L 916.515625 479.238281 L 915.792969 478.429688 Z M 904.039062 485.71875 "/>
<path fill-rule="nonzero" fill="rgb(58.006287%, 82.8125%, 91.40625%)" fill-opacity="1" d="M 1878.101562 1655.488281 C 1878.101562 1685.921875 1501.089844 1678.730469 1020.128906 1678.730469 C 539.183594 1678.730469 136.410156 1685.921875 136.410156 1655.488281 C 136.410156 1625.050781 539.183594 1617.980469 1020.128906 1617.980469 C 1501.089844 1617.980469 1878.101562 1625.050781 1878.101562 1655.488281 "/>
<path fill-rule="nonzero" fill="rgb(100%, 100%, 100%)" fill-opacity="1" d="M 606.449219 653.671875 C 599.90625 652.761719 590.875 652.191406 580.320312 653.671875 C 568.371094 655.339844 558.917969 659.011719 552.550781 662.070312 C 536.710938 625.328125 500.355469 601.410156 460.347656 601.410156 C 412.863281 601.410156 373.726562 627.890625 368.144531 662.070312 L 336.574219 662.070312 C 307.714844 662.070312 284.316406 685.460938 284.316406 714.328125 C 284.316406 743.191406 307.714844 766.589844 336.574219 766.589844 L 608.136719 766.589844 C 636.609375 763.539062 658.511719 740.859375 660.394531 714.328125 C 662.515625 684.480469 638.828125 656.410156 606.449219 653.671875 "/>
<path fill-rule="nonzero" fill="rgb(10.984802%, 22.75238%, 45.872498%)" fill-opacity="1" d="M 390.304688 715.230469 C 390.304688 711.519531 389.703125 708.289062 388.507812 705.570312 C 387.304688 702.851562 385.59375 700.789062 383.363281 699.390625 C 381.136719 697.988281 378.582031 697.300781 375.695312 697.300781 C 373.640625 697.300781 371.742188 697.679688 369.996094 698.460938 C 368.253906 699.230469 366.753906 700.359375 365.496094 701.828125 C 364.238281 703.308594 363.246094 705.199219 362.519531 707.488281 C 361.792969 709.789062 361.429688 712.371094 361.429688 715.230469 C 361.429688 718.121094 361.792969 720.730469 362.519531 723.058594 C 363.246094 725.390625 364.273438 727.320312 365.601562 728.859375 C 366.929688 730.390625 368.453125 731.539062 370.171875 732.300781 C 371.890625 733.070312 373.777344 733.449219 375.832031 733.449219 C 378.464844 733.449219 380.882812 732.789062 383.085938 731.46875 C 385.289062 730.160156 387.046875 728.128906 388.351562 725.378906 C 389.652344 722.628906 390.304688 719.25 390.304688 715.230469 Z M 375.695312 689.121094 C 380.957031 689.121094 385.476562 690.191406 389.25 692.328125 C 393.023438 694.460938 395.882812 697.5 397.820312 701.429688 C 399.757812 705.371094 400.730469 709.988281 400.730469 715.300781 C 400.730469 719.230469 400.195312 722.789062 399.136719 726 C 398.074219 729.210938 396.480469 731.988281 394.355469 734.351562 C 392.234375 736.699219 389.625 738.5 386.53125 739.75 C 383.4375 741 379.894531 741.621094 375.902344 741.621094 C 371.933594 741.621094 368.375 740.980469 365.238281 739.699219 C 362.097656 738.421875 359.476562 736.609375 357.375 734.28125 C 355.277344 731.949219 353.6875 729.140625 352.617188 725.859375 C 351.542969 722.589844 351.003906 719.039062 351.003906 715.230469 C 351.003906 711.328125 351.5625 707.75 352.683594 704.5 C 353.804688 701.238281 355.425781 698.46875 357.550781 696.191406 C 359.675781 693.898438 362.257812 692.160156 365.304688 690.941406 C 368.351562 689.730469 371.816406 689.121094 375.695312 689.121094 "/>
<path fill-rule="nonzero" fill="rgb(10.984802%, 22.75238%, 45.872498%)" fill-opacity="1" d="M 446.46875 715.230469 C 446.46875 711.519531 445.867188 708.289062 444.667969 705.570312 C 443.46875 702.851562 441.753906 700.789062 439.527344 699.390625 C 437.300781 697.988281 434.742188 697.300781 431.855469 697.300781 C 429.800781 697.300781 427.90625 697.679688 426.160156 698.460938 C 424.417969 699.230469 422.917969 700.359375 421.660156 701.828125 C 420.402344 703.308594 419.410156 705.199219 418.683594 707.488281 C 417.953125 709.789062 417.589844 712.371094 417.589844 715.230469 C 417.589844 718.121094 417.953125 720.730469 418.683594 723.058594 C 419.410156 725.390625 420.4375 727.320312 421.765625 728.859375 C 423.09375 730.390625 424.617188 731.539062 426.335938 732.300781 C 428.054688 733.070312 429.941406 733.449219 431.996094 733.449219 C 434.628906 733.449219 437.046875 732.789062 439.25 731.46875 C 441.453125 730.160156 443.210938 728.128906 444.511719 725.378906 C 445.816406 722.628906 446.46875 719.25 446.46875 715.230469 Z M 431.855469 689.121094 C 437.121094 689.121094 441.640625 690.191406 445.414062 692.328125 C 449.1875 694.460938 452.042969 697.5 453.984375 701.429688 C 455.921875 705.371094 456.890625 709.988281 456.890625 715.300781 C 456.890625 719.230469 456.359375 722.789062 455.300781 726 C 454.238281 729.210938 452.644531 731.988281 450.519531 734.351562 C 448.394531 736.699219 445.789062 738.5 442.695312 739.75 C 439.601562 741 436.058594 741.621094 432.066406 741.621094 C 428.097656 741.621094 424.539062 740.980469 421.398438 739.699219 C 418.261719 738.421875 415.640625 736.609375 413.539062 734.28125 C 411.441406 731.949219 409.851562 729.140625 408.777344 725.859375 C 407.707031 722.589844 407.167969 719.039062 407.167969 715.230469 C 407.167969 711.328125 407.726562 707.75 408.847656 704.5 C 409.96875 701.238281 411.589844 698.46875 413.714844 696.191406 C 415.839844 693.898438 418.421875 692.160156 421.46875 690.941406 C 424.515625 689.730469 427.980469 689.121094 431.855469 689.121094 "/>
<path fill-rule="nonzero" fill="rgb(10.984802%, 22.75238%, 45.872498%)" fill-opacity="1" d="M 482.894531 697.710938 L 475.972656 697.710938 L 475.972656 713.21875 L 482.894531 713.21875 C 485.320312 713.21875 487.347656 712.96875 488.972656 712.460938 C 490.601562 711.960938 491.84375 711.121094 492.695312 709.96875 C 493.550781 708.808594 493.976562 707.300781 493.976562 705.429688 C 493.976562 703.199219 493.320312 701.371094 492.003906 699.960938 C 490.527344 698.460938 487.488281 697.710938 482.894531 697.710938 Z M 485.390625 720.980469 L 475.972656 720.980469 L 475.972656 735.351562 C 475.972656 737.410156 475.484375 738.960938 474.515625 740.03125 C 473.546875 741.089844 472.324219 741.621094 470.847656 741.621094 C 469.300781 741.621094 468.054688 741.089844 467.105469 740.039062 C 466.160156 738.988281 465.6875 737.449219 465.6875 735.421875 L 465.6875 696.289062 C 465.6875 694.03125 466.207031 692.410156 467.246094 691.441406 C 468.285156 690.480469 469.933594 689.988281 472.195312 689.988281 L 485.390625 689.988281 C 489.289062 689.988281 492.292969 690.289062 494.390625 690.890625 C 496.46875 691.46875 498.265625 692.429688 499.777344 693.761719 C 501.289062 695.101562 502.4375 696.738281 503.222656 698.679688 C 504.003906 700.621094 504.398438 702.800781 504.398438 705.230469 C 504.398438 710.398438 502.808594 714.320312 499.621094 716.980469 C 496.433594 719.648438 491.691406 720.980469 485.390625 720.980469 "/>
<path fill-rule="nonzero" fill="rgb(10.984802%, 22.75238%, 45.872498%)" fill-opacity="1" d="M 551.558594 725.519531 C 551.558594 728.589844 550.769531 731.351562 549.1875 733.789062 C 547.605469 736.238281 545.292969 738.160156 542.246094 739.539062 C 539.199219 740.929688 535.585938 741.621094 531.40625 741.621094 C 526.398438 741.621094 522.265625 740.671875 519.011719 738.78125 C 516.703125 737.421875 514.828125 735.601562 513.386719 733.328125 C 511.941406 731.050781 511.222656 728.839844 511.222656 726.691406 C 511.222656 725.449219 511.652344 724.378906 512.519531 723.488281 C 513.386719 722.601562 514.488281 722.160156 515.824219 722.160156 C 516.910156 722.160156 517.828125 722.511719 518.578125 723.199219 C 519.328125 723.890625 519.96875 724.921875 520.5 726.28125 C 521.144531 727.890625 521.847656 729.238281 522.59375 730.328125 C 523.34375 731.421875 524.402344 732.308594 525.765625 733.011719 C 527.125 733.71875 528.914062 734.070312 531.128906 734.070312 C 534.179688 734.070312 536.652344 733.359375 538.558594 731.941406 C 540.460938 730.519531 541.414062 728.75 541.414062 726.621094 C 541.414062 724.941406 540.898438 723.570312 539.875 722.519531 C 538.847656 721.46875 537.519531 720.671875 535.890625 720.121094 C 534.265625 719.558594 532.089844 718.96875 529.363281 718.351562 C 525.71875 717.5 522.664062 716.5 520.207031 715.351562 C 517.746094 714.210938 515.796875 712.648438 514.355469 710.679688 C 512.910156 708.710938 512.191406 706.25 512.191406 703.320312 C 512.191406 700.53125 512.953125 698.050781 514.476562 695.878906 C 516 693.710938 518.203125 692.039062 521.089844 690.871094 C 523.976562 689.710938 527.367188 689.121094 531.269531 689.121094 C 534.386719 689.121094 537.082031 689.511719 539.355469 690.28125 C 541.628906 691.058594 543.515625 692.089844 545.015625 693.371094 C 546.515625 694.648438 547.613281 695.988281 548.304688 697.398438 C 548.996094 698.808594 549.34375 700.179688 549.34375 701.519531 C 549.34375 702.75 548.910156 703.851562 548.046875 704.828125 C 547.179688 705.808594 546.101562 706.300781 544.808594 706.300781 C 543.628906 706.300781 542.734375 706.011719 542.125 705.421875 C 541.511719 704.828125 540.847656 703.859375 540.132812 702.53125 C 539.210938 700.609375 538.101562 699.109375 536.808594 698.039062 C 535.515625 696.96875 533.4375 696.429688 530.574219 696.429688 C 527.921875 696.429688 525.78125 697.011719 524.152344 698.179688 C 522.527344 699.339844 521.710938 700.75 521.710938 702.390625 C 521.710938 703.398438 521.988281 704.28125 522.542969 705.019531 C 523.097656 705.761719 523.859375 706.390625 524.828125 706.921875 C 525.796875 707.460938 526.78125 707.871094 527.769531 708.171875 C 528.765625 708.46875 530.402344 708.910156 532.6875 709.480469 C 535.550781 710.160156 538.140625 710.890625 540.460938 711.699219 C 542.78125 712.511719 544.757812 713.488281 546.382812 714.640625 C 548.011719 715.800781 549.277344 717.261719 550.191406 719.019531 C 551.105469 720.789062 551.558594 722.960938 551.558594 725.519531 "/>
<path fill-rule="nonzero" fill="rgb(10.984802%, 22.75238%, 45.872498%)" fill-opacity="1" d="M 584.316406 741.550781 C 582.910156 741.550781 581.679688 741.089844 580.628906 740.179688 C 579.578125 739.269531 579.054688 737.988281 579.054688 736.359375 C 579.054688 734.921875 579.554688 733.710938 580.558594 732.699219 C 581.5625 731.699219 582.792969 731.199219 584.246094 731.199219 C 585.699219 731.199219 586.941406 731.699219 587.96875 732.699219 C 588.996094 733.710938 589.511719 734.921875 589.511719 736.359375 C 589.511719 737.96875 588.992188 739.238281 587.953125 740.160156 C 586.914062 741.089844 585.699219 741.550781 584.316406 741.550781 Z M 580.472656 718.769531 L 579.363281 702.179688 C 579.15625 698.949219 579.054688 696.628906 579.054688 695.21875 C 579.054688 693.300781 579.554688 691.808594 580.558594 690.730469 C 581.5625 689.660156 582.882812 689.121094 584.523438 689.121094 C 586.511719 689.121094 587.835938 689.808594 588.507812 691.191406 C 589.175781 692.558594 589.511719 694.539062 589.511719 697.121094 C 589.511719 698.648438 589.429688 700.191406 589.269531 701.761719 L 587.777344 718.828125 C 587.617188 720.859375 587.273438 722.421875 586.738281 723.511719 C 586.207031 724.589844 585.332031 725.140625 584.109375 725.140625 C 582.863281 725.140625 581.996094 724.609375 581.511719 723.558594 C 581.027344 722.511719 580.679688 720.910156 580.472656 718.769531 "/>
<path fill-rule="nonzero" fill="rgb(47.459412%, 78.90625%, 91.796875%)" fill-opacity="1" d="M 254.777344 1656.210938 L 302.304688 1656.210938 L 302.304688 1064.398438 L 254.777344 1064.398438 Z M 254.777344 1656.210938 "/>
<path fill-rule="nonzero" fill="rgb(38.426208%, 71.289062%, 80.859375%)" fill-opacity="1" d="M 287.5625 1656.210938 L 302.304688 1656.210938 L 302.304688 1064.398438 L 287.5625 1064.398438 Z M 287.5625 1656.210938 "/>
<path fill-rule="nonzero" fill="rgb(47.459412%, 78.90625%, 91.796875%)" fill-opacity="1" d="M 898.453125 1656.210938 L 945.980469 1656.210938 L 945.980469 1064.398438 L 898.453125 1064.398438 Z M 898.453125 1656.210938 "/>
<path fill-rule="nonzero" fill="rgb(38.426208%, 71.289062%, 80.859375%)" fill-opacity="1" d="M 931.238281 1656.210938 L 945.980469 1656.210938 L 945.980469 1064.398438 L 931.238281 1064.398438 Z M 931.238281 1656.210938 "/>
<path fill-rule="nonzero" fill="rgb(99.609375%, 74.804688%, 29.417419%)" fill-opacity="1" d="M 128.136719 1250.109375 L 1059.761719 1250.109375 L 1059.761719 1106.820312 L 128.136719 1106.820312 Z M 128.136719 1250.109375 "/>
<path fill-rule="nonzero" fill="rgb(2.352905%, 51.367188%, 77.34375%)" fill-opacity="1" d="M 291.617188 1106.820312 L 212.660156 1106.820312 L 128.136719 1246.101562 L 128.136719 1250.109375 L 204.660156 1250.109375 L 291.617188 1106.820312 "/>
<path fill-rule="nonzero" fill="rgb(2.352905%, 51.367188%, 77.34375%)" fill-opacity="1" d="M 315.289062 1250.109375 L 394.25 1250.109375 L 481.203125 1106.820312 L 402.246094 1106.820312 L 315.289062 1250.109375 "/>
<path fill-rule="nonzero" fill="rgb(2.352905%, 51.367188%, 77.34375%)" fill-opacity="1" d="M 504.878906 1250.109375 L 583.835938 1250.109375 L 670.789062 1106.820312 L 591.832031 1106.820312 L 504.878906 1250.109375 "/>
<path fill-rule="nonzero" fill="rgb(2.352905%, 51.367188%, 77.34375%)" fill-opacity="1" d="M 694.464844 1250.109375 L 773.421875 1250.109375 L 860.378906 1106.820312 L 781.421875 1106.820312 L 694.464844 1250.109375 "/>
<path fill-rule="nonzero" fill="rgb(2.352905%, 51.367188%, 77.34375%)" fill-opacity="1" d="M 884.050781 1250.109375 L 963.007812 1250.109375 L 1049.960938 1106.820312 L 971.003906 1106.820312 L 884.050781 1250.109375 "/>
<path fill-rule="nonzero" fill="rgb(95.701599%, 66.209412%, 22.75238%)" fill-opacity="1" d="M 1059.761719 1128.710938 L 1036.679688 1128.710938 L 1049.960938 1106.820312 L 1059.761719 1106.820312 L 1059.761719 1128.710938 M 957.71875 1128.710938 L 847.09375 1128.710938 L 860.378906 1106.820312 L 971.003906 1106.820312 L 957.71875 1128.710938 M 768.132812 1128.710938 L 657.507812 1128.710938 L 670.789062 1106.820312 L 781.421875 1106.820312 L 768.132812 1128.710938 M 578.546875 1128.710938 L 467.917969 1128.710938 L 481.203125 1106.820312 L 591.832031 1106.820312 L 578.546875 1128.710938 M 388.960938 1128.710938 L 278.335938 1128.710938 L 291.617188 1106.820312 L 402.246094 1106.820312 L 388.960938 1128.710938 M 199.375 1128.710938 L 128.136719 1128.710938 L 128.136719 1106.820312 L 212.660156 1106.820312 L 199.375 1128.710938 "/>
<path fill-rule="nonzero" fill="rgb(28.637695%, 50.193787%, 55.664062%)" fill-opacity="1" d="M 278.335938 1128.710938 L 199.375 1128.710938 L 212.660156 1106.820312 L 291.617188 1106.820312 L 278.335938 1128.710938 "/>
<path fill-rule="nonzero" fill="rgb(28.637695%, 50.193787%, 55.664062%)" fill-opacity="1" d="M 467.917969 1128.710938 L 388.960938 1128.710938 L 402.246094 1106.820312 L 481.203125 1106.820312 L 467.917969 1128.710938 "/>
<path fill-rule="nonzero" fill="rgb(28.637695%, 50.193787%, 55.664062%)" fill-opacity="1" d="M 657.507812 1128.710938 L 578.546875 1128.710938 L 591.832031 1106.820312 L 670.789062 1106.820312 L 657.507812 1128.710938 "/>
<path fill-rule="nonzero" fill="rgb(28.637695%, 50.193787%, 55.664062%)" fill-opacity="1" d="M 847.09375 1128.710938 L 768.132812 1128.710938 L 781.421875 1106.820312 L 860.378906 1106.820312 L 847.09375 1128.710938 "/>
<path fill-rule="nonzero" fill="rgb(28.637695%, 50.193787%, 55.664062%)" fill-opacity="1" d="M 1036.679688 1128.710938 L 957.71875 1128.710938 L 971.003906 1106.820312 L 1049.960938 1106.820312 L 1036.679688 1128.710938 "/>
<path fill-rule="nonzero" fill="rgb(95.701599%, 66.209412%, 22.75238%)" fill-opacity="1" d="M 1059.761719 1250.109375 L 963.007812 1250.109375 L 967.007812 1243.519531 L 1059.761719 1243.519531 L 1059.761719 1250.109375 M 884.050781 1250.109375 L 773.421875 1250.109375 L 777.421875 1243.519531 L 888.050781 1243.519531 L 884.050781 1250.109375 M 694.464844 1250.109375 L 583.835938 1250.109375 L 587.835938 1243.519531 L 698.464844 1243.519531 L 694.464844 1250.109375 M 504.878906 1250.109375 L 394.25 1250.109375 L 398.25 1243.519531 L 508.878906 1243.519531 L 504.878906 1250.109375 M 315.289062 1250.109375 L 204.660156 1250.109375 L 208.660156 1243.519531 L 319.289062 1243.519531 L 315.289062 1250.109375 M 128.136719 1246.101562 L 128.136719 1243.519531 L 129.703125 1243.519531 L 128.136719 1246.101562 "/>
<path fill-rule="nonzero" fill="rgb(28.637695%, 50.193787%, 55.664062%)" fill-opacity="1" d="M 204.660156 1250.109375 L 128.136719 1250.109375 L 128.136719 1246.101562 L 129.703125 1243.519531 L 208.660156 1243.519531 L 204.660156 1250.109375 "/>
<path fill-rule="nonzero" fill="rgb(28.637695%, 50.193787%, 55.664062%)" fill-opacity="1" d="M 394.25 1250.109375 L 315.289062 1250.109375 L 319.289062 1243.519531 L 398.25 1243.519531 L 394.25 1250.109375 "/>
<path fill-rule="nonzero" fill="rgb(28.637695%, 50.193787%, 55.664062%)" fill-opacity="1" d="M 583.835938 1250.109375 L 504.878906 1250.109375 L 508.878906 1243.519531 L 587.835938 1243.519531 L 583.835938 1250.109375 "/>
<path fill-rule="nonzero" fill="rgb(28.637695%, 50.193787%, 55.664062%)" fill-opacity="1" d="M 773.421875 1250.109375 L 694.464844 1250.109375 L 698.464844 1243.519531 L 777.421875 1243.519531 L 773.421875 1250.109375 "/>
<path fill-rule="nonzero" fill="rgb(28.637695%, 50.193787%, 55.664062%)" fill-opacity="1" d="M 963.007812 1250.109375 L 884.050781 1250.109375 L 888.050781 1243.519531 L 967.007812 1243.519531 L 963.007812 1250.109375 "/>
<path fill-rule="nonzero" fill="rgb(99.609375%, 74.804688%, 29.417419%)" fill-opacity="1" d="M 128.136719 1455.898438 L 1059.761719 1455.898438 L 1059.761719 1312.609375 L 128.136719 1312.609375 Z M 128.136719 1455.898438 "/>
<path fill-rule="nonzero" fill="rgb(2.352905%, 51.367188%, 77.34375%)" fill-opacity="1" d="M 291.617188 1312.609375 L 212.660156 1312.609375 L 128.136719 1451.890625 L 128.136719 1455.898438 L 204.660156 1455.898438 L 291.617188 1312.609375 "/>
<path fill-rule="nonzero" fill="rgb(2.352905%, 51.367188%, 77.34375%)" fill-opacity="1" d="M 315.289062 1455.898438 L 394.25 1455.898438 L 481.203125 1312.609375 L 402.246094 1312.609375 L 315.289062 1455.898438 "/>
<path fill-rule="nonzero" fill="rgb(2.352905%, 51.367188%, 77.34375%)" fill-opacity="1" d="M 504.878906 1455.898438 L 583.835938 1455.898438 L 670.789062 1312.609375 L 591.832031 1312.609375 L 504.878906 1455.898438 "/>
<path fill-rule="nonzero" fill="rgb(2.352905%, 51.367188%, 77.34375%)" fill-opacity="1" d="M 694.464844 1455.898438 L 773.421875 1455.898438 L 860.378906 1312.609375 L 781.421875 1312.609375 L 694.464844 1455.898438 "/>
<path fill-rule="nonzero" fill="rgb(2.352905%, 51.367188%, 77.34375%)" fill-opacity="1" d="M 884.050781 1455.898438 L 963.007812 1455.898438 L 1049.960938 1312.609375 L 971.003906 1312.609375 L 884.050781 1455.898438 "/>
<path fill-rule="nonzero" fill="rgb(95.701599%, 66.209412%, 22.75238%)" fill-opacity="1" d="M 1059.761719 1334.5 L 1036.679688 1334.5 L 1049.960938 1312.609375 L 1059.761719 1312.609375 L 1059.761719 1334.5 M 957.71875 1334.5 L 847.09375 1334.5 L 860.378906 1312.609375 L 971.003906 1312.609375 L 957.71875 1334.5 M 768.132812 1334.5 L 657.507812 1334.5 L 670.789062 1312.609375 L 781.421875 1312.609375 L 768.132812 1334.5 M 578.546875 1334.5 L 467.921875 1334.5 L 481.203125 1312.609375 L 591.832031 1312.609375 L 578.546875 1334.5 M 388.960938 1334.5 L 278.335938 1334.5 L 291.617188 1312.609375 L 402.246094 1312.609375 L 388.960938 1334.5 M 199.375 1334.5 L 128.136719 1334.5 L 128.136719 1312.609375 L 212.660156 1312.609375 L 199.375 1334.5 "/>
<path fill-rule="nonzero" fill="rgb(28.637695%, 50.193787%, 55.664062%)" fill-opacity="1" d="M 278.335938 1334.5 L 199.375 1334.5 L 212.660156 1312.609375 L 291.617188 1312.609375 L 278.335938 1334.5 "/>
<path fill-rule="nonzero" fill="rgb(28.637695%, 50.193787%, 55.664062%)" fill-opacity="1" d="M 467.921875 1334.5 L 388.960938 1334.5 L 402.246094 1312.609375 L 481.203125 1312.609375 L 467.921875 1334.5 "/>
<path fill-rule="nonzero" fill="rgb(28.637695%, 50.193787%, 55.664062%)" fill-opacity="1" d="M 657.507812 1334.5 L 578.546875 1334.5 L 591.832031 1312.609375 L 670.789062 1312.609375 L 657.507812 1334.5 "/>
<path fill-rule="nonzero" fill="rgb(28.637695%, 50.193787%, 55.664062%)" fill-opacity="1" d="M 847.09375 1334.5 L 768.132812 1334.5 L 781.421875 1312.609375 L 860.378906 1312.609375 L 847.09375 1334.5 "/>
<path fill-rule="nonzero" fill="rgb(28.637695%, 50.193787%, 55.664062%)" fill-opacity="1" d="M 1036.679688 1334.5 L 957.71875 1334.5 L 971.003906 1312.609375 L 1049.960938 1312.609375 L 1036.679688 1334.5 "/>
<path fill-rule="nonzero" fill="rgb(95.701599%, 66.209412%, 22.75238%)" fill-opacity="1" d="M 1059.761719 1455.898438 L 963.007812 1455.898438 L 967.007812 1449.308594 L 1059.761719 1449.308594 L 1059.761719 1455.898438 M 884.050781 1455.898438 L 773.421875 1455.898438 L 777.421875 1449.308594 L 888.050781 1449.308594 L 884.050781 1455.898438 M 694.464844 1455.898438 L 583.835938 1455.898438 L 587.835938 1449.308594 L 698.464844 1449.308594 L 694.464844 1455.898438 M 504.878906 1455.898438 L 394.25 1455.898438 L 398.25 1449.308594 L 508.878906 1449.308594 L 504.878906 1455.898438 M 315.289062 1455.898438 L 204.660156 1455.898438 L 208.664062 1449.308594 L 319.289062 1449.308594 L 315.289062 1455.898438 M 128.136719 1451.890625 L 128.136719 1449.308594 L 129.703125 1449.308594 L 128.136719 1451.890625 "/>
<path fill-rule="nonzero" fill="rgb(28.637695%, 50.193787%, 55.664062%)" fill-opacity="1" d="M 204.660156 1455.898438 L 128.136719 1455.898438 L 128.136719 1451.890625 L 129.703125 1449.308594 L 208.664062 1449.308594 L 204.660156 1455.898438 "/>
<path fill-rule="nonzero" fill="rgb(28.637695%, 50.193787%, 55.664062%)" fill-opacity="1" d="M 394.25 1455.898438 L 315.289062 1455.898438 L 319.289062 1449.308594 L 398.25 1449.308594 L 394.25 1455.898438 "/>
<path fill-rule="nonzero" fill="rgb(28.637695%, 50.193787%, 55.664062%)" fill-opacity="1" d="M 583.835938 1455.898438 L 504.878906 1455.898438 L 508.878906 1449.308594 L 587.835938 1449.308594 L 583.835938 1455.898438 "/>
<path fill-rule="nonzero" fill="rgb(28.637695%, 50.193787%, 55.664062%)" fill-opacity="1" d="M 773.421875 1455.898438 L 694.464844 1455.898438 L 698.464844 1449.308594 L 777.421875 1449.308594 L 773.421875 1455.898438 "/>
<path fill-rule="nonzero" fill="rgb(28.637695%, 50.193787%, 55.664062%)" fill-opacity="1" d="M 963.007812 1455.898438 L 884.050781 1455.898438 L 888.050781 1449.308594 L 967.007812 1449.308594 L 963.007812 1455.898438 "/>
<path fill-rule="nonzero" fill="rgb(16.868591%, 77.734375%, 100%)" fill-opacity="1" d="M 852.792969 1652.351562 L 1477.171875 1656.210938 C 1509.621094 1656.410156 1536.089844 1631.140625 1536.289062 1599.769531 L 1543.738281 423.191406 C 1543.941406 390.988281 1517.101562 364.71875 1483.789062 364.519531 L 862.515625 360.671875 C 829.207031 360.46875 802.039062 386.398438 801.835938 418.601562 L 794.390625 1595.179688 C 794.191406 1626.550781 820.339844 1652.148438 852.792969 1652.351562 "/>
<path fill-rule="nonzero" fill="rgb(0%, 27.43988%, 64.256287%)" fill-opacity="1" d="M 858.59375 1640.851562 L 1471.519531 1644.640625 C 1503.460938 1644.839844 1529.511719 1620.089844 1529.699219 1589.371094 L 1537.011719 434.429688 C 1537.210938 402.898438 1510.800781 377.171875 1478.019531 376.960938 L 868.140625 373.191406 C 835.359375 372.988281 808.625 398.390625 808.425781 429.921875 L 801.117188 1584.859375 C 800.925781 1615.578125 826.65625 1640.648438 858.59375 1640.851562 "/>
<path fill-rule="nonzero" fill="rgb(100%, 100%, 100%)" fill-opacity="1" d="M 1241.828125 1582.558594 L 1105.261719 1582.558594 C 1096.921875 1582.558594 1090.160156 1589.109375 1090.160156 1597.179688 C 1090.160156 1605.25 1096.921875 1611.789062 1105.261719 1611.789062 L 1241.828125 1611.789062 C 1250.179688 1611.789062 1256.941406 1605.25 1256.941406 1597.179688 C 1256.941406 1589.109375 1250.179688 1582.558594 1241.828125 1582.558594 "/>
<g clip-path="url(#clip-8)">
<g clip-path="url(#clip-9)">
<g clip-path="url(#clip-10)">
<path fill-rule="nonzero" fill="url(#linear-pattern-3)" d="M 857.875 441.679688 L 1488.125 446.214844 L 1480.246094 1548.382812 L 849.996094 1543.84375 Z M 857.875 441.679688 "/>
</g>
</g>
</g>
<path fill-rule="nonzero" fill="rgb(93.359375%, 93.359375%, 99.609375%)" fill-opacity="1" d="M 901.371094 1540.328125 L 1430.03125 1543.75 C 1454.171875 1543.898438 1473.859375 1525.089844 1474 1501.730469 L 1480.140625 492.230469 C 1480.28125 468.898438 1460.859375 449.871094 1436.75 449.71875 L 908.097656 446.308594 C 883.960938 446.160156 864.269531 464.96875 864.128906 488.320312 L 857.984375 1497.828125 C 857.84375 1521.148438 877.261719 1540.179688 901.371094 1540.328125 "/>
<path fill-rule="nonzero" fill="rgb(75.389099%, 86.71875%, 93.359375%)" fill-opacity="1" d="M 1436.75 449.71875 L 908.097656 446.308594 C 883.960938 446.148438 864.269531 464.96875 864.128906 488.320312 L 863.816406 539.460938 L 1479.828125 543.609375 L 1480.140625 492.230469 C 1480.28125 468.898438 1460.859375 449.871094 1436.75 449.71875 "/>
<path fill-rule="nonzero" fill="rgb(10.984802%, 22.75238%, 45.872498%)" fill-opacity="1" d="M 1004.859375 948.050781 L 1004.859375 902.75 C 1004.859375 890.480469 1005.488281 877.890625 1006.429688 864.671875 L 1005.171875 864.671875 C 998.566406 877.890625 993.214844 889.851562 986.292969 902.75 L 958.921875 947.421875 L 958.921875 948.050781 Z M 1004.859375 1032.679688 L 1004.859375 983.921875 L 914.246094 983.921875 L 914.246094 952.769531 L 991.644531 828.179688 L 1050.171875 828.179688 L 1050.171875 948.050781 L 1074.699219 948.050781 L 1074.699219 983.921875 L 1050.171875 983.921875 L 1050.171875 1032.679688 L 1004.859375 1032.679688 "/>
<path fill-rule="nonzero" fill="rgb(10.984802%, 22.75238%, 45.872498%)" fill-opacity="1" d="M 1139.800781 930.75 C 1139.488281 977.621094 1150.808594 999.960938 1169.378906 999.960938 C 1187.941406 999.960938 1198.011719 976.679688 1198.011719 930.121094 C 1198.011719 884.808594 1188.25 860.898438 1169.058594 860.898438 C 1151.441406 860.898438 1139.488281 883.238281 1139.800781 930.75 Z M 1245.828125 929.488281 C 1245.828125 992.730469 1220.351562 1036.140625 1168.121094 1036.140625 C 1115.261719 1036.140625 1091.980469 988.640625 1091.660156 930.75 C 1091.660156 871.601562 1116.828125 824.71875 1169.691406 824.71875 C 1224.441406 824.71875 1245.828125 873.480469 1245.828125 929.488281 "/>
<path fill-rule="nonzero" fill="rgb(10.984802%, 22.75238%, 45.872498%)" fill-opacity="1" d="M 1354.039062 948.050781 L 1354.039062 902.75 C 1354.039062 890.480469 1354.660156 877.890625 1355.609375 864.671875 L 1354.351562 864.671875 C 1347.738281 877.890625 1342.390625 889.851562 1335.46875 902.75 L 1308.101562 947.421875 L 1308.101562 948.050781 Z M 1354.039062 1032.679688 L 1354.039062 983.921875 L 1263.421875 983.921875 L 1263.421875 952.769531 L 1340.820312 828.179688 L 1399.339844 828.179688 L 1399.339844 948.050781 L 1423.878906 948.050781 L 1423.878906 983.921875 L 1399.339844 983.921875 L 1399.339844 1032.679688 L 1354.039062 1032.679688 "/>
<path fill-rule="nonzero" fill="rgb(10.984802%, 22.75238%, 45.872498%)" fill-opacity="1" d="M 1088.019531 1144.230469 L 1066.808594 1144.230469 L 1066.808594 1163.910156 L 1090.449219 1163.910156 L 1090.449219 1169.820312 L 1059.769531 1169.820312 L 1059.769531 1115.25 L 1089.238281 1115.25 L 1089.238281 1121.160156 L 1066.808594 1121.160156 L 1066.808594 1138.410156 L 1088.019531 1138.410156 L 1088.019531 1144.230469 "/>
<path fill-rule="nonzero" fill="rgb(10.984802%, 22.75238%, 45.872498%)" fill-opacity="1" d="M 1106.660156 1140.839844 L 1113.859375 1140.839844 C 1121.390625 1140.839844 1126.171875 1136.710938 1126.171875 1130.480469 C 1126.171875 1123.429688 1121.070312 1120.359375 1113.621094 1120.269531 C 1110.21875 1120.269531 1107.789062 1120.589844 1106.660156 1120.921875 Z M 1099.621094 1115.980469 C 1103.179688 1115.25 1108.28125 1114.851562 1113.128906 1114.851562 C 1120.660156 1114.851562 1125.519531 1116.230469 1128.921875 1119.300781 C 1131.679688 1121.730469 1133.210938 1125.449219 1133.210938 1129.660156 C 1133.210938 1136.871094 1128.679688 1141.648438 1122.929688 1143.589844 L 1122.929688 1143.828125 C 1127.140625 1145.289062 1129.648438 1149.171875 1130.949219 1154.839844 C 1132.730469 1162.449219 1134.019531 1167.710938 1135.160156 1169.820312 L 1127.871094 1169.820312 C 1126.980469 1168.28125 1125.769531 1163.589844 1124.230469 1156.78125 C 1122.609375 1149.261719 1119.691406 1146.421875 1113.300781 1146.179688 L 1106.660156 1146.179688 L 1106.660156 1169.820312 L 1099.621094 1169.820312 L 1099.621094 1115.980469 "/>
<path fill-rule="nonzero" fill="rgb(10.984802%, 22.75238%, 45.872498%)" fill-opacity="1" d="M 1150.238281 1140.839844 L 1157.441406 1140.839844 C 1164.96875 1140.839844 1169.75 1136.710938 1169.75 1130.480469 C 1169.75 1123.429688 1164.648438 1120.359375 1157.199219 1120.269531 C 1153.800781 1120.269531 1151.371094 1120.589844 1150.238281 1120.921875 Z M 1143.191406 1115.980469 C 1146.761719 1115.25 1151.859375 1114.851562 1156.710938 1114.851562 C 1164.238281 1114.851562 1169.101562 1116.230469 1172.5 1119.300781 C 1175.25 1121.730469 1176.789062 1125.449219 1176.789062 1129.660156 C 1176.789062 1136.871094 1172.261719 1141.648438 1166.511719 1143.589844 L 1166.511719 1143.828125 C 1170.71875 1145.289062 1173.230469 1149.171875 1174.53125 1154.839844 C 1176.308594 1162.449219 1177.601562 1167.710938 1178.738281 1169.820312 L 1171.449219 1169.820312 C 1170.558594 1168.28125 1169.339844 1163.589844 1167.800781 1156.78125 C 1166.191406 1149.261719 1163.269531 1146.421875 1156.878906 1146.179688 L 1150.238281 1146.179688 L 1150.238281 1169.820312 L 1143.191406 1169.820312 L 1143.191406 1115.980469 "/>
<path fill-rule="nonzero" fill="rgb(10.984802%, 22.75238%, 45.872498%)" fill-opacity="1" d="M 1191.300781 1142.859375 C 1191.300781 1154.519531 1197.621094 1164.960938 1208.710938 1164.960938 C 1219.878906 1164.960938 1226.199219 1154.679688 1226.199219 1142.289062 C 1226.199219 1131.441406 1220.53125 1120.109375 1208.789062 1120.109375 C 1197.128906 1120.109375 1191.300781 1130.878906 1191.300781 1142.859375 Z M 1233.648438 1141.96875 C 1233.648438 1160.75 1222.230469 1170.710938 1208.300781 1170.710938 C 1193.890625 1170.710938 1183.769531 1159.539062 1183.769531 1143.019531 C 1183.769531 1125.699219 1194.539062 1114.359375 1209.109375 1114.359375 C 1224.011719 1114.359375 1233.648438 1125.78125 1233.648438 1141.96875 "/>
<path fill-rule="nonzero" fill="rgb(10.984802%, 22.75238%, 45.872498%)" fill-opacity="1" d="M 1249.859375 1140.839844 L 1257.070312 1140.839844 C 1264.601562 1140.839844 1269.371094 1136.710938 1269.371094 1130.480469 C 1269.371094 1123.429688 1264.269531 1120.359375 1256.820312 1120.269531 C 1253.421875 1120.269531 1250.988281 1120.589844 1249.859375 1120.921875 Z M 1242.820312 1115.980469 C 1246.378906 1115.25 1251.480469 1114.851562 1256.339844 1114.851562 C 1263.871094 1114.851562 1268.730469 1116.230469 1272.128906 1119.300781 C 1274.878906 1121.730469 1276.421875 1125.449219 1276.421875 1129.660156 C 1276.421875 1136.871094 1271.878906 1141.648438 1266.140625 1143.589844 L 1266.140625 1143.828125 C 1270.339844 1145.289062 1272.851562 1149.171875 1274.148438 1154.839844 C 1275.929688 1162.449219 1277.230469 1167.710938 1278.359375 1169.820312 L 1271.070312 1169.820312 C 1270.179688 1168.28125 1268.96875 1163.589844 1267.429688 1156.78125 C 1265.808594 1149.261719 1262.898438 1146.421875 1256.5 1146.179688 L 1249.859375 1146.179688 L 1249.859375 1169.820312 L 1242.820312 1169.820312 L 1242.820312 1115.980469 "/>
<path fill-rule="nonzero" fill="rgb(91.014099%, 71.679688%, 58.396912%)" fill-opacity="1" d="M 1626.328125 1399.699219 C 1626.328125 1399.699219 1635.648438 1576.589844 1641.859375 1614.488281 C 1641.859375 1614.488281 1638.128906 1624.519531 1616.179688 1630.929688 C 1594.230469 1637.351562 1581.390625 1643.769531 1590.089844 1654.199219 C 1590.089844 1654.199219 1672.929688 1656.199219 1679.550781 1651.390625 C 1686.179688 1646.578125 1683.691406 1638.960938 1674.171875 1620.910156 C 1674.171875 1620.910156 1687.839844 1417.550781 1679.96875 1399.699219 L 1626.328125 1399.699219 "/>
<path fill-rule="nonzero" fill="rgb(91.014099%, 71.679688%, 58.396912%)" fill-opacity="1" d="M 1694.460938 1399.699219 C 1694.460938 1399.699219 1695.710938 1451.640625 1711.859375 1487.339844 C 1728.011719 1523.039062 1758.660156 1594.839844 1758.660156 1606.46875 C 1758.660156 1618.101562 1758.660156 1635.351562 1758.660156 1635.351562 C 1758.660156 1635.351562 1776.890625 1647.378906 1786.410156 1626.921875 C 1786.410156 1626.921875 1782.269531 1596.039062 1778.539062 1571.96875 C 1774.820312 1547.910156 1760.320312 1474.101562 1754.941406 1451.238281 C 1749.550781 1428.378906 1748.308594 1399.699219 1748.308594 1399.699219 L 1694.460938 1399.699219 "/>
<path fill-rule="nonzero" fill="rgb(0.392151%, 8.227539%, 24.31488%)" fill-opacity="1" d="M 1614.320312 1631.488281 C 1593.53125 1637.730469 1581.640625 1644.070312 1590.089844 1654.199219 C 1590.089844 1654.199219 1672.929688 1656.199219 1679.550781 1651.390625 C 1685.710938 1646.921875 1683.988281 1640.011719 1676.078125 1624.589844 C 1676.058594 1624.601562 1634.410156 1643.269531 1614.320312 1631.488281 "/>
<path fill-rule="nonzero" fill="rgb(0.392151%, 8.227539%, 24.31488%)" fill-opacity="1" d="M 1758.660156 1635.351562 C 1758.660156 1635.351562 1746.238281 1646.078125 1752.761719 1657.511719 C 1759.289062 1668.941406 1789.421875 1660.738281 1793.140625 1654.609375 C 1796.871094 1648.480469 1786.410156 1626.921875 1786.410156 1626.921875 L 1758.660156 1635.351562 "/>
<path fill-rule="nonzero" fill="rgb(10.984802%, 9.008789%, 8.227539%)" fill-opacity="1" d="M 1704.351562 860.410156 C 1704.351562 860.410156 1719.738281 852.441406 1731.46875 883.511719 C 1743.210938 914.589844 1743.808594 963.019531 1739.578125 979.519531 C 1739.578125 979.519531 1773.640625 1016.191406 1745.808594 1040.148438 C 1745.808594 1040.148438 1707.460938 1080.488281 1704.929688 1090.878906 C 1703.941406 1088.441406 1687.480469 1058.808594 1660.820312 1057.160156 C 1634.148438 1055.511719 1568.421875 986.46875 1603.480469 975.75 C 1603.480469 975.75 1600.859375 986.910156 1612.820312 984.230469 C 1624.78125 981.539062 1617.25 940.371094 1617.371094 925.808594 C 1617.488281 911.238281 1626.261719 875.351562 1651.761719 860.128906 C 1677.269531 844.898438 1706.628906 845.96875 1704.351562 860.410156 "/>
<path fill-rule="nonzero" fill="rgb(92.1875%, 66.209412%, 47.851562%)" fill-opacity="1" d="M 1660.820312 956.238281 C 1660.820312 956.238281 1655.308594 976.761719 1651.691406 979.5 C 1651.691406 979.5 1648.058594 988.960938 1658.75 1015.710938 C 1669.449219 1042.449219 1696.519531 1027.519531 1700.859375 1020.21875 C 1705.191406 1012.921875 1714.75 998.949219 1706.019531 985.058594 C 1706.019531 985.058594 1694.070312 976.378906 1700.320312 957.53125 C 1700.320312 957.53125 1662.710938 949.949219 1660.820312 956.238281 "/>
<path fill-rule="nonzero" fill="rgb(99.21875%, 77.34375%, 58.789062%)" fill-opacity="1" d="M 1704.980469 958 C 1704.980469 958 1686.859375 972.058594 1672.039062 966.640625 C 1657.21875 961.210938 1644.089844 946.878906 1640.03125 932.53125 C 1635.96875 918.191406 1642.558594 889.398438 1652.53125 879.160156 C 1662.5 868.921875 1699.539062 862.191406 1709.941406 875.53125 C 1720.351562 888.871094 1724.390625 942.679688 1704.980469 958 "/>
<path fill-rule="nonzero" fill="rgb(74.804688%, 0.784302%, 48.631287%)" fill-opacity="1" d="M 1738.398438 1211.871094 C 1738.398438 1211.871094 1777.820312 1233.089844 1779.988281 1243.789062 L 1736.539062 1229.890625 L 1738.398438 1211.871094 "/>
<path fill-rule="nonzero" fill="rgb(19.213867%, 26.660156%, 32.151794%)" fill-opacity="1" d="M 1622.449219 1223.429688 C 1622.449219 1223.429688 1606.609375 1338.980469 1621.980469 1412.621094 C 1621.980469 1412.621094 1733.390625 1421.421875 1754.320312 1409.710938 C 1754.320312 1409.710938 1761.308594 1282.921875 1752.671875 1224.089844 L 1622.449219 1223.429688 "/>
<path fill-rule="nonzero" fill="rgb(8.227539%, 18.821716%, 27.830505%)" fill-opacity="1" d="M 1754.320312 1409.710938 C 1754.320312 1409.710938 1754.128906 1398.769531 1755.328125 1387.769531 C 1745.941406 1392.648438 1725.121094 1405.480469 1693.371094 1400.359375 C 1650.238281 1393.410156 1640.328125 1303.808594 1645.398438 1261.679688 C 1647.300781 1245.929688 1652.609375 1231.730469 1658.519531 1220.121094 L 1622.441406 1223.429688 C 1622.441406 1223.429688 1606.609375 1338.96875 1621.980469 1412.609375 C 1621.980469 1412.609375 1733.390625 1421.421875 1754.320312 1409.710938 "/>
<path fill-rule="nonzero" fill="rgb(96.484375%, 96.484375%, 96.484375%)" fill-opacity="1" d="M 1699.929688 978.179688 C 1699.929688 978.179688 1667.519531 992.378906 1651.828125 976.191406 C 1651.828125 976.191406 1583.878906 1044.261719 1622.449219 1222.808594 C 1622.449219 1222.808594 1752.03125 1229.488281 1754.601562 1229.941406 C 1757.160156 1230.390625 1745.289062 1191.21875 1730.140625 1180.359375 C 1715.089844 1169.570312 1628.121094 1119.46875 1700.269531 981.039062 C 1700.761719 980.101562 1700.679688 979.558594 1699.929688 978.179688 "/>
<path fill-rule="nonzero" fill="rgb(86.326599%, 88.671875%, 91.796875%)" fill-opacity="1" d="M 1712.101562 1227.410156 C 1609.539062 1204.128906 1641.238281 1099.25 1637.738281 1078.230469 C 1634.820312 1060.75 1663.78125 1002.921875 1673.621094 983.929688 C 1665.730469 984 1657.628906 982.179688 1651.828125 976.191406 C 1651.828125 976.191406 1583.878906 1044.261719 1622.441406 1222.808594 C 1622.441406 1222.808594 1673.941406 1225.460938 1712.648438 1227.539062 C 1712.460938 1227.5 1712.289062 1227.449219 1712.101562 1227.410156 "/>
<path fill-rule="nonzero" fill="rgb(34.104919%, 41.967773%, 48.631287%)" fill-opacity="1" d="M 1700.890625 977.789062 C 1700.890625 977.789062 1709.398438 978.671875 1721.078125 982.191406 C 1725.769531 983.621094 1757.488281 995.199219 1755.328125 1045.628906 C 1752.988281 1100.078125 1748.039062 1145.980469 1755.878906 1164.679688 C 1763.710938 1183.390625 1781.578125 1214.480469 1782.550781 1248.019531 C 1742.121094 1215.429688 1693.25 1180.421875 1666.480469 1124.171875 C 1629.269531 1045.960938 1700.890625 977.789062 1700.890625 977.789062 "/>
<path fill-rule="nonzero" fill="rgb(20.384216%, 27.050781%, 36.473083%)" fill-opacity="1" d="M 1730.019531 986.398438 C 1740.859375 993.140625 1756.878906 1009.300781 1755.328125 1045.628906 C 1752.988281 1100.078125 1748.039062 1145.980469 1755.878906 1164.679688 C 1763.710938 1183.390625 1781.578125 1214.480469 1782.550781 1248.019531 C 1782.550781 1248.019531 1765.050781 1192.050781 1736.539062 1162.769531 C 1736.539062 1162.769531 1759.429688 1045.019531 1730.019531 986.398438 "/>
<path fill-rule="nonzero" fill="rgb(98.826599%, 77.34375%, 58.789062%)" fill-opacity="1" d="M 1812.128906 1222.679688 C 1812.128906 1222.679688 1817.28125 1229.140625 1816 1233.128906 C 1814.828125 1236.710938 1815.308594 1235.46875 1814.710938 1236.980469 C 1814.5 1237.5 1814.171875 1238.539062 1814.171875 1238.539062 C 1814.171875 1238.539062 1810.949219 1248.328125 1813.390625 1250.449219 C 1815.820312 1252.570312 1818.410156 1251.058594 1819.109375 1245.640625 C 1819.808594 1240.21875 1828.640625 1239.75 1829.808594 1248.390625 C 1830.980469 1257.019531 1835.28125 1266.421875 1838.058594 1263.910156 C 1840.828125 1261.410156 1838.519531 1254.410156 1838.519531 1254.410156 C 1838.519531 1254.410156 1838.898438 1254.269531 1839.371094 1256.078125 C 1839.839844 1257.898438 1839.058594 1262.800781 1840.328125 1262.171875 C 1841.601562 1261.539062 1850.109375 1258 1849.839844 1246.199219 C 1849.570312 1234.398438 1842.78125 1229.660156 1840.308594 1227.371094 C 1837.839844 1225.078125 1831.300781 1215.25 1831.21875 1211.378906 C 1831.21875 1211.378906 1811.390625 1216.070312 1812.128906 1222.679688 "/>
<path fill-rule="nonzero" fill="rgb(34.104919%, 41.967773%, 48.631287%)" fill-opacity="1" d="M 1727.039062 991.789062 C 1727.039062 991.789062 1714.429688 1030.058594 1733.691406 1064.121094 C 1752.960938 1098.179688 1774.21875 1163.96875 1786.648438 1184.570312 C 1799.078125 1205.160156 1811.921875 1227.859375 1811.921875 1227.859375 L 1836.390625 1219.71875 C 1836.390625 1219.71875 1806.871094 1138.011719 1794.238281 1120.699219 C 1794.238281 1120.699219 1768.378906 986.570312 1727.039062 991.789062 "/>
<path fill-rule="nonzero" fill="rgb(61.131287%, 83.984375%, 88.671875%)" fill-opacity="1" d="M 1704.230469 977.761719 L 1675.488281 1001.519531 L 1670.898438 984.601562 L 1693.949219 978.101562 L 1704.230469 977.761719 "/>
<path fill-rule="nonzero" fill="rgb(61.131287%, 83.984375%, 88.671875%)" fill-opacity="1" d="M 1652.941406 976.191406 L 1669.800781 983.921875 L 1653.859375 1002.261719 C 1653.859375 1002.261719 1646.121094 983.5 1652.941406 976.191406 "/>
<path fill-rule="nonzero" fill="rgb(11.767578%, 16.868591%, 35.693359%)" fill-opacity="1" d="M 1459.589844 1096.050781 L 1488.511719 1086.058594 C 1490.398438 1085.398438 1492.480469 1086.320312 1493.269531 1088.160156 L 1528.859375 1171.308594 C 1529.878906 1173.699219 1528.269531 1176.390625 1525.691406 1176.621094 L 1492.691406 1179.519531 C 1491.03125 1179.671875 1489.46875 1178.71875 1488.828125 1177.179688 L 1457.308594 1101.121094 C 1456.46875 1099.078125 1457.511719 1096.761719 1459.589844 1096.050781 "/>
<path fill-rule="nonzero" fill="rgb(99.21875%, 77.34375%, 58.789062%)" fill-opacity="1" d="M 1481.019531 1114.851562 C 1482.910156 1113.109375 1485.96875 1114.269531 1486.199219 1116.828125 C 1486.390625 1118.910156 1486.109375 1121.488281 1484.648438 1124.289062 C 1481.039062 1131.179688 1480.710938 1139.058594 1482.351562 1139.058594 C 1483.988281 1139.058594 1488.589844 1124.289062 1494.171875 1125.441406 C 1499.75 1126.589844 1488.261719 1143.980469 1489.898438 1146.28125 C 1491.539062 1148.578125 1497.78125 1134.140625 1500.730469 1136.761719 C 1503.691406 1139.390625 1493.839844 1154.488281 1494.820312 1156.460938 C 1495.808594 1158.429688 1502.371094 1150.21875 1503.03125 1153.179688 C 1503.691406 1156.128906 1502.078125 1162.039062 1492.21875 1168.28125 C 1492.21875 1168.28125 1477.429688 1178.78125 1470.199219 1170.898438 C 1463.359375 1163.429688 1460.351562 1133.851562 1481.019531 1114.851562 "/>
<path fill-rule="nonzero" fill="rgb(25.097656%, 31.762695%, 39.988708%)" fill-opacity="1" d="M 1550.960938 1114.019531 C 1539.800781 1135.261719 1512.328125 1132.691406 1512.328125 1132.691406 L 1525.789062 1164.148438 C 1564.96875 1177.75 1589.691406 1143.929688 1589.691406 1143.929688 C 1615.300781 1118.921875 1624.488281 983.789062 1624.488281 983.789062 C 1583.789062 994.949219 1562.121094 1092.769531 1550.960938 1114.019531 "/>
<path fill-rule="nonzero" fill="rgb(34.104919%, 41.967773%, 48.631287%)" fill-opacity="1" d="M 1599.628906 1030.648438 C 1599.628906 1030.648438 1601.671875 1017.671875 1606.058594 1000.589844 C 1607.320312 995.679688 1610.601562 989.839844 1615.140625 987.039062 C 1624.980469 980.96875 1640.769531 977.949219 1652.941406 976.191406 C 1652.941406 976.191406 1619.140625 1104.949219 1621.449219 1203.050781 C 1623.101562 1211.679688 1623.808594 1219.148438 1622.449219 1222.808594 C 1622.449219 1222.808594 1614.390625 1225.980469 1600.578125 1235.230469 C 1587.898438 1243.730469 1605.5 1171.019531 1608.480469 1158.988281 C 1600.300781 1112.199219 1594.839844 1079.320312 1599.628906 1030.648438 "/>
<path fill-rule="nonzero" fill="rgb(26.660156%, 16.868591%, 9.812927%)" fill-opacity="1" d="M 1725.570312 1004.039062 C 1725.570312 1004.039062 1740.441406 1009.800781 1748.878906 998.320312 C 1757.328125 986.851562 1743.160156 979.960938 1743.160156 979.960938 C 1743.160156 979.960938 1752.371094 991.558594 1738.941406 993.019531 C 1725.5 994.46875 1725.410156 971.910156 1730.128906 959.460938 C 1743.761719 923.519531 1735.871094 899.878906 1729.558594 887 C 1723.25 874.128906 1712.03125 864.691406 1712.03125 864.691406 L 1704.351562 860.410156 L 1699.019531 873.460938 C 1699.019531 873.460938 1708.691406 888.238281 1713.589844 901.878906 C 1718.488281 915.511719 1720.578125 933.019531 1709.101562 955.601562 C 1697.628906 978.171875 1694.75 1000.351562 1725.570312 1004.039062 "/>
<path fill-rule="nonzero" fill="rgb(31.762695%, 21.972656%, 14.892578%)" fill-opacity="1" d="M 1699.019531 873.460938 L 1704.351562 860.410156 C 1704.351562 860.410156 1719.738281 852.441406 1731.46875 883.511719 C 1735.5 894.191406 1737.609375 907 1738.46875 919.878906 C 1733.199219 939.199219 1718.28125 961.46875 1710.148438 980.390625 C 1699.898438 1004.269531 1731.28125 997.890625 1731.28125 997.890625 C 1731.28125 997.890625 1720.828125 1015.589844 1705.101562 1001.949219 C 1687.808594 986.960938 1702.890625 962.230469 1709.488281 949.28125 C 1716.078125 936.328125 1714.980469 911.789062 1708.648438 897.839844 C 1702.320312 883.890625 1699.019531 873.460938 1699.019531 873.460938 "/>
<path fill-rule="nonzero" fill="rgb(26.660156%, 16.868591%, 9.812927%)" fill-opacity="1" d="M 1699.019531 873.460938 C 1699.019531 873.460938 1663.890625 864.148438 1646.25 906.679688 C 1628.609375 949.210938 1653.929688 968.800781 1649.480469 981.910156 C 1645.03125 995.019531 1633.070312 996.910156 1622.789062 983.421875 C 1622.789062 983.421875 1635.421875 991.558594 1637.300781 982.359375 C 1639.179688 973.171875 1618.199219 959.710938 1620.109375 924.628906 C 1620.78125 912.308594 1622.78125 901.710938 1625.078125 893.128906 C 1630.480469 880.460938 1639.039062 867.71875 1651.761719 860.128906 C 1677.269531 844.898438 1706.628906 845.96875 1704.351562 860.410156 L 1699.019531 873.460938 "/>
<path fill-rule="nonzero" fill="rgb(10.984802%, 22.75238%, 45.872498%)" fill-opacity="1" d="M 871.664062 1617.789062 L 697.550781 1335.160156 C 692.929688 1327.660156 684.910156 1323.179688 676.097656 1323.179688 C 667.285156 1323.179688 659.265625 1327.660156 654.644531 1335.160156 L 480.527344 1617.789062 C 475.742188 1625.558594 475.53125 1635.328125 479.980469 1643.300781 C 484.429688 1651.261719 492.859375 1656.210938 501.984375 1656.210938 L 850.207031 1656.210938 C 859.335938 1656.210938 867.765625 1651.261719 872.214844 1643.289062 C 876.660156 1635.328125 876.449219 1625.550781 871.664062 1617.789062 "/>
<path fill-rule="nonzero" fill="rgb(100%, 74.021912%, 29.026794%)" fill-opacity="1" d="M 671.027344 1348.609375 L 501.039062 1624.539062 C 498.59375 1628.511719 501.449219 1633.621094 506.109375 1633.621094 L 846.085938 1633.621094 C 850.746094 1633.621094 853.601562 1628.511719 851.15625 1624.539062 L 681.167969 1348.609375 C 678.839844 1344.828125 673.351562 1344.828125 671.027344 1348.609375 "/>
<path fill-rule="nonzero" fill="rgb(10.984802%, 22.75238%, 45.872498%)" fill-opacity="1" d="M 676.859375 1564.71875 L 674.570312 1564.71875 L 662.617188 1469.640625 C 661.597656 1461.839844 661.089844 1455.808594 661.089844 1451.570312 C 661.089844 1445.96875 662.488281 1441.601562 665.289062 1438.460938 C 668.085938 1435.320312 671.941406 1433.75 676.859375 1433.75 C 681.519531 1433.75 685.230469 1435.269531 687.984375 1438.328125 C 690.742188 1441.378906 692.121094 1445.578125 692.121094 1450.929688 C 692.121094 1454.660156 691.613281 1460.058594 690.59375 1467.089844 Z M 675.460938 1580.488281 C 679.699219 1580.488281 683.320312 1582 686.332031 1585.011719 C 689.34375 1588.019531 690.847656 1591.691406 690.847656 1596.011719 C 690.847656 1600.25 689.34375 1603.878906 686.332031 1606.878906 C 683.320312 1609.890625 679.699219 1611.398438 675.460938 1611.398438 C 671.222656 1611.398438 667.597656 1609.890625 664.585938 1606.878906 C 661.578125 1603.878906 660.070312 1600.25 660.070312 1596.011719 C 660.070312 1591.691406 661.578125 1588.019531 664.585938 1585.011719 C 667.597656 1582 671.222656 1580.488281 675.460938 1580.488281 "/>
</svg>
