<?xml version="1.0" standalone="no"?>
<!DOCTYPE svg PUBLIC "-//W3C//DTD SVG 20010904//EN"
 "http://www.w3.org/TR/2001/REC-SVG-20010904/DTD/svg10.dtd">
<svg version="1.0" xmlns="http://www.w3.org/2000/svg"
 width="358.000000pt" height="184.000000pt" viewBox="0 0 358.000000 184.000000"
 preserveAspectRatio="xMidYMid meet">

<g transform="translate(0.000000,184.000000) scale(0.100000,-0.100000)"
fill="#000000" stroke="none">
<path d="M1970 1586 c0 -21 5 -26 25 -26 32 0 93 -25 118 -48 11 -9 28 -34 38
-54 18 -35 19 -65 19 -488 l0 -450 25 0 25 0 0 443 c0 374 -2 451 -15 489 -27
78 -105 140 -194 154 -39 6 -41 5 -41 -20z"/>
<path d="M270 1447 c0 -7 7 -36 15 -64 23 -77 64 -126 136 -162 l62 -31 618 0
617 0 31 -26 c17 -14 31 -30 31 -35 0 -5 -252 -9 -615 -9 l-615 0 0 -33 c0
-44 44 -130 83 -163 18 -15 52 -37 77 -48 43 -20 64 -21 583 -26 l539 -5 20
-25 20 -25 -526 -3 -526 -2 0 -23 c0 -39 29 -111 59 -148 16 -19 53 -48 82
-64 l54 -30 558 -3 558 -3 -3 353 c-3 347 -3 354 -27 405 -27 61 -93 126 -159
156 -47 22 -51 22 -859 25 -678 2 -813 0 -813 -11z"/>
<path d="M2260 960 l0 -440 74 0 c94 0 104 9 104 89 0 74 26 135 77 180 52 45
93 61 163 61 140 0 242 -107 242 -254 0 -29 5 -57 12 -64 8 -8 47 -12 109 -12
103 0 140 14 152 60 5 18 0 20 -41 20 -26 0 -58 4 -72 8 -18 5 -7 8 45 12 l70
5 0 155 0 155 -148 7 c-161 7 -209 18 -81 18 118 0 217 11 205 23 -5 5 -112
12 -243 16 -239 6 -227 17 21 20 63 0 112 3 110 6 -3 2 -63 11 -133 19 -71 9
-130 17 -131 18 -2 2 -28 49 -60 105 -71 128 -88 143 -169 144 -33 0 -81 4
-106 8 l-45 8 50 2 c81 2 88 16 25 45 -46 21 -70 26 -142 26 l-88 0 0 -440z
m329 310 c18 -9 121 -180 121 -200 0 -7 -65 -10 -192 -8 l-193 3 -3 108 -3
107 126 0 c70 0 134 -4 144 -10z"/>
<path d="M2592 779 c-75 -37 -115 -124 -98 -214 10 -51 79 -120 136 -135 78
-22 172 16 207 83 26 51 33 98 22 142 -32 119 -158 178 -267 124z m123 -84
c60 -29 73 -99 26 -146 -48 -48 -116 -38 -147 22 -26 51 5 118 61 132 11 3 22
5 23 6 2 0 19 -6 37 -14z"/>
<path d="M1157 344 c-10 -10 -9 -42 2 -48 18 -11 42 6 39 28 -3 21 -28 33 -41
20z"/>
<path d="M1647 344 c-13 -13 -7 -42 10 -48 21 -8 36 6 31 30 -3 19 -29 30 -41
18z"/>
<path d="M2190 330 c0 -11 4 -20 10 -20 5 0 11 -47 12 -107 l3 -108 59 -2 c52
-2 61 1 87 27 40 39 39 82 -1 122 -26 26 -36 30 -65 25 l-35 -6 0 45 c0 44 0
44 -35 44 -28 0 -35 -4 -35 -20z m134 -116 c9 -8 16 -24 16 -34 0 -17 -24 -50
-36 -50 -3 0 -14 5 -25 10 -25 14 -26 65 -1 79 23 14 28 14 46 -5z"/>
<path d="M2410 330 c0 -11 7 -20 15 -20 12 0 15 -16 15 -85 0 -71 -3 -85 -16
-85 -10 0 -14 -7 -12 -22 3 -20 10 -23 51 -26 45 -3 47 -2 47 22 0 15 -4 26
-10 26 -6 0 -10 42 -10 105 l0 105 -40 0 c-33 0 -40 -3 -40 -20z"/>
<path d="M880 320 c0 -11 5 -20 10 -20 6 0 10 -33 10 -80 0 -47 -4 -80 -10
-80 -5 0 -10 -12 -10 -26 l0 -27 66 6 c77 6 110 25 138 81 16 32 17 44 7 76
-6 21 -25 50 -42 64 -26 22 -40 26 -100 26 -62 0 -69 -2 -69 -20z m139 -46
c23 -30 27 -64 10 -97 -15 -28 -28 -37 -56 -37 -22 0 -23 4 -23 80 0 78 1 80
24 80 15 0 33 -11 45 -26z"/>
<path d="M1356 263 c-3 -4 -27 -6 -51 -4 -39 2 -45 -1 -45 -19 0 -11 5 -20 10
-20 12 0 13 -77 1 -82 -5 -1 -11 -12 -13 -23 -3 -18 3 -20 50 -23 50 -3 52 -2
52 22 0 17 -6 26 -16 26 -12 0 -14 9 -12 38 3 34 6 37 33 37 30 0 30 0 33 -63
l3 -62 34 0 c31 0 35 3 35 25 0 14 -5 25 -11 25 -6 0 -9 16 -7 38 3 32 7 37
30 40 27 3 27 2 30 -60 l3 -63 38 -3 c34 -3 37 -1 37 22 0 14 -4 26 -9 26 -4
0 -11 20 -14 45 -8 74 -54 106 -102 71 -17 -12 -22 -12 -39 0 -22 15 -58 19
-70 7z"/>
<path d="M1857 263 c-4 -3 -29 -5 -57 -4 -44 1 -50 -1 -50 -19 0 -11 5 -20 10
-20 6 0 10 -18 10 -40 0 -22 -4 -40 -10 -40 -5 0 -10 -11 -10 -25 0 -23 3 -25
50 -25 47 0 50 2 50 25 0 16 -6 25 -16 25 -12 0 -14 9 -12 38 3 34 6 37 33 37
30 0 30 0 33 -63 l3 -63 37 3 c31 2 36 6 34 23 -2 11 -8 22 -13 23 -5 2 -9 24
-9 48 0 31 -6 50 -20 64 -20 20 -50 26 -63 13z"/>
<path d="M2019 241 c-60 -60 -20 -151 67 -151 37 0 84 51 84 90 0 43 -47 90
-90 90 -22 0 -41 -9 -61 -29z m82 -21 c26 -15 26 -66 -1 -80 -14 -8 -26 -8
-40 0 -26 14 -27 65 -2 79 21 13 20 13 43 1z"/>
<path d="M2566 239 c-35 -41 -34 -83 3 -120 33 -32 83 -39 116 -16 28 21 10
39 -31 31 -33 -6 -64 7 -64 27 0 5 29 9 64 9 l63 0 -5 28 c-13 74 -98 99 -146
41z m92 -26 c2 -9 -8 -13 -32 -13 -34 0 -44 8 -29 24 11 11 56 2 61 -11z"/>
<path d="M1120 240 c0 -11 7 -20 15 -20 11 0 15 -11 15 -40 0 -30 -4 -40 -16
-40 -10 0 -14 -7 -12 -22 3 -20 10 -23 51 -26 45 -3 47 -2 47 22 0 15 -4 26
-10 26 -6 0 -10 27 -10 60 l0 60 -40 0 c-33 0 -40 -3 -40 -20z"/>
<path d="M1610 245 c0 -9 7 -18 15 -21 21 -8 20 -73 -2 -89 -30 -22 -9 -45 42
-45 41 0 45 2 45 25 0 14 -4 25 -10 25 -6 0 -10 27 -10 60 l0 60 -40 0 c-29 0
-40 -4 -40 -15z"/>
</g>
</svg>
