<?xml version="1.0" standalone="no"?>
<!DOCTYPE svg PUBLIC "-//W3C//DTD SVG 20010904//EN"
 "http://www.w3.org/TR/2001/REC-SVG-20010904/DTD/svg10.dtd">
<svg version="1.0" xmlns="http://www.w3.org/2000/svg"
 width="399.000000pt" height="205.000000pt" viewBox="0 0 399.000000 205.000000"
 preserveAspectRatio="xMidYMid meet">

<g transform="translate(0.000000,205.000000) scale(0.100000,-0.100000)"
fill="#000000" stroke="none">
<path d="M1284 375 c-9 -23 3 -45 26 -45 25 0 37 25 20 45 -16 19 -39 19 -46
0z"/>
<path d="M1834 375 c-9 -23 3 -45 26 -45 25 0 37 25 20 45 -16 19 -39 19 -46
0z"/>
<path d="M2440 365 c0 -16 6 -25 15 -25 12 0 15 -20 15 -120 l0 -120 72 3 c63
3 74 7 95 31 35 41 32 99 -7 138 -27 27 -36 30 -70 25 l-40 -5 0 49 0 49 -40
0 c-36 0 -40 -2 -40 -25z m154 -131 c30 -30 9 -84 -33 -84 -25 0 -41 20 -41
50 0 47 42 66 74 34z"/>
<path d="M2690 365 c0 -16 6 -25 15 -25 12 0 15 -17 15 -95 0 -78 -3 -95 -15
-95 -9 0 -15 -9 -15 -25 0 -24 3 -25 55 -25 52 0 55 1 55 25 0 16 -6 25 -15
25 -12 0 -15 20 -15 120 l0 120 -40 0 c-36 0 -40 -2 -40 -25z"/>
<path d="M980 360 c0 -11 5 -20 10 -20 6 0 10 -38 10 -95 0 -57 -4 -95 -10
-95 -5 0 -10 -12 -10 -26 l0 -27 76 6 c44 3 86 12 100 22 61 40 82 130 44 192
-28 46 -67 63 -150 63 -63 0 -70 -2 -70 -20z m158 -56 c32 -37 30 -88 -7 -125
-16 -16 -39 -29 -50 -29 -20 0 -21 6 -21 88 0 49 3 92 7 95 11 12 47 -3 71
-29z"/>
<path d="M1512 291 c-7 -4 -35 -6 -63 -3 -44 4 -49 3 -49 -16 0 -11 7 -22 15
-26 21 -8 21 -96 0 -96 -9 0 -15 -9 -15 -25 0 -25 2 -26 58 -23 49 3 57 6 60
24 2 15 -4 23 -18 27 -18 5 -21 12 -18 43 4 44 28 65 56 48 13 -8 18 -27 20
-78 l3 -66 39 0 c35 0 40 3 40 24 0 13 -6 26 -13 29 -21 8 -7 91 16 95 34 7
47 -17 47 -84 l0 -64 40 0 c36 0 40 3 40 25 0 14 -4 25 -9 25 -4 0 -11 26 -14
58 -9 83 -50 112 -115 78 -24 -12 -30 -12 -47 0 -21 16 -53 18 -73 5z"/>
<path d="M2062 291 c-7 -4 -35 -6 -63 -3 -44 4 -49 3 -49 -16 0 -11 7 -23 16
-26 13 -5 15 -15 11 -48 -3 -24 -11 -44 -16 -46 -6 -2 -11 -15 -11 -28 0 -22
4 -24 55 -24 52 0 55 1 55 25 0 16 -6 25 -15 25 -11 0 -15 11 -15 38 0 41 14
62 42 62 25 0 38 -31 38 -94 l0 -56 40 0 c36 0 40 3 40 24 0 13 -7 26 -15 30
-11 4 -15 20 -15 56 0 37 -5 55 -20 70 -21 21 -55 26 -78 11z"/>
<path d="M2249 271 c-23 -23 -29 -38 -29 -71 0 -33 6 -48 29 -71 62 -61 171
-16 171 71 0 87 -109 132 -171 71z m99 -33 c7 -7 12 -24 12 -38 0 -31 -17 -50
-45 -50 -28 0 -45 19 -45 50 0 31 17 50 45 50 12 0 26 -5 33 -12z"/>
<path d="M2874 285 c-56 -39 -53 -140 6 -170 57 -29 139 -11 125 27 -5 13 -14
16 -36 11 -38 -7 -79 4 -79 22 0 12 15 15 70 15 41 0 70 4 70 10 0 24 -30 79
-48 89 -29 16 -84 14 -108 -4z m85 -39 c12 -15 5 -24 -16 -20 -7 1 -23 2 -34
3 -18 1 -19 3 -9 16 16 19 44 19 59 1z"/>
<path d="M1250 270 c0 -11 7 -20 15 -20 11 0 15 -12 15 -50 0 -39 -4 -50 -16
-50 -10 0 -14 -7 -12 -22 3 -20 10 -23 56 -26 49 -3 52 -2 52 21 0 14 -7 27
-15 31 -11 4 -15 22 -15 71 l0 65 -40 0 c-33 0 -40 -3 -40 -20z"/>
<path d="M1800 271 c0 -10 7 -21 15 -25 21 -8 21 -96 0 -96 -9 0 -15 -9 -15
-25 0 -24 3 -25 55 -25 51 0 55 2 55 24 0 13 -7 26 -15 30 -11 4 -15 22 -15
71 l0 65 -40 0 c-33 0 -40 -4 -40 -19z"/>
</g>
</svg>
