<svg xmlns="http://www.w3.org/2000/svg" version="1.1" xmlns:xlink="http://www.w3.org/1999/xlink" xmlns:svgjs="http://svgjs.dev/svgjs" width="117" height="50"><svg width="117" height="50" viewBox="0 0 117 50" fill="none" xmlns="http://www.w3.org/2000/svg">
<path d="M13.1757 17.558C13.1757 15.31 14.6567 13.3307 16.8134 12.6964L49.3465 3.12783C55.5076 1.31575 62.0601 1.31575 68.2212 3.12783L100.754 12.6964C102.911 13.3307 104.392 15.31 104.392 17.558V32.442C104.392 34.69 102.911 36.6693 100.754 37.3036L68.2212 46.8722C62.0601 48.6842 55.5076 48.6842 49.3465 46.8722L16.8134 37.3036C14.6567 36.6693 13.1757 34.69 13.1757 32.442V17.558Z" fill="#196500" stroke="#196500" stroke-width="0.675676"></path>
<path d="M17.2303 19.1871C17.2303 17.2093 18.5522 15.4756 20.4594 14.9519L50.108 6.81159C55.7872 5.25232 61.7816 5.25232 67.4607 6.81158L97.1093 14.9519C99.0165 15.4756 100.338 17.2093 100.338 19.1871V30.8129C100.338 32.7907 99.0165 34.5245 97.1093 35.0481L67.4607 43.1884C61.7816 44.7477 55.7872 44.7477 50.108 43.1884L20.4594 35.0481C18.5522 34.5245 17.2303 32.7907 17.2303 30.8129V19.1871Z" stroke="white" stroke-width="2.02703"></path>
<path d="M35.0173 31.5446C34.3732 31.5446 33.7759 31.4919 33.2254 31.3865C32.6867 31.2811 32.1187 31.1405 31.5214 30.9649C31.1349 30.8477 30.8538 30.7833 30.6781 30.7716L30.8362 27.4865H32.47L32.9092 29.7351C33.0381 29.8874 33.2723 30.0221 33.6119 30.1392C33.9633 30.2563 34.379 30.3149 34.8592 30.3149C35.5736 30.3149 36.1065 30.1568 36.4579 29.8405C36.8209 29.5243 37.0025 29.091 37.0025 28.5405C37.0025 28.1541 36.8853 27.8203 36.6511 27.5392C36.4286 27.2464 36.1124 26.9829 35.7025 26.7486C35.3043 26.5027 34.7538 26.2216 34.0511 25.9054C33.1259 25.4838 32.3412 24.9509 31.6971 24.3068C31.0646 23.6509 30.7484 22.7901 30.7484 21.7243C30.7484 21.0685 30.9182 20.4712 31.2579 19.9324C31.5975 19.3937 32.1128 18.9604 32.8038 18.6324C33.4948 18.3045 34.3556 18.1405 35.3862 18.1405C36.007 18.1405 36.5457 18.1815 37.0025 18.2635C37.4709 18.3455 37.9687 18.4568 38.4957 18.5973C38.7768 18.691 38.9935 18.7437 39.1457 18.7554L39.0403 21.8824H37.4417L37.0376 19.7216C36.9556 19.6162 36.7682 19.5225 36.4754 19.4405C36.1944 19.3468 35.8781 19.3 35.5268 19.3C34.8826 19.3 34.3966 19.4522 34.0687 19.7568C33.7525 20.0613 33.5944 20.4536 33.5944 20.9338C33.5944 21.3554 33.729 21.7243 33.9984 22.0405C34.2678 22.3568 34.5899 22.6261 34.9646 22.8486C35.3511 23.0595 35.9367 23.3581 36.7214 23.7446C37.3421 24.0491 37.8808 24.3595 38.3376 24.6757C38.8061 24.9802 39.2043 25.3784 39.5322 25.8703C39.8601 26.3622 40.0241 26.936 40.0241 27.5919C40.0241 28.236 39.866 28.8568 39.5498 29.4541C39.2453 30.0513 38.7182 30.5491 37.9687 30.9473C37.2191 31.3455 36.2353 31.5446 35.0173 31.5446ZM46.7064 31.5446C44.7388 31.5446 43.2807 30.9532 42.332 29.7703C41.3834 28.5757 40.9091 26.936 40.9091 24.8513C40.9091 23.5045 41.155 22.3275 41.6469 21.3203C42.1505 20.3013 42.8532 19.5167 43.755 18.9662C44.6568 18.4158 45.7109 18.1405 46.9172 18.1405C48.9316 18.1405 50.4131 18.7027 51.3618 19.827C52.3221 20.9396 52.8023 22.5324 52.8023 24.6054C52.8023 25.9757 52.5505 27.1878 52.0469 28.2419C51.5433 29.2842 50.8289 30.0982 49.9036 30.6838C48.9901 31.2577 47.9244 31.5446 46.7064 31.5446ZM46.8645 19.3C46.0212 19.3 45.3654 19.7626 44.8969 20.6878C44.4401 21.6131 44.2118 22.995 44.2118 24.8338C44.2118 26.7077 44.4401 28.1013 44.8969 29.0149C45.3536 29.9167 46.0036 30.3676 46.8469 30.3676C47.6784 30.3676 48.3226 29.8757 48.7793 28.8919C49.2478 27.8964 49.482 26.4734 49.482 24.623C49.482 22.7491 49.2595 21.3964 48.8145 20.5649C48.3694 19.7216 47.7194 19.3 46.8645 19.3ZM55.2696 19.7568L53.8993 19.5284V18.2986H58.3088L63.1574 25.7824L64.1412 27.8905V19.7568L62.648 19.5284V18.2986H67.1453V19.5284L65.8101 19.7568V31.3513H63.2277L58.0804 23.323L56.9209 21.0041V29.9986L58.7831 30.1919V31.3513H53.8993V30.1919L55.2696 29.9986V19.7568ZM69.5641 19.7743L68.1235 19.5284V18.2986H74.0438V19.5284L72.5681 19.7743V30.0162L74.0438 30.2095V31.3513H68.1411V30.1919L69.5641 29.9986V19.7743ZM81.4045 31.5446C79.3784 31.5446 77.8383 30.959 76.7842 29.7878C75.7302 28.605 75.2031 26.9887 75.2031 24.9392C75.2031 23.5572 75.4842 22.3568 76.0464 21.3378C76.6085 20.3072 77.3815 19.5225 78.3653 18.9838C79.3491 18.4333 80.4617 18.1581 81.7031 18.1581C82.195 18.1581 82.6694 18.1874 83.1261 18.2459C83.5829 18.2928 84.1333 18.3631 84.7775 18.4568C85.2811 18.5387 85.6266 18.5856 85.814 18.5973L85.6031 22.5149H83.7234L83.1261 19.827C82.8685 19.5459 82.3297 19.4054 81.5099 19.4054C80.6081 19.4054 79.8937 19.8563 79.3667 20.7581C78.8513 21.6482 78.5937 22.9599 78.5937 24.6932C78.5937 26.3797 78.8455 27.7324 79.3491 28.7513C79.8644 29.7703 80.6081 30.2797 81.5802 30.2797C82.0603 30.2797 82.4234 30.2329 82.6694 30.1392C82.927 30.0455 83.1437 29.9108 83.3194 29.7351L84.1099 27.8554L85.8315 28.0135L85.5153 30.877C85.1757 30.9004 84.7599 30.9883 84.268 31.1405C83.7995 31.2694 83.3545 31.3689 82.9329 31.4392C82.523 31.5095 82.0135 31.5446 81.4045 31.5446Z" fill="white"></path>
<rect x="5.74311" y="18.5811" width="19.5946" height="4.05405" rx="2.02703" fill="#196500" stroke="#196500" stroke-width="0.675676"></rect>
<rect x="0.337838" y="22.6351" width="25" height="4.05405" rx="2.02703" fill="#196500" stroke="#196500" stroke-width="0.675676"></rect>
<rect x="5.74311" y="26.6892" width="19.5946" height="4.05405" rx="2.02703" fill="#196500" stroke="#196500" stroke-width="0.675676"></rect>
<rect x="7.09467" y="19.9324" width="19.5946" height="1.35135" rx="0.675676" fill="white" stroke="white" stroke-width="0.675676"></rect>
<rect x="1.6894" y="23.9865" width="25" height="1.35135" rx="0.675676" fill="white" stroke="white" stroke-width="0.675676"></rect>
<rect x="7.09467" y="28.0405" width="19.5946" height="1.35135" rx="0.675676" fill="white" stroke="white" stroke-width="0.675676"></rect>
<rect x="110.474" y="30.7432" width="19.5946" height="4.05405" rx="2.02703" transform="rotate(180 110.474 30.7432)" fill="#196500" stroke="#196500" stroke-width="0.675676"></rect>
<rect x="115.879" y="26.6892" width="25" height="4.05405" rx="2.02703" transform="rotate(180 115.879 26.6892)" fill="#196500" stroke="#196500" stroke-width="0.675676"></rect>
<rect x="110.474" y="22.6352" width="19.5946" height="4.05405" rx="2.02703" transform="rotate(180 110.474 22.6352)" fill="#196500" stroke="#196500" stroke-width="0.675676"></rect>
<rect x="109.122" y="29.3919" width="19.5946" height="1.35135" rx="0.675676" transform="rotate(180 109.122 29.3919)" fill="white" stroke="white" stroke-width="0.675676"></rect>
<rect x="114.527" y="25.3379" width="25" height="1.35135" rx="0.675676" transform="rotate(180 114.527 25.3379)" fill="white" stroke="white" stroke-width="0.675676"></rect>
<rect x="109.122" y="21.2838" width="19.5946" height="1.35135" rx="0.675676" transform="rotate(180 109.122 21.2838)" fill="white" stroke="white" stroke-width="0.675676"></rect>
</svg><style>@media (prefers-color-scheme: light) { :root { filter: none; } }
@media (prefers-color-scheme: dark) { :root { filter: none; } }
</style></svg>