<svg xmlns="http://www.w3.org/2000/svg" viewBox="0 0 64 64">
  <!-- Chat Bubble Background -->
  <path d="M56 32c0 13.3-10.7 24-24 24-4.1 0-8-1-11.4-2.9L8 56l2.9-12.6C9 39.9 8 36.1 8 32c0-13.3 10.7-24 24-24s24 10.7 24 24z" fill="#4A90E2"/>
  
  <!-- Person Icon -->
  <circle cx="32" cy="28" r="6" fill="#FFFFFF"/>
  <path d="M22 44c0-5.5 4.5-10 10-10s10 4.5 10 10" fill="#FFFFFF"/>
  
  <!-- Stars for Quality -->
  <path d="M52 12l2 4 4 1-4 1-2 4-2-4-4-1 4-1z" fill="#FFD700"/>
  <path d="M14 16l1.5 3 3 .5-3 .5-1.5 3-1.5-3-3-.5 3-.5z" fill="#FFD700"/>
  
  <!-- Small Decorative Circles -->
  <circle cx="20" cy="32" r="2" fill="#FFD700"/>
  <circle cx="44" cy="32" r="2" fill="#FFD700"/>
</svg>