<svg xmlns="http://www.w3.org/2000/svg" viewBox="0 0 64 64">
  <!-- Background Circle -->
  <circle cx="32" cy="32" r="28" fill="#4A90E2"/>
  
  <!-- Price Tag -->
  <path d="M20 20h24l12 12-20 20-16-16z" fill="#FFFFFF"/>
  <circle cx="28" cy="28" r="3" fill="#4A90E2"/>
  
  <!-- Dollar Sign -->
  <path d="M32 24v16M28 28h8" stroke="#4A90E2" stroke-width="2" stroke-linecap="round"/>
  
  <!-- Discount Lines -->
  <path d="M40 40l-12-12M36 44l-12-12M32 48l-12-12" 
    stroke="#FFD700" stroke-width="2" stroke-linecap="round"/>
    
  <!-- Stars -->
  <path d="M52 12l2 4 4 1-4 1-2 4-2-4-4-1 4-1z" fill="#FFD700"/>
  <path d="M12 44l1.5 3 3 .5-3 .5-1.5 3-1.5-3-3-.5 3-.5z" fill="#FFD700"/>
</svg>