<?xml version="1.0" encoding="UTF-8"?>
<svg xmlns="http://www.w3.org/2000/svg" xmlns:xlink="http://www.w3.org/1999/xlink" width="2112" height="2112" viewBox="0 0 2112 2112">

<path fill-rule="evenodd" fill="rgb(74.021912%, 74.804688%, 75.78125%)" fill-opacity="1" d="M 1056 1670.78125 C 1249.601562 1670.78125 1406.539062 1695.378906 1406.539062 1725.71875 C 1406.539062 1756.0625 1249.601562 1780.65625 1056 1780.65625 C 862.398438 1780.65625 705.453125 1756.0625 705.453125 1725.71875 C 705.453125 1695.378906 862.398438 1670.78125 1056 1670.78125 "/>
<path fill-rule="evenodd" fill="rgb(0%, 0%, 0%)" fill-opacity="1" d="M 1480.148438 738.460938 C 1488.480469 832.210938 1454 922.101562 1409.871094 1020.570312 C 1294.71875 1277.488281 1116.71875 1607.761719 1054.5 1726.289062 C 992.160156 1608.480469 796.101562 1236.8125 685.738281 978.339844 C 650.847656 896.621094 626.429688 814.449219 631.195312 737.558594 C 663.746094 212.410156 1430.480469 179.398438 1480.148438 738.460938 "/>
<path fill-rule="evenodd" fill="rgb(15.696716%, 15.696716%, 16.088867%)" fill-opacity="1" d="M 1055.28125 414.960938 C 1238.859375 414.960938 1387.679688 563.78125 1387.679688 747.359375 C 1387.679688 930.941406 1238.859375 1079.761719 1055.28125 1079.761719 C 871.699219 1079.761719 722.878906 930.941406 722.878906 747.359375 C 722.878906 563.78125 871.699219 414.960938 1055.28125 414.960938 "/>
<path fill-rule="nonzero" fill="rgb(100%, 100%, 100%)" fill-opacity="1" d="M 891.851562 469.308594 L 897.34375 480.441406 L 909.613281 482.230469 L 900.738281 490.878906 L 902.824219 503.101562 L 891.851562 497.351562 L 880.878906 503.101562 L 882.972656 490.878906 L 874.074219 482.230469 L 886.363281 480.441406 L 891.851562 469.308594 "/>
<path fill-rule="nonzero" fill="rgb(100%, 100%, 100%)" fill-opacity="1" d="M 975.484375 469.308594 L 980.980469 480.441406 L 993.25 482.230469 L 984.371094 490.878906 L 986.457031 503.101562 L 975.484375 497.351562 L 964.515625 503.101562 L 966.59375 490.878906 L 957.730469 482.230469 L 970.011719 480.441406 L 975.484375 469.308594 "/>
<path fill-rule="nonzero" fill="rgb(100%, 100%, 100%)" fill-opacity="1" d="M 808.222656 541.390625 L 813.695312 552.511719 L 825.980469 554.300781 L 817.113281 562.960938 L 819.199219 575.179688 L 808.222656 569.421875 L 797.230469 575.179688 L 799.324219 562.960938 L 790.460938 554.300781 L 802.734375 552.511719 L 808.222656 541.390625 "/>
<path fill-rule="nonzero" fill="rgb(100%, 100%, 100%)" fill-opacity="1" d="M 891.851562 541.390625 L 897.34375 552.511719 L 909.613281 554.300781 L 900.738281 562.960938 L 902.824219 575.179688 L 891.851562 569.421875 L 880.878906 575.179688 L 882.972656 562.960938 L 874.074219 554.300781 L 886.363281 552.511719 L 891.851562 541.390625 "/>
<path fill-rule="nonzero" fill="rgb(100%, 100%, 100%)" fill-opacity="1" d="M 975.484375 541.390625 L 980.980469 552.511719 L 993.25 554.300781 L 984.371094 562.960938 L 986.457031 575.179688 L 975.484375 569.421875 L 964.515625 575.179688 L 966.59375 562.960938 L 957.730469 554.300781 L 970.011719 552.511719 L 975.484375 541.390625 "/>
<path fill-rule="nonzero" fill="rgb(100%, 100%, 100%)" fill-opacity="1" d="M 808.222656 613.460938 L 813.695312 624.578125 L 825.980469 626.371094 L 817.113281 635.03125 L 819.199219 647.261719 L 808.222656 641.480469 L 797.230469 647.261719 L 799.324219 635.03125 L 790.460938 626.371094 L 802.734375 624.578125 L 808.222656 613.460938 "/>
<path fill-rule="nonzero" fill="rgb(100%, 100%, 100%)" fill-opacity="1" d="M 891.851562 613.460938 L 897.34375 624.578125 L 909.613281 626.371094 L 900.738281 635.03125 L 902.824219 647.261719 L 891.851562 641.480469 L 880.878906 647.261719 L 882.972656 635.03125 L 874.074219 626.371094 L 886.363281 624.578125 L 891.851562 613.460938 "/>
<path fill-rule="nonzero" fill="rgb(100%, 100%, 100%)" fill-opacity="1" d="M 975.484375 613.460938 L 980.980469 624.578125 L 993.25 626.371094 L 984.371094 635.03125 L 986.457031 647.261719 L 975.484375 641.480469 L 964.515625 647.261719 L 966.59375 635.03125 L 957.730469 626.371094 L 970.011719 624.578125 L 975.484375 613.460938 "/>
<path fill-rule="nonzero" fill="rgb(100%, 100%, 100%)" fill-opacity="1" d="M 727.566406 691.570312 L 730.078125 696.671875 L 742.355469 698.449219 L 733.464844 707.101562 L 735.554688 719.320312 L 724.589844 713.570312 L 724.578125 713.578125 C 725.332031 706.171875 726.339844 698.828125 727.566406 691.570312 "/>
<path fill-rule="nonzero" fill="rgb(100%, 100%, 100%)" fill-opacity="1" d="M 808.222656 685.539062 L 813.695312 696.671875 L 825.980469 698.449219 L 817.113281 707.101562 L 819.199219 719.320312 L 808.222656 713.570312 L 797.230469 719.320312 L 799.324219 707.101562 L 790.460938 698.449219 L 802.734375 696.671875 L 808.222656 685.539062 "/>
<path fill-rule="nonzero" fill="rgb(100%, 100%, 100%)" fill-opacity="1" d="M 891.851562 685.539062 L 897.34375 696.671875 L 909.613281 698.449219 L 900.738281 707.101562 L 902.824219 719.320312 L 891.851562 713.570312 L 880.878906 719.320312 L 882.972656 707.101562 L 874.074219 698.449219 L 886.363281 696.671875 L 891.851562 685.539062 "/>
<path fill-rule="nonzero" fill="rgb(100%, 100%, 100%)" fill-opacity="1" d="M 975.484375 685.539062 L 980.980469 696.671875 L 993.25 698.449219 L 984.371094 707.101562 L 986.457031 719.320312 L 975.484375 713.570312 L 964.515625 719.320312 L 966.59375 707.101562 L 957.730469 698.449219 L 970.011719 696.671875 L 975.484375 685.539062 "/>
<path fill-rule="nonzero" fill="rgb(100%, 100%, 100%)" fill-opacity="1" d="M 1387.679688 747.371094 C 1387.679688 930.949219 1238.859375 1079.761719 1055.28125 1079.761719 C 871.691406 1079.761719 722.878906 930.949219 722.878906 747.371094 C 722.878906 563.769531 871.691406 414.960938 1055.28125 414.960938 C 1238.859375 414.960938 1387.679688 563.769531 1387.679688 747.371094 "/>
<path fill-rule="nonzero" fill="rgb(13.719177%, 23.143005%, 68.554688%)" fill-opacity="1" d="M 723.914062 773.699219 L 1061.070312 773.699219 L 1061.070312 415.03125 C 1059.140625 415 1057.210938 414.960938 1055.28125 414.960938 C 871.691406 414.960938 722.878906 563.769531 722.878906 747.371094 C 722.878906 756.230469 723.234375 765.011719 723.914062 773.699219 "/>
<path fill-rule="nonzero" fill="rgb(92.1875%, 0%, 0%)" fill-opacity="1" d="M 1061.070312 467.609375 L 1234.871094 467.609375 C 1184.589844 435.269531 1125.03125 416.128906 1061.070312 415.03125 L 1061.070312 467.609375 "/>
<path fill-rule="nonzero" fill="rgb(92.1875%, 0%, 0%)" fill-opacity="1" d="M 1061.070312 569.640625 L 1336.210938 569.640625 C 1324.210938 550.699219 1310.339844 533.058594 1294.871094 516.96875 L 1061.070312 516.96875 L 1061.070312 569.640625 "/>
<path fill-rule="nonzero" fill="rgb(92.1875%, 0%, 0%)" fill-opacity="1" d="M 1061.070312 671.671875 L 1379.019531 671.671875 C 1374.789062 653.5 1369.058594 635.898438 1361.980469 619.011719 L 1061.070312 619.011719 L 1061.070312 671.671875 "/>
<path fill-rule="nonzero" fill="rgb(92.1875%, 0%, 0%)" fill-opacity="1" d="M 1061.070312 773.699219 L 1386.640625 773.699219 C 1387.320312 765.011719 1387.679688 756.230469 1387.679688 747.371094 C 1387.679688 738.5 1387.320312 729.710938 1386.640625 721.019531 L 1061.070312 721.019531 L 1061.070312 773.699219 "/>
<path fill-rule="nonzero" fill="rgb(92.1875%, 0%, 0%)" fill-opacity="1" d="M 748.582031 875.71875 L 1361.980469 875.71875 C 1369.058594 858.828125 1374.78125 841.230469 1379.019531 823.050781 L 731.542969 823.050781 C 735.777344 841.230469 741.503906 858.828125 748.582031 875.71875 "/>
<path fill-rule="nonzero" fill="rgb(92.1875%, 0%, 0%)" fill-opacity="1" d="M 815.675781 977.738281 L 1294.878906 977.738281 C 1310.351562 961.660156 1324.210938 944.019531 1336.210938 925.078125 L 774.339844 925.078125 C 786.347656 944.019531 800.207031 961.660156 815.675781 977.738281 "/>
<path fill-rule="nonzero" fill="rgb(92.1875%, 0%, 0%)" fill-opacity="1" d="M 1234.878906 1027.101562 L 875.671875 1027.101562 C 927.464844 1060.421875 989.109375 1079.761719 1055.28125 1079.761719 C 1121.441406 1079.761719 1183.089844 1060.421875 1234.878906 1027.101562 "/>
<path fill-rule="nonzero" fill="rgb(100%, 100%, 100%)" fill-opacity="1" d="M 940.898438 455.121094 L 952.929688 446.371094 L 938.0625 446.371094 L 935.128906 437.351562 C 933.84375 437.851562 932.566406 438.359375 931.289062 438.878906 L 928.851562 446.371094 L 914.09375 446.371094 L 914.03125 446.398438 L 926.011719 455.121094 L 921.417969 469.261719 L 933.457031 460.519531 L 945.496094 469.261719 L 940.898438 455.121094 "/>
<path fill-rule="nonzero" fill="rgb(100%, 100%, 100%)" fill-opacity="1" d="M 1024.660156 455.121094 L 1036.691406 446.371094 L 1021.808594 446.371094 L 1017.210938 432.210938 L 1012.621094 446.371094 L 997.742188 446.371094 L 1009.78125 455.121094 L 1005.191406 469.261719 L 1017.210938 460.519531 L 1029.261719 469.261719 L 1024.660156 455.121094 "/>
<path fill-rule="nonzero" fill="rgb(100%, 100%, 100%)" fill-opacity="1" d="M 899.011719 491 L 911.046875 482.269531 L 896.167969 482.269531 L 891.5625 468.109375 L 886.972656 482.269531 L 872.105469 482.269531 L 884.152344 491 L 879.546875 505.171875 L 891.5625 496.410156 L 903.613281 505.171875 L 899.011719 491 "/>
<path fill-rule="nonzero" fill="rgb(100%, 100%, 100%)" fill-opacity="1" d="M 982.777344 491 L 994.820312 482.269531 L 979.941406 482.269531 L 975.347656 468.109375 L 970.742188 482.269531 L 955.863281 482.269531 L 967.902344 491 L 963.296875 505.171875 L 975.347656 496.410156 L 987.367188 505.171875 L 982.777344 491 "/>
<path fill-rule="nonzero" fill="rgb(100%, 100%, 100%)" fill-opacity="1" d="M 857.121094 526.921875 L 869.164062 518.171875 L 854.28125 518.171875 L 849.695312 504.019531 L 845.101562 518.171875 L 830.214844 518.171875 L 842.261719 526.921875 L 837.65625 541.070312 L 849.695312 532.328125 L 861.726562 541.070312 L 857.121094 526.921875 "/>
<path fill-rule="nonzero" fill="rgb(100%, 100%, 100%)" fill-opacity="1" d="M 940.898438 526.921875 L 952.929688 518.171875 L 938.0625 518.171875 L 933.457031 504.019531 L 928.851562 518.171875 L 913.992188 518.171875 L 926.011719 526.921875 L 921.417969 541.070312 L 933.457031 532.328125 L 945.496094 541.070312 L 940.898438 526.921875 "/>
<path fill-rule="nonzero" fill="rgb(100%, 100%, 100%)" fill-opacity="1" d="M 1024.660156 526.921875 L 1036.691406 518.171875 L 1021.808594 518.171875 L 1017.210938 504.019531 L 1012.621094 518.171875 L 997.742188 518.171875 L 1009.78125 526.921875 L 1005.191406 541.070312 L 1017.210938 532.328125 L 1029.261719 541.070312 L 1024.660156 526.921875 "/>
<path fill-rule="nonzero" fill="rgb(100%, 100%, 100%)" fill-opacity="1" d="M 815.261719 562.808594 L 827.277344 554.070312 L 812.417969 554.070312 L 807.816406 539.921875 L 803.210938 554.070312 L 788.34375 554.070312 L 800.367188 562.808594 L 795.773438 576.96875 L 807.816406 568.210938 L 819.855469 576.96875 L 815.261719 562.808594 "/>
<path fill-rule="nonzero" fill="rgb(100%, 100%, 100%)" fill-opacity="1" d="M 899.011719 562.808594 L 911.046875 554.070312 L 896.167969 554.070312 L 891.5625 539.921875 L 886.972656 554.070312 L 872.105469 554.070312 L 884.152344 562.808594 L 879.546875 576.96875 L 891.5625 568.210938 L 903.613281 576.96875 L 899.011719 562.808594 "/>
<path fill-rule="nonzero" fill="rgb(100%, 100%, 100%)" fill-opacity="1" d="M 982.777344 562.808594 L 994.820312 554.070312 L 979.941406 554.070312 L 975.347656 539.921875 L 970.742188 554.070312 L 955.863281 554.070312 L 967.902344 562.808594 L 963.296875 576.96875 L 975.347656 568.210938 L 987.367188 576.96875 L 982.777344 562.808594 "/>
<path fill-rule="nonzero" fill="rgb(100%, 100%, 100%)" fill-opacity="1" d="M 773.367188 598.71875 L 785.402344 589.96875 L 770.527344 589.96875 L 767.550781 580.828125 C 764.21875 586.578125 761.058594 592.449219 758.0625 598.410156 L 758.488281 598.71875 L 753.894531 612.871094 L 765.925781 604.128906 L 777.972656 612.871094 L 773.367188 598.71875 "/>
<path fill-rule="nonzero" fill="rgb(100%, 100%, 100%)" fill-opacity="1" d="M 857.121094 598.71875 L 869.164062 589.96875 L 854.28125 589.96875 L 849.695312 575.820312 L 845.101562 589.96875 L 830.214844 589.96875 L 842.261719 598.71875 L 837.65625 612.871094 L 849.695312 604.128906 L 861.726562 612.871094 L 857.121094 598.71875 "/>
<path fill-rule="nonzero" fill="rgb(100%, 100%, 100%)" fill-opacity="1" d="M 940.898438 598.71875 L 952.929688 589.96875 L 938.0625 589.96875 L 933.457031 575.820312 L 928.851562 589.96875 L 913.992188 589.96875 L 926.011719 598.71875 L 921.417969 612.871094 L 933.457031 604.128906 L 945.496094 612.871094 L 940.898438 598.71875 "/>
<path fill-rule="nonzero" fill="rgb(100%, 100%, 100%)" fill-opacity="1" d="M 1024.660156 598.71875 L 1036.691406 589.96875 L 1021.808594 589.96875 L 1017.210938 575.820312 L 1012.621094 589.96875 L 997.742188 589.96875 L 1009.78125 598.71875 L 1005.191406 612.871094 L 1017.210938 604.128906 L 1029.261719 612.871094 L 1024.660156 598.71875 "/>
<path fill-rule="nonzero" fill="rgb(100%, 100%, 100%)" fill-opacity="1" d="M 815.261719 634.609375 L 827.277344 625.871094 L 812.417969 625.871094 L 807.816406 611.71875 L 803.210938 625.871094 L 788.34375 625.871094 L 800.367188 634.609375 L 795.773438 648.761719 L 807.816406 640.011719 L 819.855469 648.761719 L 815.261719 634.609375 "/>
<path fill-rule="nonzero" fill="rgb(100%, 100%, 100%)" fill-opacity="1" d="M 899.011719 634.609375 L 911.046875 625.871094 L 896.167969 625.871094 L 891.5625 611.71875 L 886.972656 625.871094 L 872.105469 625.871094 L 884.152344 634.609375 L 879.546875 648.761719 L 891.5625 640.011719 L 903.613281 648.761719 L 899.011719 634.609375 "/>
<path fill-rule="nonzero" fill="rgb(100%, 100%, 100%)" fill-opacity="1" d="M 982.777344 634.609375 L 994.820312 625.871094 L 979.941406 625.871094 L 975.347656 611.71875 L 970.742188 625.871094 L 955.863281 625.871094 L 967.902344 634.609375 L 963.296875 648.761719 L 975.347656 640.011719 L 987.367188 648.761719 L 982.777344 634.609375 "/>
<path fill-rule="nonzero" fill="rgb(100%, 100%, 100%)" fill-opacity="1" d="M 773.367188 670.519531 L 785.402344 661.78125 L 770.527344 661.78125 L 765.925781 647.621094 L 761.339844 661.78125 L 746.464844 661.78125 L 758.488281 670.519531 L 753.894531 684.671875 L 765.925781 675.929688 L 777.972656 684.671875 L 773.367188 670.519531 "/>
<path fill-rule="nonzero" fill="rgb(100%, 100%, 100%)" fill-opacity="1" d="M 857.121094 670.519531 L 869.164062 661.78125 L 854.28125 661.78125 L 849.695312 647.621094 L 845.101562 661.78125 L 830.214844 661.78125 L 842.261719 670.519531 L 837.65625 684.671875 L 849.695312 675.929688 L 861.726562 684.671875 L 857.121094 670.519531 "/>
<path fill-rule="nonzero" fill="rgb(100%, 100%, 100%)" fill-opacity="1" d="M 940.898438 670.519531 L 952.929688 661.78125 L 938.0625 661.78125 L 933.457031 647.621094 L 928.851562 661.78125 L 913.992188 661.78125 L 926.011719 670.519531 L 921.417969 684.671875 L 933.457031 675.929688 L 945.496094 684.671875 L 940.898438 670.519531 "/>
<path fill-rule="nonzero" fill="rgb(100%, 100%, 100%)" fill-opacity="1" d="M 1024.660156 670.519531 L 1036.691406 661.78125 L 1021.808594 661.78125 L 1017.210938 647.621094 L 1012.621094 661.78125 L 997.742188 661.78125 L 1009.78125 670.519531 L 1005.191406 684.671875 L 1017.210938 675.929688 L 1029.261719 684.671875 L 1024.660156 670.519531 "/>
<path fill-rule="nonzero" fill="rgb(100%, 100%, 100%)" fill-opacity="1" d="M 731.476562 706.410156 L 743.523438 697.671875 L 728.636719 697.671875 L 727.257812 693.429688 C 726.238281 699.671875 725.386719 705.96875 724.71875 712.320312 L 736.082031 720.570312 L 731.476562 706.410156 "/>
<path fill-rule="nonzero" fill="rgb(100%, 100%, 100%)" fill-opacity="1" d="M 815.261719 706.410156 L 827.277344 697.671875 L 812.417969 697.671875 L 807.816406 683.519531 L 803.210938 697.671875 L 788.34375 697.671875 L 800.367188 706.410156 L 795.773438 720.570312 L 807.816406 711.820312 L 819.855469 720.570312 L 815.261719 706.410156 "/>
<path fill-rule="nonzero" fill="rgb(100%, 100%, 100%)" fill-opacity="1" d="M 899.011719 706.410156 L 911.046875 697.671875 L 896.167969 697.671875 L 891.5625 683.519531 L 886.972656 697.671875 L 872.105469 697.671875 L 884.152344 706.410156 L 879.546875 720.570312 L 891.5625 711.820312 L 903.613281 720.570312 L 899.011719 706.410156 "/>
<path fill-rule="nonzero" fill="rgb(100%, 100%, 100%)" fill-opacity="1" d="M 982.777344 706.410156 L 994.820312 697.671875 L 979.941406 697.671875 L 975.347656 683.519531 L 970.742188 697.671875 L 955.863281 697.671875 L 967.902344 706.410156 L 963.296875 720.570312 L 975.347656 711.820312 L 987.367188 720.570312 L 982.777344 706.410156 "/>
<path fill-rule="nonzero" fill="rgb(100%, 100%, 100%)" fill-opacity="1" d="M 773.367188 742.328125 L 785.402344 733.570312 L 770.527344 733.570312 L 765.925781 719.429688 L 761.339844 733.570312 L 746.464844 733.570312 L 758.488281 742.328125 L 753.894531 756.46875 L 765.925781 747.738281 L 777.972656 756.46875 L 773.367188 742.328125 "/>
<path fill-rule="nonzero" fill="rgb(100%, 100%, 100%)" fill-opacity="1" d="M 857.121094 742.328125 L 869.164062 733.570312 L 854.28125 733.570312 L 849.695312 719.429688 L 845.101562 733.570312 L 830.214844 733.570312 L 842.261719 742.328125 L 837.65625 756.46875 L 849.695312 747.738281 L 861.726562 756.46875 L 857.121094 742.328125 "/>
<path fill-rule="nonzero" fill="rgb(100%, 100%, 100%)" fill-opacity="1" d="M 940.898438 742.328125 L 952.929688 733.570312 L 938.0625 733.570312 L 933.457031 719.429688 L 928.851562 733.570312 L 913.992188 733.570312 L 926.011719 742.328125 L 921.417969 756.46875 L 933.457031 747.738281 L 945.496094 756.46875 L 940.898438 742.328125 "/>
<path fill-rule="nonzero" fill="rgb(100%, 100%, 100%)" fill-opacity="1" d="M 1024.660156 742.328125 L 1036.691406 733.570312 L 1021.808594 733.570312 L 1017.210938 719.429688 L 1012.621094 733.570312 L 997.742188 733.570312 L 1009.78125 742.328125 L 1005.191406 756.46875 L 1017.210938 747.738281 L 1029.261719 756.46875 L 1024.660156 742.328125 "/>
</svg>
