<svg width="24" height="24" viewBox="0 0 24 24" fill="none" xmlns="http://www.w3.org/2000/svg">
<path d="M12.3892 5.99349e-06C13.0633 5.85461e-06 13.6564 -0.00184402 14.1363 0.0595763C14.6421 0.124333 15.1398 0.271494 15.567 0.650397C15.9938 1.02919 16.2001 1.50691 16.3267 2.00294C16.4469 2.47368 16.5186 3.06552 16.6021 3.73731L16.7076 4.5879C17.2468 4.69417 17.7459 4.89326 18.1734 5.29102C18.687 5.76887 18.9255 6.37184 19.0631 7.03223C19.1951 7.66639 19.2541 8.46862 19.3267 9.41797L19.5299 12.0615L21.5816 12.9746C21.7706 13.0587 21.9975 13.1584 22.1803 13.2715C22.3649 13.3858 22.5749 13.5547 22.7213 13.8213L22.7799 13.9404L22.8258 14.0635C22.9172 14.3475 22.9006 14.6124 22.857 14.8281C22.8145 15.0381 22.7305 15.2688 22.6646 15.4551C22.2769 16.5518 21.4751 18.4221 20.3355 20.1846C20.4116 20.2062 20.4864 20.2277 20.5582 20.251C20.9198 20.3684 21.2931 20.5232 21.6256 20.6602C21.9727 20.8032 22.2748 20.9275 22.5465 21.0186C22.7598 21.09 22.9036 21.1226 22.9928 21.1338L23.064 21.1387L23.1588 21.1416C23.6247 21.1829 23.9932 21.5737 23.9996 22.0537C24.0059 22.5337 23.6478 22.9335 23.1832 22.9873L23.0894 22.9932L22.941 22.9902C22.5959 22.9713 22.2518 22.8753 21.9625 22.7783C21.6189 22.6632 21.2521 22.51 20.9244 22.375C20.5822 22.234 20.2731 22.1085 19.9898 22.0166C19.6983 21.922 19.503 21.8868 19.3844 21.8867C19.29 21.8867 19.1424 21.9161 18.9029 22.0107C18.657 22.108 18.4109 22.2325 18.0748 22.3916C17.4668 22.6795 16.6149 23.0592 15.6392 22.9912C14.8567 22.9787 14.0707 22.6058 13.5269 22.3643C12.8634 22.0696 12.4014 21.8867 11.9996 21.8867C11.5979 21.8868 11.1357 22.0696 10.4722 22.3643C9.91884 22.6101 9.11497 22.9926 8.31893 22.9922L8.3199 22.9932C8.31645 22.9932 8.3126 22.9922 8.30916 22.9922C8.30603 22.9922 8.30252 22.9932 8.2994 22.9932V22.9922C7.9124 22.9935 7.51791 22.8872 7.19295 22.7783C6.8495 22.6632 6.48341 22.51 6.15584 22.375C5.81361 22.234 5.50458 22.1086 5.22127 22.0166C4.92951 21.9219 4.73346 21.8867 4.61483 21.8867C4.52048 21.8868 4.37334 21.9163 4.13436 22.0107C3.88834 22.108 3.64154 22.2324 3.30525 22.3916C2.73229 22.6629 1.94314 23.0161 1.03768 22.999L0.854083 22.9912L0.760333 22.9795C0.300188 22.8973 -0.0324419 22.4764 0.00252043 21.9981C0.0378271 21.5191 0.429313 21.1514 0.897052 21.1387L0.991778 21.1406L1.16072 21.1445C1.5602 21.1306 1.98153 20.9679 2.51815 20.7139C2.7939 20.5833 3.13702 20.412 3.4576 20.2852C3.5276 20.2575 3.60119 20.2301 3.67733 20.2041C2.53086 18.4361 1.72472 16.5559 1.33553 15.4551C1.26968 15.2688 1.18565 15.038 1.14315 14.8281C1.09329 14.5815 1.0784 14.2708 1.22029 13.9404C1.36499 13.6038 1.60818 13.4021 1.81893 13.2715C2.00195 13.1582 2.23034 13.0588 2.41951 12.9746L4.46932 12.0615L4.67244 9.41797C4.74513 8.46858 4.80508 7.66641 4.93709 7.03223C5.07462 6.37185 5.31321 5.76887 5.82674 5.29102C6.25388 4.8937 6.75212 4.69426 7.29061 4.5879L7.39705 3.73731C7.48063 3.06552 7.55232 2.47368 7.67244 2.00294C7.79912 1.50675 8.0061 1.02926 8.43318 0.650397C8.8604 0.27149 9.358 0.124324 9.86385 0.0595763C10.3437 -0.0017829 10.9371 5.99349e-06 11.6109 5.99349e-06L12.3892 5.99349e-06ZM11.9283 10.7813C11.8294 10.8161 11.6995 10.873 11.4625 10.9785L3.16658 14.6699C3.1187 14.6912 3.076 14.7103 3.03768 14.7275C3.04897 14.7598 3.06102 14.796 3.07479 14.835C3.52437 16.1065 4.57784 18.4902 6.04256 20.3389C6.32196 20.4398 6.60093 20.555 6.85604 20.6602C7.20334 20.8033 7.5061 20.9275 7.77791 21.0186C8.06129 21.1135 8.22166 21.1395 8.29451 21.1387C8.30121 21.1386 8.3093 21.1376 8.316 21.1377C8.63224 21.1401 9.03413 20.9753 9.72615 20.668C10.3134 20.4072 11.1391 20.0323 11.9996 20.0322C12.8601 20.0322 13.6858 20.4072 14.273 20.668C14.9654 20.9755 15.3678 21.1402 15.6842 21.1377C15.7093 21.1375 15.7352 21.1388 15.7603 21.1406C16.2118 21.1741 16.6746 21.0041 17.2877 20.7139C17.4679 20.6286 17.6768 20.5261 17.8892 20.4297C17.901 20.4127 17.9133 20.3953 17.9263 20.3789C19.4075 18.5249 20.4726 16.1156 20.9254 14.835C20.9391 14.7962 20.9493 14.7597 20.9605 14.7275C20.9225 14.7104 20.88 14.691 20.8326 14.6699L12.5377 10.9785C12.3005 10.8729 12.1708 10.8161 12.0719 10.7813C11.9891 10.7522 11.9805 10.7577 11.9996 10.7578C12.0194 10.7578 12.0117 10.752 11.9283 10.7813ZM10.0103 6.30665C9.01255 6.30665 8.35364 6.30863 7.86092 6.37305C7.39438 6.43409 7.20406 6.53753 7.08065 6.65235C6.95738 6.76716 6.83999 6.9491 6.74373 7.41114C6.64195 7.89986 6.58982 8.56061 6.51326 9.56055L6.38631 11.209L10.7144 9.28321C11.0891 9.11648 11.5209 8.90349 11.9996 8.90333C12.4785 8.90333 12.9109 9.11642 13.2857 9.28321L17.6119 11.208L17.4859 9.56055C17.4094 8.56062 17.3572 7.89986 17.2554 7.41114C17.1591 6.94887 17.0419 6.76714 16.9185 6.65235C16.7951 6.53757 16.6056 6.43408 16.1392 6.37305C15.6465 6.30861 14.9876 6.30665 13.9898 6.30665L10.0103 6.30665ZM11.6109 1.8545C10.8887 1.8545 10.4334 1.85646 10.0972 1.89942C9.78802 1.939 9.69893 2.00107 9.65486 2.04005C9.61094 2.07904 9.53814 2.15986 9.46053 2.46387C9.37638 2.7937 9.31867 3.24674 9.22908 3.9668L9.16756 4.45508C9.43391 4.45284 9.71497 4.45215 10.0103 4.45215L13.9898 4.45215C14.2848 4.45215 14.5656 4.45284 14.8316 4.45508L14.7711 3.9668C14.6815 3.24673 14.6228 2.79371 14.5387 2.46387C14.461 2.15957 14.3882 2.07898 14.3443 2.04005C14.3002 2.00107 14.212 1.93899 13.9029 1.89942C13.5667 1.8564 13.1118 1.8545 12.3892 1.8545L11.6109 1.8545Z" fill="white"/>
</svg>
