<svg width="24" height="24" viewBox="0 0 24 24" fill="none" xmlns="http://www.w3.org/2000/svg">
<path d="M10.7198 1.7653C11.4614 1.14744 12.5387 1.14737 13.2803 1.7653L21.2119 8.37467C21.7438 8.81814 22.0056 9.50056 21.918 10.1794C21.7782 11.2596 21.5001 13.6223 21.5 15.2497C21.5 16.6199 21.6974 18.5188 21.8448 19.738C21.9881 20.9248 21.0702 21.9994 19.8496 21.9997H4.1514C2.93095 21.9997 2.0119 20.9254 2.1553 19.738C2.30266 18.5188 2.50003 16.6198 2.50003 15.2497C2.49999 13.6223 2.22183 11.2596 2.08206 10.1794C1.99447 9.50056 2.25621 8.81815 2.78812 8.37467L10.7198 1.7653ZM4.06839 9.91081C4.06747 9.91173 4.06459 9.91603 4.06546 9.9235C4.20413 10.9953 4.49999 13.4768 4.50003 15.2497C4.50003 16.7522 4.28818 18.7576 4.14065 19.9782C4.14036 19.9808 4.14055 19.9829 4.14065 19.984C4.14076 19.9851 4.14128 19.9869 4.14163 19.988C4.14246 19.9904 4.14408 19.9939 4.14651 19.9967C4.14828 19.9987 4.14991 19.9994 4.15042 19.9997H8.00003V14.9997C8.00021 12.7907 9.791 10.9997 12 10.9997C14.209 10.9997 15.9998 12.7907 16 14.9997V19.9997H19.8496C19.8502 19.9994 19.8519 19.9986 19.8535 19.9967C19.856 19.9939 19.8576 19.9904 19.8584 19.988C19.8588 19.9869 19.8593 19.9852 19.8594 19.984C19.8595 19.9829 19.8597 19.9808 19.8594 19.9782C19.7119 18.7576 19.5 16.7522 19.5 15.2497C19.5001 13.4768 19.7959 10.9953 19.9346 9.9235C19.9355 9.91604 19.9326 9.91173 19.9317 9.91081L12 3.30143L4.06839 9.91081ZM12 12.9997C10.8956 12.9997 10.0002 13.8953 10 14.9997V19.9997H14V14.9997C13.9998 13.8953 13.1044 12.9997 12 12.9997Z" fill="white"/>
</svg>
