<svg width="24" height="24" viewBox="0 0 24 24" fill="none" xmlns="http://www.w3.org/2000/svg">
<path d="M18.5 12.5001C20.9672 12.5002 23 14.4679 23 16.9346C22.9999 18.3781 22.2714 19.4119 21.5615 20.2061C21.2255 20.582 20.8134 20.988 20.5146 21.3028C20.2692 21.5615 20.0579 21.8012 19.8838 22.0381L19.7217 22.2745C19.5162 22.6018 19.1158 22.9999 18.5059 23.0001C17.9066 23.0001 17.5056 22.6139 17.2949 22.3008C17.0841 21.9875 16.8078 21.6746 16.4736 21.3233C16.1586 20.9922 15.763 20.5984 15.4189 20.2042C14.715 19.3975 14.0001 18.35 14 16.9346C14 14.4679 16.0327 12.5001 18.5 12.5001ZM19.0537 1.00006C19.7357 1.0142 20.2637 1.31074 20.6211 1.62018C20.882 1.84619 21.0764 2.0983 21.207 2.31256L21.3164 2.51276L21.3428 2.5694C21.9312 3.99647 22.3475 5.13644 22.6182 6.01862C22.8797 6.87117 23.0332 7.56983 23.0332 8.07428C23.0332 8.14216 23.0264 8.20995 23.0127 8.27643C22.7946 9.33074 21.9248 11.046 19.2979 11.7667C17.2033 12.3411 15.7424 11.6479 14.9062 10.9991C14.7752 11.0883 14.6369 11.1766 14.4912 11.2598C13.8321 11.6366 12.967 11.9684 11.9951 11.9551C10.7967 11.9386 9.83279 11.5071 9.17676 11.0479C8.59759 11.4928 7.88092 11.8325 7.01074 11.9464C5.97431 12.0819 5.06214 11.923 4.3584 11.6827C4.23389 11.6401 4.11464 11.5922 4 11.544V15.0001C4 16.4423 4.00184 17.4235 4.10059 18.1583C4.19551 18.8643 4.36337 19.1915 4.58594 19.4141C4.80851 19.6366 5.13589 19.8046 5.8418 19.8995C6.57655 19.9982 7.55792 20.0001 9 20.0001H12C12.5522 20.0002 13 20.4478 13 21.0001C13 21.5522 12.5522 21.9999 12 22.0001H9C7.61427 22.0001 6.47419 22.0017 5.5752 21.8809C4.64743 21.7562 3.82796 21.4842 3.17188 20.8282C2.51579 20.1721 2.24389 19.3527 2.11914 18.4249C1.99829 17.5258 2 16.3859 2 15.0001V10.0714C1.71684 9.76647 1.35683 9.33441 1.18457 8.90631C1.06889 8.61876 1.03906 8.31699 1.03418 8.07916C1.02905 7.82851 1.05034 7.57301 1.08301 7.3399C1.14529 6.89568 1.26069 6.44759 1.37305 6.14264H1.37207L2.05566 4.16119C2.13822 3.91486 2.28607 3.4693 2.46777 3.03131C2.55989 2.80929 2.66704 2.57258 2.78613 2.35553C2.89847 2.15082 3.05255 1.90537 3.25293 1.70612C3.66897 1.2925 4.21566 1.14131 4.5752 1.07526C4.96213 1.00423 5.32274 1.00006 5.50293 1.00006H12.5225C13.413 1.01265 14.8393 1.00918 16.1504 1.00397C17.4459 0.998819 18.6473 0.991689 19.0537 1.00006ZM18.5 14.5001C17.1013 14.5001 16 15.608 16 16.9346C16.0001 17.6198 16.3276 18.2033 16.9258 18.8887C17.2327 19.2404 17.5536 19.5583 17.9219 19.9454C18.1086 20.1416 18.302 20.3516 18.4893 20.5743C18.6778 20.3424 18.8737 20.1268 19.0635 19.9268C19.4451 19.5247 19.7515 19.2308 20.0703 18.8741C20.6704 18.2027 20.9999 17.6362 21 16.9346C21 15.6081 19.8986 14.5002 18.5 14.5001ZM11 16.0001C11.5522 16.0002 12 16.4478 12 17.0001C12 17.5522 11.5522 17.9999 11 18.0001H7C6.44773 18.0001 6.00003 17.5523 6 17.0001C6 16.4478 6.44772 16.0001 7 16.0001H11ZM18.5088 16.0001C19.061 16.0002 19.5088 16.4478 19.5088 17.0001C19.5088 17.5522 19.061 17.9999 18.5088 18.0001H18.5C17.9477 18.0001 17.5 17.5523 17.5 17.0001C17.5 16.4478 17.9477 16.0001 18.5 16.0001H18.5088ZM16.1592 3.00397C15.5063 3.00656 14.8176 3.00879 14.1787 3.00885L12.4941 3.00006H5.50293C5.34974 3.00006 5.13794 3.00511 4.93652 3.04205C4.83788 3.06018 4.76129 3.08228 4.70801 3.10455C4.65369 3.12731 4.64767 3.13941 4.66309 3.12408C4.66307 3.12415 4.61836 3.17569 4.54004 3.31842C4.4682 3.44937 4.39173 3.61307 4.31543 3.79694C4.16235 4.16587 4.03402 4.55277 3.94922 4.80573L3.94629 4.81354L3.2627 6.79401C3.25937 6.80364 3.25557 6.81378 3.25195 6.8233C3.19683 6.96862 3.11127 7.28343 3.06445 7.61725C3.04162 7.78011 3.03088 7.92442 3.0332 8.03815C3.03548 8.14899 3.04946 8.18388 3.04395 8.16901C3.04477 8.17069 3.04577 8.17272 3.04688 8.17487C3.05248 8.18577 3.06094 8.20103 3.07227 8.21979C3.09548 8.25821 3.12809 8.30608 3.16992 8.36237C3.25441 8.47601 3.36349 8.6045 3.48535 8.73444C3.67656 8.93827 3.86376 9.10981 3.98926 9.21295L4.09277 9.29205L4.20898 9.3858C4.21127 9.38785 4.2298 9.40455 4.26953 9.43268C4.311 9.46202 4.36807 9.49865 4.43945 9.53912C4.58265 9.62029 4.77391 9.7112 5.00488 9.7901C5.46688 9.94788 6.06734 10.0523 6.75098 9.96295C8.12045 9.78369 8.93922 8.49905 9.17285 7.65436C9.32016 7.12237 9.87124 6.81015 10.4033 6.95709C10.9354 7.10437 11.2476 7.65541 11.1006 8.18756C10.9969 8.56244 10.8042 9.03981 10.5107 9.52838C10.8721 9.74108 11.3872 9.94637 12.0225 9.95514C12.527 9.96206 13.0384 9.78685 13.499 9.5235C13.9541 9.26326 14.2958 8.95226 14.4531 8.77448C14.4709 8.74913 14.5249 8.66774 14.6035 8.50885C14.6998 8.3144 14.8228 8.02343 14.9531 7.61627C15.1215 7.09058 15.6842 6.80083 16.21 6.96881C16.7358 7.13721 17.0267 7.70068 16.8584 8.22662L16.7422 8.56842C16.5981 8.97147 16.4515 9.29664 16.3145 9.55182C16.8128 9.87524 17.6132 10.1538 18.7686 9.83698C20.4388 9.37874 20.8966 8.44685 21.0254 7.97955C21.0059 7.75435 20.9249 7.31905 20.7061 6.60553C20.4623 5.8111 20.0748 4.74687 19.5098 3.37408C19.4827 3.32561 19.4146 3.22038 19.3125 3.1319C19.2068 3.04031 19.1098 3.00211 19.0127 3.00006C18.6392 2.99235 17.4797 2.99872 16.1592 3.00397Z" fill="white"/>
</svg>
