<svg width="24" height="24" viewBox="0 0 24 24" fill="none" xmlns="http://www.w3.org/2000/svg">
<path d="M20.2188 15.375C20.5638 14.9437 21.1937 14.8737 21.625 15.2188C22.0563 15.5638 22.1263 16.1937 21.7812 16.625L17.7812 21.625C17.6036 21.847 17.3395 21.9822 17.0557 21.998C16.7717 22.0138 16.4941 21.9082 16.293 21.707L14.293 19.707L14.2246 19.6309C13.9043 19.2381 13.9269 18.6591 14.293 18.293C14.6591 17.9269 15.2381 17.9043 15.6309 18.2246L15.707 18.293L16.916 19.502L20.2188 15.375ZM14 9C14 7.89543 13.1046 7 12 7C10.8954 7 10 7.89543 10 9C10 10.1046 10.8954 11 12 11C13.1046 11 14 10.1046 14 9ZM20 12V5C20 4.44772 19.5523 4 19 4H5C4.44772 4 4 4.44772 4 5V19C4 19.5523 4.44772 20 5 20H6V19C6 16.2386 8.23858 14 11 14H12C12.5523 14 13 14.4477 13 15C13 15.5523 12.5523 16 12 16H11C9.34315 16 8 17.3431 8 19V20H12C12.5523 20 13 20.4477 13 21C13 21.5523 12.5523 22 12 22H5C3.34315 22 2 20.6569 2 19V5C2 3.34315 3.34315 2 5 2H19C20.6569 2 22 3.34315 22 5V12C22 12.5523 21.5523 13 21 13C20.4477 13 20 12.5523 20 12ZM16 9C16 11.2091 14.2091 13 12 13C9.79086 13 8 11.2091 8 9C8 6.79086 9.79086 5 12 5C14.2091 5 16 6.79086 16 9Z" fill="white"/>
</svg>
